<svg width="17" height="32" viewBox="0 0 17 32" fill="none" xmlns="http://www.w3.org/2000/svg">
<path fill-rule="evenodd" clip-rule="evenodd" d="M16.3598 0.00665814L12.2823 0C7.70134 0 4.74092 3.09104 4.74092 7.87524V11.5063H0.641151C0.286883 11.5063 0 11.7985 0 12.1591V17.42C0 17.7806 0.28721 18.0725 0.641151 18.0725H4.74092V31.3475C4.74092 31.708 5.0278 32 5.38207 32H10.7311C11.0854 32 11.3723 31.7077 11.3723 31.3475V18.0725H16.1658C16.5201 18.0725 16.807 17.7806 16.807 17.42L16.809 12.1591C16.809 11.986 16.7412 11.8202 16.6212 11.6977C16.5011 11.5752 16.3376 11.5063 16.1675 11.5063H11.3723V8.4282C11.3723 6.94876 11.7187 6.19773 13.6124 6.19773L16.3592 6.19673C16.7131 6.19673 17 5.90444 17 5.54423V0.659155C17 0.299283 16.7134 0.00732395 16.3598 0.00665814Z" fill="white"/>
</svg>
