<svg width="32" height="32" viewBox="0 0 32 32" fill="none" xmlns="http://www.w3.org/2000/svg">
<path fill-rule="evenodd" clip-rule="evenodd" d="M24.3598 0.00665814L20.2823 0C15.7013 0 12.7409 3.09104 12.7409 7.87524V11.5063H8.64115C8.28688 11.5063 8 11.7985 8 12.1591V17.42C8 17.7806 8.28721 18.0725 8.64115 18.0725H12.7409V31.3475C12.7409 31.708 13.0278 32 13.3821 32H18.7311C19.0854 32 19.3723 31.7077 19.3723 31.3475V18.0725H24.1658C24.5201 18.0725 24.807 17.7806 24.807 17.42L24.809 12.1591C24.809 11.986 24.7412 11.8202 24.6212 11.6977C24.5011 11.5752 24.3376 11.5063 24.1675 11.5063H19.3723V8.4282C19.3723 6.94876 19.7187 6.19773 21.6124 6.19773L24.3592 6.19673C24.7131 6.19673 25 5.90444 25 5.54423V0.659155C25 0.299283 24.7134 0.00732395 24.3598 0.00665814Z" fill="#36404C"/>
</svg>
