<svg width="1173" height="695" viewBox="0 0 1173 695" fill="none" xmlns="http://www.w3.org/2000/svg">
<g opacity="0.54827">
<path fill-rule="evenodd" clip-rule="evenodd" d="M25.4416 48.6293C25.4416 53.5789 20.8449 57.588 15.1756 57.588C9.50638 57.588 4.90967 53.5789 4.90967 48.6293C4.90967 43.682 9.50638 39.6707 15.1756 39.6707C20.8449 39.6707 25.4416 43.682 25.4416 48.6293Z" stroke="#FF525B" stroke-width="1.5"/>
<path fill-rule="evenodd" clip-rule="evenodd" d="M70.0764 48.6293C70.0764 53.5789 65.4797 57.588 59.8104 57.588C54.1411 57.588 49.5444 53.5789 49.5444 48.6293C49.5444 43.682 54.1411 39.6707 59.8104 39.6707C65.4797 39.6707 70.0764 43.682 70.0764 48.6293Z" stroke="#FF525B" stroke-width="1.5"/>
<path fill-rule="evenodd" clip-rule="evenodd" d="M119.175 48.6293C119.175 53.5789 114.578 57.588 108.909 57.588C103.239 57.588 98.6426 53.5789 98.6426 48.6293C98.6426 43.682 103.239 39.6707 108.909 39.6707C114.578 39.6707 119.175 43.682 119.175 48.6293Z" stroke="#FF525B" stroke-width="1.5"/>
<path fill-rule="evenodd" clip-rule="evenodd" d="M163.809 48.6293C163.809 53.5789 159.213 57.588 153.543 57.588C147.871 57.588 143.277 53.5789 143.277 48.6293C143.277 43.682 147.871 39.6707 153.543 39.6707C159.213 39.6707 163.809 43.682 163.809 48.6293Z" stroke="#FF525B" stroke-width="1.5"/>
<mask id="mask0" mask-type="alpha" maskUnits="userSpaceOnUse" x="0" y="-75" width="1173" height="1170">
<path fill-rule="evenodd" clip-rule="evenodd" d="M0.446289 1095H1172.55V-75H0.446289V1095Z" fill="white"/>
</mask>
<g mask="url(#mask0)">
<path fill-rule="evenodd" clip-rule="evenodd" d="M203.088 58.4838H364.666V41.4624H203.088V58.4838Z" stroke="#FF525B" stroke-width="1.5"/>
<path fill-rule="evenodd" clip-rule="evenodd" d="M423.583 48.6293C423.583 53.5789 418.987 57.588 413.317 57.588C407.648 57.588 403.051 53.5789 403.051 48.6293C403.051 43.682 407.648 39.6707 413.317 39.6707C418.987 39.6707 423.583 43.682 423.583 48.6293Z" stroke="#FF525B" stroke-width="1.5"/>
<path fill-rule="evenodd" clip-rule="evenodd" d="M470.003 48.6293C470.003 53.5789 465.407 57.588 459.737 57.588C454.068 57.588 449.471 53.5789 449.471 48.6293C449.471 43.682 454.068 39.6707 459.737 39.6707C465.407 39.6707 470.003 43.682 470.003 48.6293Z" stroke="#FF525B" stroke-width="1.5"/>
<path fill-rule="evenodd" clip-rule="evenodd" d="M518.209 48.6293C518.209 53.5789 513.612 57.588 507.943 57.588C502.273 57.588 497.677 53.5789 497.677 48.6293C497.677 43.682 502.273 39.6707 507.943 39.6707C513.612 39.6707 518.209 43.682 518.209 48.6293Z" stroke="#FF525B" stroke-width="1.5"/>
<path fill-rule="evenodd" clip-rule="evenodd" d="M564.629 48.6293C564.629 53.5789 560.032 57.588 554.363 57.588C548.694 57.588 544.097 53.5789 544.097 48.6293C544.097 43.682 548.694 39.6707 554.363 39.6707C560.032 39.6707 564.629 43.682 564.629 48.6293Z" stroke="#FF525B" stroke-width="1.5"/>
<path fill-rule="evenodd" clip-rule="evenodd" d="M603.907 58.4838H765.485V41.4624H603.907V58.4838Z" stroke="#FF525B" stroke-width="1.5"/>
<path fill-rule="evenodd" clip-rule="evenodd" d="M820.832 48.6293C820.832 53.5789 816.236 57.588 810.566 57.588C804.894 57.588 800.3 53.5789 800.3 48.6293C800.3 43.682 804.894 39.6707 810.566 39.6707C816.236 39.6707 820.832 43.682 820.832 48.6293Z" stroke="#FF525B" stroke-width="1.5"/>
<path fill-rule="evenodd" clip-rule="evenodd" d="M868.145 48.6293C868.145 53.5789 863.548 57.588 857.88 57.588C852.208 57.588 847.613 53.5789 847.613 48.6293C847.613 43.682 852.208 39.6707 857.88 39.6707C863.548 39.6707 868.145 43.682 868.145 48.6293Z" stroke="#FF525B" stroke-width="1.5"/>
<path fill-rule="evenodd" clip-rule="evenodd" d="M917.243 48.6293C917.243 53.5789 912.646 57.588 906.977 57.588C901.308 57.588 896.711 53.5789 896.711 48.6293C896.711 43.682 901.308 39.6707 906.977 39.6707C912.646 39.6707 917.243 43.682 917.243 48.6293Z" stroke="#FF525B" stroke-width="1.5"/>
<path fill-rule="evenodd" clip-rule="evenodd" d="M964.556 48.6293C964.556 53.5789 959.957 57.588 954.29 57.588C948.618 57.588 944.024 53.5789 944.024 48.6293C944.024 43.682 948.618 39.6707 954.29 39.6707C959.957 39.6707 964.556 43.682 964.556 48.6293Z" stroke="#FF525B" stroke-width="1.5"/>
<path fill-rule="evenodd" clip-rule="evenodd" d="M1000.26 58.4838H1161.84V41.4624H1000.26V58.4838Z" stroke="#FF525B" stroke-width="1.5"/>
<path fill-rule="evenodd" clip-rule="evenodd" d="M2.23169 11.8989H163.809V-5.12256H2.23169V11.8989Z" stroke="#FF525B" stroke-width="1.5"/>
<path fill-rule="evenodd" clip-rule="evenodd" d="M344.134 3.83609C344.134 -1.11349 348.73 -5.12256 354.4 -5.12256C360.071 -5.12256 364.666 -1.11349 364.666 3.83609C364.666 8.78341 360.071 12.7947 354.4 12.7947C348.73 12.7947 344.134 8.78341 344.134 3.83609Z" stroke="#FF525B" stroke-width="1.5"/>
<path fill-rule="evenodd" clip-rule="evenodd" d="M298.606 3.83609C298.606 -1.11349 303.203 -5.12256 308.872 -5.12256C314.541 -5.12256 319.138 -1.11349 319.138 3.83609C319.138 8.78341 314.541 12.7947 308.872 12.7947C303.203 12.7947 298.606 8.78341 298.606 3.83609Z" stroke="#FF525B" stroke-width="1.5"/>
<path fill-rule="evenodd" clip-rule="evenodd" d="M250.401 3.83609C250.401 -1.11349 254.997 -5.12256 260.667 -5.12256C266.336 -5.12256 270.933 -1.11349 270.933 3.83609C270.933 8.78341 266.336 12.7947 260.667 12.7947C254.997 12.7947 250.401 8.78341 250.401 3.83609Z" stroke="#FF525B" stroke-width="1.5"/>
<path fill-rule="evenodd" clip-rule="evenodd" d="M203.088 3.83609C203.088 -1.11349 207.685 -5.12256 213.354 -5.12256C219.023 -5.12256 223.62 -1.11349 223.62 3.83609C223.62 8.78341 219.023 12.7947 213.354 12.7947C207.685 12.7947 203.088 8.78341 203.088 3.83609Z" stroke="#FF525B" stroke-width="1.5"/>
<path fill-rule="evenodd" clip-rule="evenodd" d="M403.051 11.8989H564.629V-5.12256H403.051V11.8989Z" stroke="#FF525B" stroke-width="1.5"/>
<path fill-rule="evenodd" clip-rule="evenodd" d="M744.953 3.83609C744.953 -1.11349 749.55 -5.12256 755.219 -5.12256C760.891 -5.12256 765.485 -1.11349 765.485 3.83609C765.485 8.78341 760.891 12.7947 755.219 12.7947C749.55 12.7947 744.953 8.78341 744.953 3.83609Z" stroke="#FF525B" stroke-width="1.5"/>
<path fill-rule="evenodd" clip-rule="evenodd" d="M695.855 3.83609C695.855 -1.11349 700.454 -5.12256 706.121 -5.12256C711.793 -5.12256 716.387 -1.11349 716.387 3.83609C716.387 8.78341 711.793 12.7947 706.121 12.7947C700.454 12.7947 695.855 8.78341 695.855 3.83609Z" stroke="#FF525B" stroke-width="1.5"/>
<path fill-rule="evenodd" clip-rule="evenodd" d="M648.542 3.83609C648.542 -1.11349 653.139 -5.12256 658.808 -5.12256C664.477 -5.12256 669.074 -1.11349 669.074 3.83609C669.074 8.78341 664.477 12.7947 658.808 12.7947C653.139 12.7947 648.542 8.78341 648.542 3.83609Z" stroke="#FF525B" stroke-width="1.5"/>
<path fill-rule="evenodd" clip-rule="evenodd" d="M601.229 3.83609C601.229 -1.11349 605.826 -5.12256 611.495 -5.12256C617.167 -5.12256 621.761 -1.11349 621.761 3.83609C621.761 8.78341 617.167 12.7947 611.495 12.7947C605.826 12.7947 601.229 8.78341 601.229 3.83609Z" stroke="#FF525B" stroke-width="1.5"/>
<path fill-rule="evenodd" clip-rule="evenodd" d="M802.978 11.8989H964.556V-5.12256H802.978V11.8989Z" stroke="#FF525B" stroke-width="1.5"/>
<path fill-rule="evenodd" clip-rule="evenodd" d="M1142.2 3.83609C1142.2 -1.11349 1146.8 -5.12256 1152.47 -5.12256C1158.14 -5.12256 1162.73 -1.11349 1162.73 3.83609C1162.73 8.78341 1158.14 12.7947 1152.47 12.7947C1146.8 12.7947 1142.2 8.78341 1142.2 3.83609Z" stroke="#FF525B" stroke-width="1.5"/>
<path fill-rule="evenodd" clip-rule="evenodd" d="M1094.89 3.83609C1094.89 -1.11349 1099.49 -5.12256 1105.16 -5.12256C1110.83 -5.12256 1115.42 -1.11349 1115.42 3.83609C1115.42 8.78341 1110.83 12.7947 1105.16 12.7947C1099.49 12.7947 1094.89 8.78341 1094.89 3.83609Z" stroke="#FF525B" stroke-width="1.5"/>
<path fill-rule="evenodd" clip-rule="evenodd" d="M1047.58 3.83609C1047.58 -1.11349 1052.18 -5.12256 1057.84 -5.12256C1063.51 -5.12256 1068.11 -1.11349 1068.11 3.83609C1068.11 8.78341 1063.51 12.7947 1057.84 12.7947C1052.18 12.7947 1047.58 8.78341 1047.58 3.83609Z" stroke="#FF525B" stroke-width="1.5"/>
<path fill-rule="evenodd" clip-rule="evenodd" d="M1000.26 3.83609C1000.26 -1.11349 1004.86 -5.12256 1010.53 -5.12256C1016.2 -5.12256 1020.8 -1.11349 1020.8 3.83609C1020.8 8.78341 1016.2 12.7947 1010.53 12.7947C1004.86 12.7947 1000.26 8.78341 1000.26 3.83609Z" stroke="#FF525B" stroke-width="1.5"/>
<path fill-rule="evenodd" clip-rule="evenodd" d="M1136.85 118.507H1167.2L1152.02 139.56L1136.85 160.613L1121.67 139.56L1106.49 118.507H1136.85Z" stroke="#FF525B" stroke-width="1.5"/>
<path fill-rule="evenodd" clip-rule="evenodd" d="M1086.86 160.613H1056.5L1071.68 139.56L1086.86 118.507L1102.03 139.56L1117.21 160.613H1086.86Z" stroke="#FF525B" stroke-width="1.5"/>
<path fill-rule="evenodd" clip-rule="evenodd" d="M1035.97 118.507H1066.32L1051.14 139.56L1035.97 160.613L1020.8 139.56L1005.62 118.507H1035.97Z" stroke="#FF525B" stroke-width="1.5"/>
<path fill-rule="evenodd" clip-rule="evenodd" d="M986.872 160.613H956.521L971.698 139.56L986.872 118.507L1002.05 139.56L1017.22 160.613H986.872Z" stroke="#FF525B" stroke-width="1.5"/>
<path fill-rule="evenodd" clip-rule="evenodd" d="M936.884 118.507H967.234L952.058 139.56L936.884 160.613L921.71 139.56L906.531 118.507H936.884Z" stroke="#FF525B" stroke-width="1.5"/>
<path fill-rule="evenodd" clip-rule="evenodd" d="M886.892 160.613H856.54L871.717 139.56L886.892 118.507L902.066 139.56L917.243 160.613H886.892Z" stroke="#FF525B" stroke-width="1.5"/>
<path fill-rule="evenodd" clip-rule="evenodd" d="M836.008 118.507H866.359L851.182 139.558L836.008 160.613L820.833 139.558L805.656 118.507H836.008Z" stroke="#FF525B" stroke-width="1.5"/>
<path fill-rule="evenodd" clip-rule="evenodd" d="M786.017 160.613H755.666L770.843 139.56L786.017 118.507L801.192 139.56L816.369 160.613H786.017Z" stroke="#FF525B" stroke-width="1.5"/>
<path fill-rule="evenodd" clip-rule="evenodd" d="M736.026 118.507H766.378L751.201 139.558L736.026 160.613L720.852 139.558L705.675 118.507H736.026Z" stroke="#FF525B" stroke-width="1.5"/>
<path fill-rule="evenodd" clip-rule="evenodd" d="M686.035 160.613H655.684L670.861 139.56L686.035 118.507L701.21 139.56L716.387 160.613H686.035Z" stroke="#FF525B" stroke-width="1.5"/>
<path fill-rule="evenodd" clip-rule="evenodd" d="M635.151 118.507H665.503L650.325 139.558L635.151 160.613L619.977 139.558L604.8 118.507H635.151Z" stroke="#FF525B" stroke-width="1.5"/>
<path fill-rule="evenodd" clip-rule="evenodd" d="M586.946 160.613H556.595L571.772 139.56L586.946 118.507L602.121 139.56L617.298 160.613H586.946Z" stroke="#FF525B" stroke-width="1.5"/>
<path fill-rule="evenodd" clip-rule="evenodd" d="M536.063 118.507H566.414L551.237 139.558L536.063 160.613L520.888 139.558L505.711 118.507H536.063Z" stroke="#FF525B" stroke-width="1.5"/>
<path fill-rule="evenodd" clip-rule="evenodd" d="M486.072 160.613H455.72L470.897 139.56L486.072 118.507L501.246 139.56L516.423 160.613H486.072Z" stroke="#FF525B" stroke-width="1.5"/>
<path fill-rule="evenodd" clip-rule="evenodd" d="M435.188 118.507H465.54L450.363 139.558L435.188 160.613L420.011 139.558L404.837 118.507H435.188Z" stroke="#FF525B" stroke-width="1.5"/>
<path fill-rule="evenodd" clip-rule="evenodd" d="M383.412 160.613H353.061L368.238 139.56L383.412 118.507L398.589 139.56L413.764 160.613H383.412Z" stroke="#FF525B" stroke-width="1.5"/>
<path fill-rule="evenodd" clip-rule="evenodd" d="M334.314 118.507H364.666L349.489 139.558L334.314 160.613L319.139 139.558L303.962 118.507H334.314Z" stroke="#FF525B" stroke-width="1.5"/>
<path fill-rule="evenodd" clip-rule="evenodd" d="M284.323 160.613H253.971L269.148 139.56L284.323 118.507L299.498 139.56L314.675 160.613H284.323Z" stroke="#FF525B" stroke-width="1.5"/>
<path fill-rule="evenodd" clip-rule="evenodd" d="M234.332 118.507H264.684L249.507 139.558L234.332 160.613L219.155 139.558L203.98 118.507H234.332Z" stroke="#FF525B" stroke-width="1.5"/>
<path fill-rule="evenodd" clip-rule="evenodd" d="M183.449 160.613H153.097L168.274 139.56L183.449 118.507L198.623 139.56L213.8 160.613H183.449Z" stroke="#FF525B" stroke-width="1.5"/>
<path fill-rule="evenodd" clip-rule="evenodd" d="M133.458 118.507H163.809L148.632 139.558L133.458 160.613L118.283 139.558L103.106 118.507H133.458Z" stroke="#FF525B" stroke-width="1.5"/>
<path fill-rule="evenodd" clip-rule="evenodd" d="M83.4668 160.613H53.1152L68.2898 139.56L83.4668 118.507L98.6414 139.56L113.818 160.613H83.4668Z" stroke="#FF525B" stroke-width="1.5"/>
<path fill-rule="evenodd" clip-rule="evenodd" d="M33.4759 118.507H63.8275L48.6529 139.558L33.4759 160.613L18.3013 139.558L3.12427 118.507H33.4759Z" stroke="#FF525B" stroke-width="1.5"/>
<path fill-rule="evenodd" clip-rule="evenodd" d="M1144.88 87.1515C1144.88 82.2042 1149.48 78.1929 1155.15 78.1929C1160.82 78.1929 1165.41 82.2042 1165.41 87.1515C1165.41 92.1011 1160.82 96.1102 1155.15 96.1102C1149.48 96.1102 1144.88 92.1011 1144.88 87.1515Z" stroke="#FF525B" stroke-width="1.5"/>
<path fill-rule="evenodd" clip-rule="evenodd" d="M1097.57 87.1515C1097.57 82.2042 1102.17 78.1929 1107.83 78.1929C1113.51 78.1929 1118.1 82.2042 1118.1 87.1515C1118.1 92.1011 1113.51 96.1102 1107.83 96.1102C1102.17 96.1102 1097.57 92.1011 1097.57 87.1515Z" stroke="#FF525B" stroke-width="1.5"/>
<path fill-rule="evenodd" clip-rule="evenodd" d="M1048.47 87.1515C1048.47 82.2042 1053.07 78.1929 1058.74 78.1929C1064.4 78.1929 1069 82.2042 1069 87.1515C1069 92.1011 1064.4 96.1102 1058.74 96.1102C1053.07 96.1102 1048.47 92.1011 1048.47 87.1515Z" stroke="#FF525B" stroke-width="1.5"/>
<path fill-rule="evenodd" clip-rule="evenodd" d="M1003.83 87.1515C1003.83 82.2042 1008.43 78.1929 1014.1 78.1929C1019.77 78.1929 1024.37 82.2042 1024.37 87.1515C1024.37 92.1011 1019.77 96.1102 1014.1 96.1102C1008.43 96.1102 1003.83 92.1011 1003.83 87.1515Z" stroke="#FF525B" stroke-width="1.5"/>
<path fill-rule="evenodd" clip-rule="evenodd" d="M803.871 97.0061H965.449V79.9846H803.871V97.0061Z" stroke="#FF525B" stroke-width="1.5"/>
<path fill-rule="evenodd" clip-rule="evenodd" d="M745.846 87.1515C745.846 82.2042 750.445 78.1929 756.112 78.1929C761.784 78.1929 766.378 82.2042 766.378 87.1515C766.378 92.1011 761.784 96.1102 756.112 96.1102C750.445 96.1102 745.846 92.1011 745.846 87.1515Z" stroke="#FF525B" stroke-width="1.5"/>
<path fill-rule="evenodd" clip-rule="evenodd" d="M698.533 87.1515C698.533 82.2042 703.13 78.1929 708.799 78.1929C714.468 78.1929 719.065 82.2042 719.065 87.1515C719.065 92.1011 714.468 96.1102 708.799 96.1102C703.13 96.1102 698.533 92.1011 698.533 87.1515Z" stroke="#FF525B" stroke-width="1.5"/>
<path fill-rule="evenodd" clip-rule="evenodd" d="M651.22 87.1515C651.22 82.2042 655.817 78.1929 661.486 78.1929C667.158 78.1929 671.752 82.2042 671.752 87.1515C671.752 92.1011 667.158 96.1102 661.486 96.1102C655.817 96.1102 651.22 92.1011 651.22 87.1515Z" stroke="#FF525B" stroke-width="1.5"/>
<path fill-rule="evenodd" clip-rule="evenodd" d="M603.907 87.1515C603.907 82.2042 608.505 78.1929 614.172 78.1929C619.845 78.1929 624.439 82.2042 624.439 87.1515C624.439 92.1011 619.845 96.1102 614.172 96.1102C608.505 96.1102 603.907 92.1011 603.907 87.1515Z" stroke="#FF525B" stroke-width="1.5"/>
<path fill-rule="evenodd" clip-rule="evenodd" d="M405.729 97.0061H567.307V79.9846H405.729V97.0061Z" stroke="#FF525B" stroke-width="1.5"/>
<path fill-rule="evenodd" clip-rule="evenodd" d="M347.704 87.1515C347.704 82.2042 352.301 78.1929 357.97 78.1929C363.64 78.1929 368.236 82.2042 368.236 87.1515C368.236 92.1011 363.64 96.1102 357.97 96.1102C352.301 96.1102 347.704 92.1011 347.704 87.1515Z" stroke="#FF525B" stroke-width="1.5"/>
<path fill-rule="evenodd" clip-rule="evenodd" d="M298.606 87.1515C298.606 82.2042 303.203 78.1929 308.872 78.1929C314.541 78.1929 319.138 82.2042 319.138 87.1515C319.138 92.1011 314.541 96.1102 308.872 96.1102C303.203 96.1102 298.606 92.1011 298.606 87.1515Z" stroke="#FF525B" stroke-width="1.5"/>
<path fill-rule="evenodd" clip-rule="evenodd" d="M252.186 87.1515C252.186 82.2042 256.783 78.1929 262.452 78.1929C268.121 78.1929 272.718 82.2042 272.718 87.1515C272.718 92.1011 268.121 96.1102 262.452 96.1102C256.783 96.1102 252.186 92.1011 252.186 87.1515Z" stroke="#FF525B" stroke-width="1.5"/>
<path fill-rule="evenodd" clip-rule="evenodd" d="M206.659 87.1515C206.659 82.2042 211.255 78.1929 216.925 78.1929C222.594 78.1929 227.191 82.2042 227.191 87.1515C227.191 92.1011 222.594 96.1102 216.925 96.1102C211.255 96.1102 206.659 92.1011 206.659 87.1515Z" stroke="#FF525B" stroke-width="1.5"/>
<path fill-rule="evenodd" clip-rule="evenodd" d="M5.80249 97.0061H167.38V79.9846H5.80249V97.0061Z" stroke="#FF525B" stroke-width="1.5"/>
<path fill-rule="evenodd" clip-rule="evenodd" d="M1003.83 202.718H1165.41V185.697H1003.83V202.718Z" stroke="#FF525B" stroke-width="1.5"/>
<path fill-rule="evenodd" clip-rule="evenodd" d="M824.403 191.968C824.403 196.915 819.806 200.927 814.137 200.927C808.468 200.927 803.871 196.915 803.871 191.968C803.871 187.021 808.468 183.009 814.137 183.009C819.806 183.009 824.403 187.021 824.403 191.968Z" stroke="#FF525B" stroke-width="1.5"/>
<path fill-rule="evenodd" clip-rule="evenodd" d="M871.716 191.968C871.716 196.915 867.119 200.927 861.45 200.927C855.778 200.927 851.184 196.915 851.184 191.968C851.184 187.021 855.778 183.009 861.45 183.009C867.119 183.009 871.716 187.021 871.716 191.968Z" stroke="#FF525B" stroke-width="1.5"/>
<path fill-rule="evenodd" clip-rule="evenodd" d="M918.136 191.968C918.136 196.915 913.536 200.927 907.87 200.927C902.198 200.927 897.604 196.915 897.604 191.968C897.604 187.021 902.198 183.009 907.87 183.009C913.536 183.009 918.136 187.021 918.136 191.968Z" stroke="#FF525B" stroke-width="1.5"/>
<path fill-rule="evenodd" clip-rule="evenodd" d="M965.448 191.968C965.448 196.915 960.852 200.927 955.182 200.927C949.513 200.927 944.917 196.915 944.917 191.968C944.917 187.021 949.513 183.009 955.182 183.009C960.852 183.009 965.448 187.021 965.448 191.968Z" stroke="#FF525B" stroke-width="1.5"/>
<path fill-rule="evenodd" clip-rule="evenodd" d="M604.8 202.718H766.378V185.697H604.8V202.718Z" stroke="#FF525B" stroke-width="1.5"/>
<path fill-rule="evenodd" clip-rule="evenodd" d="M424.476 191.968C424.476 196.915 419.879 200.927 414.21 200.927C408.541 200.927 403.944 196.915 403.944 191.968C403.944 187.021 408.541 183.009 414.21 183.009C419.879 183.009 424.476 187.021 424.476 191.968Z" stroke="#FF525B" stroke-width="1.5"/>
<path fill-rule="evenodd" clip-rule="evenodd" d="M470.896 191.968C470.896 196.915 466.299 200.927 460.63 200.927C454.961 200.927 450.364 196.915 450.364 191.968C450.364 187.021 454.961 183.009 460.63 183.009C466.299 183.009 470.896 187.021 470.896 191.968Z" stroke="#FF525B" stroke-width="1.5"/>
<path fill-rule="evenodd" clip-rule="evenodd" d="M518.209 191.968C518.209 196.915 513.612 200.927 507.943 200.927C502.271 200.927 497.677 196.915 497.677 191.968C497.677 187.021 502.271 183.009 507.943 183.009C513.612 183.009 518.209 187.021 518.209 191.968Z" stroke="#FF525B" stroke-width="1.5"/>
<path fill-rule="evenodd" clip-rule="evenodd" d="M567.307 191.968C567.307 196.915 562.71 200.927 557.041 200.927C551.372 200.927 546.775 196.915 546.775 191.968C546.775 187.021 551.372 183.009 557.041 183.009C562.71 183.009 567.307 187.021 567.307 191.968Z" stroke="#FF525B" stroke-width="1.5"/>
<path fill-rule="evenodd" clip-rule="evenodd" d="M206.659 202.718H368.236V185.697H206.659V202.718Z" stroke="#FF525B" stroke-width="1.5"/>
<path fill-rule="evenodd" clip-rule="evenodd" d="M27.227 191.968C27.227 196.915 22.6303 200.927 16.9611 200.927C11.2918 200.927 6.69507 196.915 6.69507 191.968C6.69507 187.021 11.2918 183.009 16.9611 183.009C22.6303 183.009 27.227 187.021 27.227 191.968Z" stroke="#FF525B" stroke-width="1.5"/>
<path fill-rule="evenodd" clip-rule="evenodd" d="M73.6472 191.968C73.6472 196.915 69.0505 200.927 63.3812 200.927C57.7119 200.927 53.1152 196.915 53.1152 191.968C53.1152 187.021 57.7119 183.009 63.3812 183.009C69.0505 183.009 73.6472 187.021 73.6472 191.968Z" stroke="#FF525B" stroke-width="1.5"/>
<path fill-rule="evenodd" clip-rule="evenodd" d="M122.745 191.968C122.745 196.915 118.149 200.927 112.479 200.927C106.81 200.927 102.213 196.915 102.213 191.968C102.213 187.021 106.81 183.009 112.479 183.009C118.149 183.009 122.745 187.021 122.745 191.968Z" stroke="#FF525B" stroke-width="1.5"/>
<path fill-rule="evenodd" clip-rule="evenodd" d="M167.38 191.968C167.38 196.915 162.783 200.927 157.114 200.927C151.445 200.927 146.848 196.915 146.848 191.968C146.848 187.021 151.445 183.009 157.114 183.009C162.783 183.009 167.38 187.021 167.38 191.968Z" stroke="#FF525B" stroke-width="1.5"/>
<path fill-rule="evenodd" clip-rule="evenodd" d="M33.4759 265.429H3.12427L18.3013 244.377L33.4759 223.323L48.6529 244.377L63.8275 265.429H33.4759Z" stroke="#FF525B" stroke-width="1.5"/>
<path fill-rule="evenodd" clip-rule="evenodd" d="M83.4668 223.323H113.818L98.6414 244.375L83.4668 265.429L68.2922 244.375L53.1152 223.323H83.4668Z" stroke="#FF525B" stroke-width="1.5"/>
<path fill-rule="evenodd" clip-rule="evenodd" d="M133.458 265.429H103.106L118.283 244.377L133.458 223.323L148.632 244.377L163.809 265.429H133.458Z" stroke="#FF525B" stroke-width="1.5"/>
<path fill-rule="evenodd" clip-rule="evenodd" d="M183.449 223.323H213.8L198.623 244.375L183.449 265.429L168.274 244.375L153.097 223.323H183.449Z" stroke="#FF525B" stroke-width="1.5"/>
<path fill-rule="evenodd" clip-rule="evenodd" d="M234.332 265.429H203.98L219.155 244.377L234.332 223.323L249.507 244.377L264.684 265.429H234.332Z" stroke="#FF525B" stroke-width="1.5"/>
<path fill-rule="evenodd" clip-rule="evenodd" d="M284.323 223.323H314.675L299.5 244.375L284.323 265.429L269.148 244.375L253.971 223.323H284.323Z" stroke="#FF525B" stroke-width="1.5"/>
<path fill-rule="evenodd" clip-rule="evenodd" d="M334.314 265.429H303.962L319.139 244.377L334.314 223.323L349.489 244.377L364.666 265.429H334.314Z" stroke="#FF525B" stroke-width="1.5"/>
<path fill-rule="evenodd" clip-rule="evenodd" d="M383.412 223.323H413.764L398.587 244.375L383.412 265.429L368.238 244.375L353.061 223.323H383.412Z" stroke="#FF525B" stroke-width="1.5"/>
<path fill-rule="evenodd" clip-rule="evenodd" d="M435.188 265.429H404.837L420.011 244.377L435.188 223.323L450.363 244.377L465.54 265.429H435.188Z" stroke="#FF525B" stroke-width="1.5"/>
<path fill-rule="evenodd" clip-rule="evenodd" d="M486.072 223.323H516.423L501.246 244.375L486.072 265.429L470.895 244.375L455.72 223.323H486.072Z" stroke="#FF525B" stroke-width="1.5"/>
<path fill-rule="evenodd" clip-rule="evenodd" d="M536.063 265.429H505.711L520.888 244.377L536.063 223.323L551.237 244.377L566.414 265.429H536.063Z" stroke="#FF525B" stroke-width="1.5"/>
<path fill-rule="evenodd" clip-rule="evenodd" d="M586.946 223.323H617.298L602.121 244.375L586.946 265.429L571.769 244.375L556.595 223.323H586.946Z" stroke="#FF525B" stroke-width="1.5"/>
<path fill-rule="evenodd" clip-rule="evenodd" d="M635.151 265.429H604.8L619.977 244.377L635.151 223.323L650.325 244.377L665.503 265.429H635.151Z" stroke="#FF525B" stroke-width="1.5"/>
<path fill-rule="evenodd" clip-rule="evenodd" d="M686.034 223.323H716.387L701.21 244.375L686.034 265.429L670.86 244.375L655.684 223.323H686.034Z" stroke="#FF525B" stroke-width="1.5"/>
<path fill-rule="evenodd" clip-rule="evenodd" d="M736.026 265.429H705.675L720.852 244.377L736.026 223.323L751.201 244.377L766.378 265.429H736.026Z" stroke="#FF525B" stroke-width="1.5"/>
<path fill-rule="evenodd" clip-rule="evenodd" d="M786.017 223.323H816.369L801.192 244.375L786.017 265.429L770.843 244.375L755.666 223.323H786.017Z" stroke="#FF525B" stroke-width="1.5"/>
<path fill-rule="evenodd" clip-rule="evenodd" d="M836.008 265.429H805.656L820.833 244.377L836.008 223.323L851.182 244.377L866.359 265.429H836.008Z" stroke="#FF525B" stroke-width="1.5"/>
<path fill-rule="evenodd" clip-rule="evenodd" d="M886.892 223.323H917.243L902.066 244.375L886.892 265.429L871.717 244.375L856.54 223.323H886.892Z" stroke="#FF525B" stroke-width="1.5"/>
<path fill-rule="evenodd" clip-rule="evenodd" d="M936.884 265.429H906.531L921.71 244.377L936.884 223.323L952.058 244.377L967.234 265.429H936.884Z" stroke="#FF525B" stroke-width="1.5"/>
<path fill-rule="evenodd" clip-rule="evenodd" d="M986.873 223.323H1017.22L1002.05 244.375L986.873 265.429L971.698 244.375L956.521 223.323H986.873Z" stroke="#FF525B" stroke-width="1.5"/>
<path fill-rule="evenodd" clip-rule="evenodd" d="M1035.97 265.429H1005.62L1020.8 244.377L1035.97 223.323L1051.15 244.377L1066.32 265.429H1035.97Z" stroke="#FF525B" stroke-width="1.5"/>
<path fill-rule="evenodd" clip-rule="evenodd" d="M1086.86 223.323H1117.21L1102.03 244.375L1086.86 265.429L1071.68 244.375L1056.5 223.323H1086.86Z" stroke="#FF525B" stroke-width="1.5"/>
<path fill-rule="evenodd" clip-rule="evenodd" d="M1136.85 265.429H1106.49L1121.67 244.377L1136.85 223.323L1152.02 244.377L1167.2 265.429H1136.85Z" stroke="#FF525B" stroke-width="1.5"/>
<path fill-rule="evenodd" clip-rule="evenodd" d="M25.4416 344.265C25.4416 349.212 20.8449 353.223 15.1756 353.223C9.50638 353.223 4.90967 349.212 4.90967 344.265C4.90967 339.317 9.50638 335.306 15.1756 335.306C20.8449 335.306 25.4416 339.317 25.4416 344.265Z" stroke="#FF525B" stroke-width="1.5"/>
<path fill-rule="evenodd" clip-rule="evenodd" d="M70.0764 344.265C70.0764 349.212 65.4797 353.223 59.8104 353.223C54.1411 353.223 49.5444 349.212 49.5444 344.265C49.5444 339.317 54.1411 335.306 59.8104 335.306C65.4797 335.306 70.0764 339.317 70.0764 344.265Z" stroke="#FF525B" stroke-width="1.5"/>
<path fill-rule="evenodd" clip-rule="evenodd" d="M119.175 344.265C119.175 349.212 114.578 353.223 108.909 353.223C103.239 353.223 98.6426 349.212 98.6426 344.265C98.6426 339.317 103.239 335.306 108.909 335.306C114.578 335.306 119.175 339.317 119.175 344.265Z" stroke="#FF525B" stroke-width="1.5"/>
<path fill-rule="evenodd" clip-rule="evenodd" d="M163.809 344.265C163.809 349.212 159.213 353.223 153.543 353.223C147.871 353.223 143.277 349.212 143.277 344.265C143.277 339.317 147.871 335.306 153.543 335.306C159.213 335.306 163.809 339.317 163.809 344.265Z" stroke="#FF525B" stroke-width="1.5"/>
<path fill-rule="evenodd" clip-rule="evenodd" d="M203.088 353.224H364.666V336.202H203.088V353.224Z" stroke="#FF525B" stroke-width="1.5"/>
<path fill-rule="evenodd" clip-rule="evenodd" d="M423.583 344.265C423.583 349.212 418.987 353.223 413.317 353.223C407.648 353.223 403.051 349.212 403.051 344.265C403.051 339.317 407.648 335.306 413.317 335.306C418.987 335.306 423.583 339.317 423.583 344.265Z" stroke="#FF525B" stroke-width="1.5"/>
<path fill-rule="evenodd" clip-rule="evenodd" d="M470.003 344.265C470.003 349.212 465.407 353.223 459.737 353.223C454.068 353.223 449.471 349.212 449.471 344.265C449.471 339.317 454.068 335.306 459.737 335.306C465.407 335.306 470.003 339.317 470.003 344.265Z" stroke="#FF525B" stroke-width="1.5"/>
<path fill-rule="evenodd" clip-rule="evenodd" d="M518.209 344.265C518.209 349.212 513.612 353.223 507.943 353.223C502.273 353.223 497.677 349.212 497.677 344.265C497.677 339.317 502.273 335.306 507.943 335.306C513.612 335.306 518.209 339.317 518.209 344.265Z" stroke="#FF525B" stroke-width="1.5"/>
<path fill-rule="evenodd" clip-rule="evenodd" d="M564.629 344.265C564.629 349.212 560.032 353.223 554.363 353.223C548.694 353.223 544.097 349.212 544.097 344.265C544.097 339.317 548.694 335.306 554.363 335.306C560.032 335.306 564.629 339.317 564.629 344.265Z" stroke="#FF525B" stroke-width="1.5"/>
<path fill-rule="evenodd" clip-rule="evenodd" d="M603.907 353.224H765.485V336.202H603.907V353.224Z" stroke="#FF525B" stroke-width="1.5"/>
<path fill-rule="evenodd" clip-rule="evenodd" d="M820.832 344.265C820.832 349.212 816.236 353.223 810.566 353.223C804.894 353.223 800.3 349.212 800.3 344.265C800.3 339.317 804.894 335.306 810.566 335.306C816.236 335.306 820.832 339.317 820.832 344.265Z" stroke="#FF525B" stroke-width="1.5"/>
<path fill-rule="evenodd" clip-rule="evenodd" d="M868.145 344.265C868.145 349.212 863.548 353.223 857.88 353.223C852.208 353.223 847.613 349.212 847.613 344.265C847.613 339.317 852.208 335.306 857.88 335.306C863.548 335.306 868.145 339.317 868.145 344.265Z" stroke="#FF525B" stroke-width="1.5"/>
<path fill-rule="evenodd" clip-rule="evenodd" d="M917.243 344.265C917.243 349.212 912.646 353.223 906.977 353.223C901.308 353.223 896.711 349.212 896.711 344.265C896.711 339.317 901.308 335.306 906.977 335.306C912.646 335.306 917.243 339.317 917.243 344.265Z" stroke="#FF525B" stroke-width="1.5"/>
<path fill-rule="evenodd" clip-rule="evenodd" d="M964.556 344.265C964.556 349.212 959.957 353.223 954.29 353.223C948.618 353.223 944.024 349.212 944.024 344.265C944.024 339.317 948.618 335.306 954.29 335.306C959.957 335.306 964.556 339.317 964.556 344.265Z" stroke="#FF525B" stroke-width="1.5"/>
<path fill-rule="evenodd" clip-rule="evenodd" d="M1000.26 353.224H1161.84V336.202H1000.26V353.224Z" stroke="#FF525B" stroke-width="1.5"/>
<path fill-rule="evenodd" clip-rule="evenodd" d="M2.23169 309.326H163.809V292.305H2.23169V309.326Z" stroke="#FF525B" stroke-width="1.5"/>
<path fill-rule="evenodd" clip-rule="evenodd" d="M344.134 301.263C344.134 296.316 348.73 292.305 354.4 292.305C360.071 292.305 364.666 296.316 364.666 301.263C364.666 306.213 360.071 310.222 354.4 310.222C348.73 310.222 344.134 306.213 344.134 301.263Z" stroke="#FF525B" stroke-width="1.5"/>
<path fill-rule="evenodd" clip-rule="evenodd" d="M298.606 301.263C298.606 296.316 303.203 292.305 308.872 292.305C314.541 292.305 319.138 296.316 319.138 301.263C319.138 306.213 314.541 310.222 308.872 310.222C303.203 310.222 298.606 306.213 298.606 301.263Z" stroke="#FF525B" stroke-width="1.5"/>
<path fill-rule="evenodd" clip-rule="evenodd" d="M250.401 301.263C250.401 296.316 254.997 292.305 260.667 292.305C266.336 292.305 270.933 296.316 270.933 301.263C270.933 306.213 266.336 310.222 260.667 310.222C254.997 310.222 250.401 306.213 250.401 301.263Z" stroke="#FF525B" stroke-width="1.5"/>
<path fill-rule="evenodd" clip-rule="evenodd" d="M203.088 301.263C203.088 296.316 207.685 292.305 213.354 292.305C219.023 292.305 223.62 296.316 223.62 301.263C223.62 306.213 219.023 310.222 213.354 310.222C207.685 310.222 203.088 306.213 203.088 301.263Z" stroke="#FF525B" stroke-width="1.5"/>
<path fill-rule="evenodd" clip-rule="evenodd" d="M403.051 309.326H564.629V292.305H403.051V309.326Z" stroke="#FF525B" stroke-width="1.5"/>
<path fill-rule="evenodd" clip-rule="evenodd" d="M744.953 301.263C744.953 296.316 749.55 292.305 755.219 292.305C760.891 292.305 765.485 296.316 765.485 301.263C765.485 306.213 760.891 310.222 755.219 310.222C749.55 310.222 744.953 306.213 744.953 301.263Z" stroke="#FF525B" stroke-width="1.5"/>
<path fill-rule="evenodd" clip-rule="evenodd" d="M695.855 301.263C695.855 296.316 700.454 292.305 706.121 292.305C711.793 292.305 716.387 296.316 716.387 301.263C716.387 306.213 711.793 310.222 706.121 310.222C700.454 310.222 695.855 306.213 695.855 301.263Z" stroke="#FF525B" stroke-width="1.5"/>
<path fill-rule="evenodd" clip-rule="evenodd" d="M648.542 301.263C648.542 296.316 653.139 292.305 658.808 292.305C664.477 292.305 669.074 296.316 669.074 301.263C669.074 306.213 664.477 310.222 658.808 310.222C653.139 310.222 648.542 306.213 648.542 301.263Z" stroke="#FF525B" stroke-width="1.5"/>
<path fill-rule="evenodd" clip-rule="evenodd" d="M601.229 301.263C601.229 296.316 605.826 292.305 611.495 292.305C617.167 292.305 621.761 296.316 621.761 301.263C621.761 306.213 617.167 310.222 611.495 310.222C605.826 310.222 601.229 306.213 601.229 301.263Z" stroke="#FF525B" stroke-width="1.5"/>
<path fill-rule="evenodd" clip-rule="evenodd" d="M802.978 309.326H964.556V292.305H802.978V309.326Z" stroke="#FF525B" stroke-width="1.5"/>
<path fill-rule="evenodd" clip-rule="evenodd" d="M1142.2 301.263C1142.2 296.316 1146.8 292.305 1152.47 292.305C1158.14 292.305 1162.73 296.316 1162.73 301.263C1162.73 306.213 1158.14 310.222 1152.47 310.222C1146.8 310.222 1142.2 306.213 1142.2 301.263Z" stroke="#FF525B" stroke-width="1.5"/>
<path fill-rule="evenodd" clip-rule="evenodd" d="M1094.89 301.263C1094.89 296.316 1099.49 292.305 1105.16 292.305C1110.83 292.305 1115.42 296.316 1115.42 301.263C1115.42 306.213 1110.83 310.222 1105.16 310.222C1099.49 310.222 1094.89 306.213 1094.89 301.263Z" stroke="#FF525B" stroke-width="1.5"/>
<path fill-rule="evenodd" clip-rule="evenodd" d="M1047.58 301.263C1047.58 296.316 1052.18 292.305 1057.84 292.305C1063.51 292.305 1068.11 296.316 1068.11 301.263C1068.11 306.213 1063.51 310.222 1057.84 310.222C1052.18 310.222 1047.58 306.213 1047.58 301.263Z" stroke="#FF525B" stroke-width="1.5"/>
<path fill-rule="evenodd" clip-rule="evenodd" d="M1000.26 301.263C1000.26 296.316 1004.86 292.305 1010.53 292.305C1016.2 292.305 1020.8 296.316 1020.8 301.263C1020.8 306.213 1016.2 310.222 1010.53 310.222C1004.86 310.222 1000.26 306.213 1000.26 301.263Z" stroke="#FF525B" stroke-width="1.5"/>
<path fill-rule="evenodd" clip-rule="evenodd" d="M1136.85 414.142H1167.2L1152.02 435.195L1136.85 456.248L1121.67 435.195L1106.49 414.142H1136.85Z" stroke="#FF525B" stroke-width="1.5"/>
<path fill-rule="evenodd" clip-rule="evenodd" d="M1086.86 456.248H1056.5L1071.68 435.195L1086.86 414.142L1102.03 435.195L1117.21 456.248H1086.86Z" stroke="#FF525B" stroke-width="1.5"/>
<path fill-rule="evenodd" clip-rule="evenodd" d="M1035.97 414.142H1066.32L1051.14 435.195L1035.97 456.248L1020.8 435.195L1005.62 414.142H1035.97Z" stroke="#FF525B" stroke-width="1.5"/>
<path fill-rule="evenodd" clip-rule="evenodd" d="M986.872 456.248H956.521L971.698 435.195L986.872 414.142L1002.05 435.195L1017.22 456.248H986.872Z" stroke="#FF525B" stroke-width="1.5"/>
<path fill-rule="evenodd" clip-rule="evenodd" d="M936.884 414.142H967.234L952.058 435.195L936.884 456.248L921.71 435.195L906.531 414.142H936.884Z" stroke="#FF525B" stroke-width="1.5"/>
<path fill-rule="evenodd" clip-rule="evenodd" d="M886.892 456.248H856.54L871.717 435.195L886.892 414.142L902.066 435.195L917.243 456.248H886.892Z" stroke="#FF525B" stroke-width="1.5"/>
<path fill-rule="evenodd" clip-rule="evenodd" d="M836.008 414.142H866.359L851.182 435.195L836.008 456.248L820.833 435.195L805.656 414.142H836.008Z" stroke="#FF525B" stroke-width="1.5"/>
<path fill-rule="evenodd" clip-rule="evenodd" d="M786.017 456.248H755.666L770.843 435.195L786.017 414.142L801.192 435.195L816.369 456.248H786.017Z" stroke="#FF525B" stroke-width="1.5"/>
<path fill-rule="evenodd" clip-rule="evenodd" d="M736.026 414.142H766.378L751.201 435.195L736.026 456.248L720.852 435.195L705.675 414.142H736.026Z" stroke="#FF525B" stroke-width="1.5"/>
<path fill-rule="evenodd" clip-rule="evenodd" d="M686.035 456.248H655.684L670.861 435.195L686.035 414.142L701.21 435.195L716.387 456.248H686.035Z" stroke="#FF525B" stroke-width="1.5"/>
<path fill-rule="evenodd" clip-rule="evenodd" d="M635.151 414.142H665.503L650.325 435.195L635.151 456.248L619.977 435.195L604.8 414.142H635.151Z" stroke="#FF525B" stroke-width="1.5"/>
<path fill-rule="evenodd" clip-rule="evenodd" d="M586.946 456.248H556.595L571.772 435.195L586.946 414.142L602.121 435.195L617.298 456.248H586.946Z" stroke="#FF525B" stroke-width="1.5"/>
<path fill-rule="evenodd" clip-rule="evenodd" d="M536.063 414.142H566.414L551.237 435.195L536.063 456.248L520.888 435.195L505.711 414.142H536.063Z" stroke="#FF525B" stroke-width="1.5"/>
<path fill-rule="evenodd" clip-rule="evenodd" d="M486.072 456.248H455.72L470.897 435.195L486.072 414.142L501.246 435.195L516.423 456.248H486.072Z" stroke="#FF525B" stroke-width="1.5"/>
<path fill-rule="evenodd" clip-rule="evenodd" d="M435.188 414.142H465.54L450.363 435.195L435.188 456.248L420.011 435.195L404.837 414.142H435.188Z" stroke="#FF525B" stroke-width="1.5"/>
<path fill-rule="evenodd" clip-rule="evenodd" d="M383.412 456.248H353.061L368.238 435.195L383.412 414.142L398.589 435.195L413.764 456.248H383.412Z" stroke="#FF525B" stroke-width="1.5"/>
<path fill-rule="evenodd" clip-rule="evenodd" d="M334.314 414.142H364.666L349.489 435.195L334.314 456.248L319.139 435.195L303.962 414.142H334.314Z" stroke="#FF525B" stroke-width="1.5"/>
<path fill-rule="evenodd" clip-rule="evenodd" d="M284.323 456.248H253.971L269.148 435.195L284.323 414.142L299.498 435.195L314.675 456.248H284.323Z" stroke="#FF525B" stroke-width="1.5"/>
<path fill-rule="evenodd" clip-rule="evenodd" d="M234.332 414.142H264.684L249.507 435.195L234.332 456.248L219.155 435.195L203.98 414.142H234.332Z" stroke="#FF525B" stroke-width="1.5"/>
<path fill-rule="evenodd" clip-rule="evenodd" d="M183.449 456.248H153.097L168.274 435.195L183.449 414.142L198.623 435.195L213.8 456.248H183.449Z" stroke="#FF525B" stroke-width="1.5"/>
<path fill-rule="evenodd" clip-rule="evenodd" d="M133.458 414.142H163.809L148.632 435.195L133.458 456.248L118.283 435.195L103.106 414.142H133.458Z" stroke="#FF525B" stroke-width="1.5"/>
<path fill-rule="evenodd" clip-rule="evenodd" d="M83.4668 456.248H53.1152L68.2898 435.195L83.4668 414.142L98.6414 435.195L113.818 456.248H83.4668Z" stroke="#FF525B" stroke-width="1.5"/>
<path fill-rule="evenodd" clip-rule="evenodd" d="M33.4759 414.142H63.8275L48.6529 435.195L33.4759 456.248L18.3013 435.195L3.12427 414.142H33.4759Z" stroke="#FF525B" stroke-width="1.5"/>
<path fill-rule="evenodd" clip-rule="evenodd" d="M1144.88 383.683C1144.88 378.736 1149.48 374.724 1155.15 374.724C1160.82 374.724 1165.41 378.736 1165.41 383.683C1165.41 388.63 1160.82 392.642 1155.15 392.642C1149.48 392.642 1144.88 388.63 1144.88 383.683Z" stroke="#FF525B" stroke-width="1.5"/>
<path fill-rule="evenodd" clip-rule="evenodd" d="M1097.57 383.683C1097.57 378.736 1102.17 374.724 1107.83 374.724C1113.51 374.724 1118.1 378.736 1118.1 383.683C1118.1 388.63 1113.51 392.642 1107.83 392.642C1102.17 392.642 1097.57 388.63 1097.57 383.683Z" stroke="#FF525B" stroke-width="1.5"/>
<path fill-rule="evenodd" clip-rule="evenodd" d="M1048.47 383.683C1048.47 378.736 1053.07 374.724 1058.74 374.724C1064.4 374.724 1069 378.736 1069 383.683C1069 388.63 1064.4 392.642 1058.74 392.642C1053.07 392.642 1048.47 388.63 1048.47 383.683Z" stroke="#FF525B" stroke-width="1.5"/>
<path fill-rule="evenodd" clip-rule="evenodd" d="M1003.83 383.683C1003.83 378.736 1008.43 374.724 1014.1 374.724C1019.77 374.724 1024.37 378.736 1024.37 383.683C1024.37 388.63 1019.77 392.642 1014.1 392.642C1008.43 392.642 1003.83 388.63 1003.83 383.683Z" stroke="#FF525B" stroke-width="1.5"/>
<path fill-rule="evenodd" clip-rule="evenodd" d="M803.871 391.746H965.449V374.724H803.871V391.746Z" stroke="#FF525B" stroke-width="1.5"/>
<path fill-rule="evenodd" clip-rule="evenodd" d="M745.846 383.683C745.846 378.736 750.445 374.724 756.112 374.724C761.784 374.724 766.378 378.736 766.378 383.683C766.378 388.63 761.784 392.642 756.112 392.642C750.445 392.642 745.846 388.63 745.846 383.683Z" stroke="#FF525B" stroke-width="1.5"/>
<path fill-rule="evenodd" clip-rule="evenodd" d="M698.533 383.683C698.533 378.736 703.13 374.724 708.799 374.724C714.468 374.724 719.065 378.736 719.065 383.683C719.065 388.63 714.468 392.642 708.799 392.642C703.13 392.642 698.533 388.63 698.533 383.683Z" stroke="#FF525B" stroke-width="1.5"/>
<path fill-rule="evenodd" clip-rule="evenodd" d="M651.22 383.683C651.22 378.736 655.817 374.724 661.486 374.724C667.158 374.724 671.752 378.736 671.752 383.683C671.752 388.63 667.158 392.642 661.486 392.642C655.817 392.642 651.22 388.63 651.22 383.683Z" stroke="#FF525B" stroke-width="1.5"/>
<path fill-rule="evenodd" clip-rule="evenodd" d="M603.907 383.683C603.907 378.736 608.505 374.724 614.172 374.724C619.845 374.724 624.439 378.736 624.439 383.683C624.439 388.63 619.845 392.642 614.172 392.642C608.505 392.642 603.907 388.63 603.907 383.683Z" stroke="#FF525B" stroke-width="1.5"/>
<path fill-rule="evenodd" clip-rule="evenodd" d="M405.729 391.746H567.307V374.724H405.729V391.746Z" stroke="#FF525B" stroke-width="1.5"/>
<path fill-rule="evenodd" clip-rule="evenodd" d="M347.704 383.683C347.704 378.736 352.301 374.724 357.97 374.724C363.64 374.724 368.236 378.736 368.236 383.683C368.236 388.63 363.64 392.642 357.97 392.642C352.301 392.642 347.704 388.63 347.704 383.683Z" stroke="#FF525B" stroke-width="1.5"/>
<path fill-rule="evenodd" clip-rule="evenodd" d="M298.606 383.683C298.606 378.736 303.203 374.724 308.872 374.724C314.541 374.724 319.138 378.736 319.138 383.683C319.138 388.63 314.541 392.642 308.872 392.642C303.203 392.642 298.606 388.63 298.606 383.683Z" stroke="#FF525B" stroke-width="1.5"/>
<path fill-rule="evenodd" clip-rule="evenodd" d="M252.186 383.683C252.186 378.736 256.783 374.724 262.452 374.724C268.121 374.724 272.718 378.736 272.718 383.683C272.718 388.63 268.121 392.642 262.452 392.642C256.783 392.642 252.186 388.63 252.186 383.683Z" stroke="#FF525B" stroke-width="1.5"/>
<path fill-rule="evenodd" clip-rule="evenodd" d="M206.659 383.683C206.659 378.736 211.255 374.724 216.925 374.724C222.594 374.724 227.191 378.736 227.191 383.683C227.191 388.63 222.594 392.642 216.925 392.642C211.255 392.642 206.659 388.63 206.659 383.683Z" stroke="#FF525B" stroke-width="1.5"/>
<path fill-rule="evenodd" clip-rule="evenodd" d="M5.80249 391.746H167.38V374.724H5.80249V391.746Z" stroke="#FF525B" stroke-width="1.5"/>
<path fill-rule="evenodd" clip-rule="evenodd" d="M1003.83 496.562H1165.41V479.541H1003.83V496.562Z" stroke="#FF525B" stroke-width="1.5"/>
<path fill-rule="evenodd" clip-rule="evenodd" d="M824.403 487.603C824.403 492.551 819.806 496.562 814.137 496.562C808.468 496.562 803.871 492.551 803.871 487.603C803.871 482.656 808.468 478.645 814.137 478.645C819.806 478.645 824.403 482.656 824.403 487.603Z" stroke="#FF525B" stroke-width="1.5"/>
<path fill-rule="evenodd" clip-rule="evenodd" d="M871.716 487.603C871.716 492.551 867.119 496.562 861.45 496.562C855.778 496.562 851.184 492.551 851.184 487.603C851.184 482.656 855.778 478.645 861.45 478.645C867.119 478.645 871.716 482.656 871.716 487.603Z" stroke="#FF525B" stroke-width="1.5"/>
<path fill-rule="evenodd" clip-rule="evenodd" d="M918.136 487.603C918.136 492.551 913.536 496.562 907.87 496.562C902.198 496.562 897.604 492.551 897.604 487.603C897.604 482.656 902.198 478.645 907.87 478.645C913.536 478.645 918.136 482.656 918.136 487.603Z" stroke="#FF525B" stroke-width="1.5"/>
<path fill-rule="evenodd" clip-rule="evenodd" d="M965.448 487.603C965.448 492.551 960.852 496.562 955.182 496.562C949.513 496.562 944.917 492.551 944.917 487.603C944.917 482.656 949.513 478.645 955.182 478.645C960.852 478.645 965.448 482.656 965.448 487.603Z" stroke="#FF525B" stroke-width="1.5"/>
<path fill-rule="evenodd" clip-rule="evenodd" d="M604.8 496.562H766.378V479.541H604.8V496.562Z" stroke="#FF525B" stroke-width="1.5"/>
<path fill-rule="evenodd" clip-rule="evenodd" d="M424.476 487.603C424.476 492.551 419.879 496.562 414.21 496.562C408.541 496.562 403.944 492.551 403.944 487.603C403.944 482.656 408.541 478.645 414.21 478.645C419.879 478.645 424.476 482.656 424.476 487.603Z" stroke="#FF525B" stroke-width="1.5"/>
<path fill-rule="evenodd" clip-rule="evenodd" d="M470.896 487.603C470.896 492.551 466.299 496.562 460.63 496.562C454.961 496.562 450.364 492.551 450.364 487.603C450.364 482.656 454.961 478.645 460.63 478.645C466.299 478.645 470.896 482.656 470.896 487.603Z" stroke="#FF525B" stroke-width="1.5"/>
<path fill-rule="evenodd" clip-rule="evenodd" d="M518.209 487.603C518.209 492.551 513.612 496.562 507.943 496.562C502.271 496.562 497.677 492.551 497.677 487.603C497.677 482.656 502.271 478.645 507.943 478.645C513.612 478.645 518.209 482.656 518.209 487.603Z" stroke="#FF525B" stroke-width="1.5"/>
<path fill-rule="evenodd" clip-rule="evenodd" d="M567.307 487.603C567.307 492.551 562.71 496.562 557.041 496.562C551.372 496.562 546.775 492.551 546.775 487.603C546.775 482.656 551.372 478.645 557.041 478.645C562.71 478.645 567.307 482.656 567.307 487.603Z" stroke="#FF525B" stroke-width="1.5"/>
<path fill-rule="evenodd" clip-rule="evenodd" d="M206.659 496.562H368.236V479.541H206.659V496.562Z" stroke="#FF525B" stroke-width="1.5"/>
<path fill-rule="evenodd" clip-rule="evenodd" d="M27.227 487.603C27.227 492.551 22.6303 496.562 16.9611 496.562C11.2918 496.562 6.69507 492.551 6.69507 487.603C6.69507 482.656 11.2918 478.645 16.9611 478.645C22.6303 478.645 27.227 482.656 27.227 487.603Z" stroke="#FF525B" stroke-width="1.5"/>
<path fill-rule="evenodd" clip-rule="evenodd" d="M73.6472 487.603C73.6472 492.551 69.0505 496.562 63.3812 496.562C57.7119 496.562 53.1152 492.551 53.1152 487.603C53.1152 482.656 57.7119 478.645 63.3812 478.645C69.0505 478.645 73.6472 482.656 73.6472 487.603Z" stroke="#FF525B" stroke-width="1.5"/>
<path fill-rule="evenodd" clip-rule="evenodd" d="M122.745 487.603C122.745 492.551 118.149 496.562 112.479 496.562C106.81 496.562 102.213 492.551 102.213 487.603C102.213 482.656 106.81 478.645 112.479 478.645C118.149 478.645 122.745 482.656 122.745 487.603Z" stroke="#FF525B" stroke-width="1.5"/>
<path fill-rule="evenodd" clip-rule="evenodd" d="M167.38 487.603C167.38 492.551 162.783 496.562 157.114 496.562C151.445 496.562 146.848 492.551 146.848 487.603C146.848 482.656 151.445 478.645 157.114 478.645C162.783 478.645 167.38 482.656 167.38 487.603Z" stroke="#FF525B" stroke-width="1.5"/>
<path fill-rule="evenodd" clip-rule="evenodd" d="M33.4759 564.648H3.12427L18.3013 543.595L33.4759 522.542L48.6529 543.595L63.8275 564.648H33.4759Z" stroke="#FF525B" stroke-width="1.5"/>
<path fill-rule="evenodd" clip-rule="evenodd" d="M83.4668 522.542H113.818L98.6414 543.595L83.4668 564.648L68.2922 543.595L53.1152 522.542H83.4668Z" stroke="#FF525B" stroke-width="1.5"/>
<path fill-rule="evenodd" clip-rule="evenodd" d="M133.458 564.648H103.106L118.283 543.595L133.458 522.542L148.632 543.595L163.809 564.648H133.458Z" stroke="#FF525B" stroke-width="1.5"/>
<path fill-rule="evenodd" clip-rule="evenodd" d="M183.449 522.542H213.8L198.623 543.595L183.449 564.648L168.274 543.595L153.097 522.542H183.449Z" stroke="#FF525B" stroke-width="1.5"/>
<path fill-rule="evenodd" clip-rule="evenodd" d="M234.332 564.648H203.98L219.155 543.595L234.332 522.542L249.507 543.595L264.684 564.648H234.332Z" stroke="#FF525B" stroke-width="1.5"/>
<path fill-rule="evenodd" clip-rule="evenodd" d="M284.323 522.542H314.675L299.5 543.595L284.323 564.648L269.148 543.595L253.971 522.542H284.323Z" stroke="#FF525B" stroke-width="1.5"/>
<path fill-rule="evenodd" clip-rule="evenodd" d="M334.314 564.648H303.962L319.139 543.595L334.314 522.542L349.489 543.595L364.666 564.648H334.314Z" stroke="#FF525B" stroke-width="1.5"/>
<path fill-rule="evenodd" clip-rule="evenodd" d="M383.412 522.542H413.764L398.587 543.595L383.412 564.648L368.238 543.595L353.061 522.542H383.412Z" stroke="#FF525B" stroke-width="1.5"/>
<path fill-rule="evenodd" clip-rule="evenodd" d="M435.188 564.648H404.837L420.011 543.595L435.188 522.542L450.363 543.595L465.54 564.648H435.188Z" stroke="#FF525B" stroke-width="1.5"/>
<path fill-rule="evenodd" clip-rule="evenodd" d="M486.072 522.542H516.423L501.246 543.595L486.072 564.648L470.895 543.595L455.72 522.542H486.072Z" stroke="#FF525B" stroke-width="1.5"/>
<path fill-rule="evenodd" clip-rule="evenodd" d="M536.063 564.648H505.711L520.888 543.595L536.063 522.542L551.237 543.595L566.414 564.648H536.063Z" stroke="#FF525B" stroke-width="1.5"/>
<path fill-rule="evenodd" clip-rule="evenodd" d="M586.946 522.542H617.298L602.121 543.595L586.946 564.648L571.769 543.595L556.595 522.542H586.946Z" stroke="#FF525B" stroke-width="1.5"/>
<path fill-rule="evenodd" clip-rule="evenodd" d="M635.151 564.648H604.8L619.977 543.595L635.151 522.542L650.325 543.595L665.503 564.648H635.151Z" stroke="#FF525B" stroke-width="1.5"/>
<path fill-rule="evenodd" clip-rule="evenodd" d="M686.034 522.542H716.387L701.21 543.595L686.034 564.648L670.86 543.595L655.684 522.542H686.034Z" stroke="#FF525B" stroke-width="1.5"/>
<path fill-rule="evenodd" clip-rule="evenodd" d="M736.026 564.648H705.675L720.852 543.595L736.026 522.542L751.201 543.595L766.378 564.648H736.026Z" stroke="#FF525B" stroke-width="1.5"/>
<path fill-rule="evenodd" clip-rule="evenodd" d="M786.017 522.542H816.369L801.192 543.595L786.017 564.648L770.843 543.595L755.666 522.542H786.017Z" stroke="#FF525B" stroke-width="1.5"/>
<path fill-rule="evenodd" clip-rule="evenodd" d="M836.008 564.648H805.656L820.833 543.595L836.008 522.542L851.182 543.595L866.359 564.648H836.008Z" stroke="#FF525B" stroke-width="1.5"/>
<path fill-rule="evenodd" clip-rule="evenodd" d="M886.892 522.542H917.243L902.066 543.595L886.892 564.648L871.717 543.595L856.54 522.542H886.892Z" stroke="#FF525B" stroke-width="1.5"/>
<path fill-rule="evenodd" clip-rule="evenodd" d="M936.884 564.648H906.531L921.71 543.595L936.884 522.542L952.058 543.595L967.234 564.648H936.884Z" stroke="#FF525B" stroke-width="1.5"/>
<path fill-rule="evenodd" clip-rule="evenodd" d="M986.873 522.542H1017.22L1002.05 543.595L986.873 564.648L971.698 543.595L956.521 522.542H986.873Z" stroke="#FF525B" stroke-width="1.5"/>
<path fill-rule="evenodd" clip-rule="evenodd" d="M1035.97 564.648H1005.62L1020.8 543.595L1035.97 522.542L1051.15 543.595L1066.32 564.648H1035.97Z" stroke="#FF525B" stroke-width="1.5"/>
<path fill-rule="evenodd" clip-rule="evenodd" d="M1086.86 522.542H1117.21L1102.03 543.595L1086.86 564.648L1071.68 543.595L1056.5 522.542H1086.86Z" stroke="#FF525B" stroke-width="1.5"/>
<path fill-rule="evenodd" clip-rule="evenodd" d="M1136.85 564.648H1106.49L1121.67 543.595L1136.85 522.542L1152.02 543.595L1167.2 564.648H1136.85Z" stroke="#FF525B" stroke-width="1.5"/>
<path fill-rule="evenodd" clip-rule="evenodd" d="M25.4416 640.796C25.4416 645.744 20.8449 649.755 15.1756 649.755C9.50638 649.755 4.90967 645.744 4.90967 640.796C4.90967 635.849 9.50638 631.838 15.1756 631.838C20.8449 631.838 25.4416 635.849 25.4416 640.796Z" stroke="#FF525B" stroke-width="1.5"/>
<path fill-rule="evenodd" clip-rule="evenodd" d="M70.0764 640.796C70.0764 645.744 65.4797 649.755 59.8104 649.755C54.1411 649.755 49.5444 645.744 49.5444 640.796C49.5444 635.849 54.1411 631.838 59.8104 631.838C65.4797 631.838 70.0764 635.849 70.0764 640.796Z" stroke="#FF525B" stroke-width="1.5"/>
<path fill-rule="evenodd" clip-rule="evenodd" d="M119.175 640.796C119.175 645.744 114.578 649.755 108.909 649.755C103.239 649.755 98.6426 645.744 98.6426 640.796C98.6426 635.849 103.239 631.838 108.909 631.838C114.578 631.838 119.175 635.849 119.175 640.796Z" stroke="#FF525B" stroke-width="1.5"/>
<path fill-rule="evenodd" clip-rule="evenodd" d="M163.809 640.796C163.809 645.744 159.213 649.755 153.543 649.755C147.871 649.755 143.277 645.744 143.277 640.796C143.277 635.849 147.871 631.838 153.543 631.838C159.213 631.838 163.809 635.849 163.809 640.796Z" stroke="#FF525B" stroke-width="1.5"/>
<path fill-rule="evenodd" clip-rule="evenodd" d="M203.088 649.755H364.666V632.733H203.088V649.755Z" stroke="#FF525B" stroke-width="1.5"/>
<path fill-rule="evenodd" clip-rule="evenodd" d="M423.583 640.796C423.583 645.744 418.987 649.755 413.317 649.755C407.648 649.755 403.051 645.744 403.051 640.796C403.051 635.849 407.648 631.838 413.317 631.838C418.987 631.838 423.583 635.849 423.583 640.796Z" stroke="#FF525B" stroke-width="1.5"/>
<path fill-rule="evenodd" clip-rule="evenodd" d="M470.003 640.796C470.003 645.744 465.407 649.755 459.737 649.755C454.068 649.755 449.471 645.744 449.471 640.796C449.471 635.849 454.068 631.838 459.737 631.838C465.407 631.838 470.003 635.849 470.003 640.796Z" stroke="#FF525B" stroke-width="1.5"/>
<path fill-rule="evenodd" clip-rule="evenodd" d="M518.209 640.796C518.209 645.744 513.612 649.755 507.943 649.755C502.273 649.755 497.677 645.744 497.677 640.796C497.677 635.849 502.273 631.838 507.943 631.838C513.612 631.838 518.209 635.849 518.209 640.796Z" stroke="#FF525B" stroke-width="1.5"/>
<path fill-rule="evenodd" clip-rule="evenodd" d="M564.629 640.796C564.629 645.744 560.032 649.755 554.363 649.755C548.694 649.755 544.097 645.744 544.097 640.796C544.097 635.849 548.694 631.838 554.363 631.838C560.032 631.838 564.629 635.849 564.629 640.796Z" stroke="#FF525B" stroke-width="1.5"/>
<path fill-rule="evenodd" clip-rule="evenodd" d="M603.907 649.755H765.485V632.733H603.907V649.755Z" stroke="#FF525B" stroke-width="1.5"/>
<path fill-rule="evenodd" clip-rule="evenodd" d="M820.832 640.796C820.832 645.744 816.236 649.755 810.566 649.755C804.894 649.755 800.3 645.744 800.3 640.796C800.3 635.849 804.894 631.838 810.566 631.838C816.236 631.838 820.832 635.849 820.832 640.796Z" stroke="#FF525B" stroke-width="1.5"/>
<path fill-rule="evenodd" clip-rule="evenodd" d="M868.145 640.796C868.145 645.744 863.548 649.755 857.88 649.755C852.208 649.755 847.613 645.744 847.613 640.796C847.613 635.849 852.208 631.838 857.88 631.838C863.548 631.838 868.145 635.849 868.145 640.796Z" stroke="#FF525B" stroke-width="1.5"/>
<path fill-rule="evenodd" clip-rule="evenodd" d="M917.243 640.796C917.243 645.744 912.646 649.755 906.977 649.755C901.308 649.755 896.711 645.744 896.711 640.796C896.711 635.849 901.308 631.838 906.977 631.838C912.646 631.838 917.243 635.849 917.243 640.796Z" stroke="#FF525B" stroke-width="1.5"/>
<path fill-rule="evenodd" clip-rule="evenodd" d="M964.556 640.796C964.556 645.744 959.957 649.755 954.29 649.755C948.618 649.755 944.024 645.744 944.024 640.796C944.024 635.849 948.618 631.838 954.29 631.838C959.957 631.838 964.556 635.849 964.556 640.796Z" stroke="#FF525B" stroke-width="1.5"/>
<path fill-rule="evenodd" clip-rule="evenodd" d="M1000.26 649.755H1161.84V632.733H1000.26V649.755Z" stroke="#FF525B" stroke-width="1.5"/>
<path fill-rule="evenodd" clip-rule="evenodd" d="M2.23169 603.17H163.809V586.148H2.23169V603.17Z" stroke="#FF525B" stroke-width="1.5"/>
<path fill-rule="evenodd" clip-rule="evenodd" d="M344.134 596.899C344.134 591.952 348.73 587.94 354.4 587.94C360.071 587.94 364.666 591.952 364.666 596.899C364.666 601.848 360.071 605.857 354.4 605.857C348.73 605.857 344.134 601.848 344.134 596.899Z" stroke="#FF525B" stroke-width="1.5"/>
<path fill-rule="evenodd" clip-rule="evenodd" d="M298.606 596.899C298.606 591.952 303.203 587.94 308.872 587.94C314.541 587.94 319.138 591.952 319.138 596.899C319.138 601.848 314.541 605.857 308.872 605.857C303.203 605.857 298.606 601.848 298.606 596.899Z" stroke="#FF525B" stroke-width="1.5"/>
<path fill-rule="evenodd" clip-rule="evenodd" d="M250.401 596.899C250.401 591.952 254.997 587.94 260.667 587.94C266.336 587.94 270.933 591.952 270.933 596.899C270.933 601.848 266.336 605.857 260.667 605.857C254.997 605.857 250.401 601.848 250.401 596.899Z" stroke="#FF525B" stroke-width="1.5"/>
<path fill-rule="evenodd" clip-rule="evenodd" d="M203.088 596.899C203.088 591.952 207.685 587.94 213.354 587.94C219.023 587.94 223.62 591.952 223.62 596.899C223.62 601.848 219.023 605.857 213.354 605.857C207.685 605.857 203.088 601.848 203.088 596.899Z" stroke="#FF525B" stroke-width="1.5"/>
<path fill-rule="evenodd" clip-rule="evenodd" d="M403.051 603.17H564.629V586.148H403.051V603.17Z" stroke="#FF525B" stroke-width="1.5"/>
<path fill-rule="evenodd" clip-rule="evenodd" d="M744.953 596.899C744.953 591.952 749.55 587.94 755.219 587.94C760.891 587.94 765.485 591.952 765.485 596.899C765.485 601.848 760.891 605.857 755.219 605.857C749.55 605.857 744.953 601.848 744.953 596.899Z" stroke="#FF525B" stroke-width="1.5"/>
<path fill-rule="evenodd" clip-rule="evenodd" d="M695.855 596.899C695.855 591.952 700.454 587.94 706.121 587.94C711.793 587.94 716.387 591.952 716.387 596.899C716.387 601.848 711.793 605.857 706.121 605.857C700.454 605.857 695.855 601.848 695.855 596.899Z" stroke="#FF525B" stroke-width="1.5"/>
<path fill-rule="evenodd" clip-rule="evenodd" d="M648.542 596.899C648.542 591.952 653.139 587.94 658.808 587.94C664.477 587.94 669.074 591.952 669.074 596.899C669.074 601.848 664.477 605.857 658.808 605.857C653.139 605.857 648.542 601.848 648.542 596.899Z" stroke="#FF525B" stroke-width="1.5"/>
<path fill-rule="evenodd" clip-rule="evenodd" d="M601.229 596.899C601.229 591.952 605.826 587.94 611.495 587.94C617.167 587.94 621.761 591.952 621.761 596.899C621.761 601.848 617.167 605.857 611.495 605.857C605.826 605.857 601.229 601.848 601.229 596.899Z" stroke="#FF525B" stroke-width="1.5"/>
<path fill-rule="evenodd" clip-rule="evenodd" d="M802.978 603.17H964.556V586.148H802.978V603.17Z" stroke="#FF525B" stroke-width="1.5"/>
<path fill-rule="evenodd" clip-rule="evenodd" d="M1142.2 596.899C1142.2 591.952 1146.8 587.94 1152.47 587.94C1158.14 587.94 1162.73 591.952 1162.73 596.899C1162.73 601.848 1158.14 605.857 1152.47 605.857C1146.8 605.857 1142.2 601.848 1142.2 596.899Z" stroke="#FF525B" stroke-width="1.5"/>
<path fill-rule="evenodd" clip-rule="evenodd" d="M1094.89 596.899C1094.89 591.952 1099.49 587.94 1105.16 587.94C1110.83 587.94 1115.42 591.952 1115.42 596.899C1115.42 601.848 1110.83 605.857 1105.16 605.857C1099.49 605.857 1094.89 601.848 1094.89 596.899Z" stroke="#FF525B" stroke-width="1.5"/>
<path fill-rule="evenodd" clip-rule="evenodd" d="M1047.58 596.899C1047.58 591.952 1052.18 587.94 1057.84 587.94C1063.51 587.94 1068.11 591.952 1068.11 596.899C1068.11 601.848 1063.51 605.857 1057.84 605.857C1052.18 605.857 1047.58 601.848 1047.58 596.899Z" stroke="#FF525B" stroke-width="1.5"/>
<path fill-rule="evenodd" clip-rule="evenodd" d="M1000.26 596.899C1000.26 591.952 1004.86 587.94 1010.53 587.94C1016.2 587.94 1020.8 591.952 1020.8 596.899C1020.8 601.848 1016.2 605.857 1010.53 605.857C1004.86 605.857 1000.26 601.848 1000.26 596.899Z" stroke="#FF525B" stroke-width="1.5"/>
<path fill-rule="evenodd" clip-rule="evenodd" d="M1144.88 681.11C1144.88 676.163 1149.48 672.152 1155.15 672.152C1160.82 672.152 1165.41 676.163 1165.41 681.11C1165.41 686.058 1160.82 690.069 1155.15 690.069C1149.48 690.069 1144.88 686.058 1144.88 681.11Z" stroke="#FF525B" stroke-width="1.5"/>
<path fill-rule="evenodd" clip-rule="evenodd" d="M1097.57 681.11C1097.57 676.163 1102.17 672.152 1107.83 672.152C1113.51 672.152 1118.1 676.163 1118.1 681.11C1118.1 686.058 1113.51 690.069 1107.83 690.069C1102.17 690.069 1097.57 686.058 1097.57 681.11Z" stroke="#FF525B" stroke-width="1.5"/>
<path fill-rule="evenodd" clip-rule="evenodd" d="M1048.47 681.11C1048.47 676.163 1053.07 672.152 1058.74 672.152C1064.4 672.152 1069 676.163 1069 681.11C1069 686.058 1064.4 690.069 1058.74 690.069C1053.07 690.069 1048.47 686.058 1048.47 681.11Z" stroke="#FF525B" stroke-width="1.5"/>
<path fill-rule="evenodd" clip-rule="evenodd" d="M1003.83 681.11C1003.83 676.163 1008.43 672.152 1014.1 672.152C1019.77 672.152 1024.37 676.163 1024.37 681.11C1024.37 686.058 1019.77 690.069 1014.1 690.069C1008.43 690.069 1003.83 686.058 1003.83 681.11Z" stroke="#FF525B" stroke-width="1.5"/>
<path fill-rule="evenodd" clip-rule="evenodd" d="M803.871 689.173H965.449V672.152H803.871V689.173Z" stroke="#FF525B" stroke-width="1.5"/>
<path fill-rule="evenodd" clip-rule="evenodd" d="M745.846 681.11C745.846 676.163 750.445 672.152 756.112 672.152C761.784 672.152 766.378 676.163 766.378 681.11C766.378 686.058 761.784 690.069 756.112 690.069C750.445 690.069 745.846 686.058 745.846 681.11Z" stroke="#FF525B" stroke-width="1.5"/>
<path fill-rule="evenodd" clip-rule="evenodd" d="M698.533 681.11C698.533 676.163 703.13 672.152 708.799 672.152C714.468 672.152 719.065 676.163 719.065 681.11C719.065 686.058 714.468 690.069 708.799 690.069C703.13 690.069 698.533 686.058 698.533 681.11Z" stroke="#FF525B" stroke-width="1.5"/>
<path fill-rule="evenodd" clip-rule="evenodd" d="M651.22 681.11C651.22 676.163 655.817 672.152 661.486 672.152C667.158 672.152 671.752 676.163 671.752 681.11C671.752 686.058 667.158 690.069 661.486 690.069C655.817 690.069 651.22 686.058 651.22 681.11Z" stroke="#FF525B" stroke-width="1.5"/>
<path fill-rule="evenodd" clip-rule="evenodd" d="M603.907 681.11C603.907 676.163 608.505 672.152 614.172 672.152C619.845 672.152 624.439 676.163 624.439 681.11C624.439 686.058 619.845 690.069 614.172 690.069C608.505 690.069 603.907 686.058 603.907 681.11Z" stroke="#FF525B" stroke-width="1.5"/>
<path fill-rule="evenodd" clip-rule="evenodd" d="M405.729 689.173H567.307V672.152H405.729V689.173Z" stroke="#FF525B" stroke-width="1.5"/>
<path fill-rule="evenodd" clip-rule="evenodd" d="M347.704 681.11C347.704 676.163 352.301 672.152 357.97 672.152C363.64 672.152 368.236 676.163 368.236 681.11C368.236 686.058 363.64 690.069 357.97 690.069C352.301 690.069 347.704 686.058 347.704 681.11Z" stroke="#FF525B" stroke-width="1.5"/>
<path fill-rule="evenodd" clip-rule="evenodd" d="M298.606 681.11C298.606 676.163 303.203 672.152 308.872 672.152C314.541 672.152 319.138 676.163 319.138 681.11C319.138 686.058 314.541 690.069 308.872 690.069C303.203 690.069 298.606 686.058 298.606 681.11Z" stroke="#FF525B" stroke-width="1.5"/>
<path fill-rule="evenodd" clip-rule="evenodd" d="M252.186 681.11C252.186 676.163 256.783 672.152 262.452 672.152C268.121 672.152 272.718 676.163 272.718 681.11C272.718 686.058 268.121 690.069 262.452 690.069C256.783 690.069 252.186 686.058 252.186 681.11Z" stroke="#FF525B" stroke-width="1.5"/>
<path fill-rule="evenodd" clip-rule="evenodd" d="M206.659 681.11C206.659 676.163 211.255 672.152 216.925 672.152C222.594 672.152 227.191 676.163 227.191 681.11C227.191 686.058 222.594 690.069 216.925 690.069C211.255 690.069 206.659 686.058 206.659 681.11Z" stroke="#FF525B" stroke-width="1.5"/>
<path fill-rule="evenodd" clip-rule="evenodd" d="M5.80249 689.173H167.38V672.152H5.80249V689.173Z" stroke="#FF525B" stroke-width="1.5"/>
</g>
</g>
</svg>
