<svg width="32" height="32" viewBox="0 0 32 32" fill="none" xmlns="http://www.w3.org/2000/svg">
<path fill-rule="evenodd" clip-rule="evenodd" d="M29 22C29 25.86 25.86 29 22 29H10C6.14 29 3 25.86 3 22V10C3 6.14 6.14 3 10 3H22C25.86 3 29 6.14 29 10V22ZM22 0H10C4.478 0 0 4.478 0 10V22C0 27.522 4.478 32 10 32H22C27.522 32 32 27.522 32 22V10C32 4.478 27.522 0 22 0Z" fill="white"/>
<path fill-rule="evenodd" clip-rule="evenodd" d="M16 21C13.244 21 11 18.756 11 16C11 13.242 13.244 11 16 11C18.756 11 21 13.242 21 16C21 18.756 18.756 21 16 21ZM16 8C11.582 8 8 11.582 8 16C8 20.418 11.582 24 16 24C20.418 24 24 20.418 24 16C24 11.582 20.418 8 16 8Z" fill="white"/>
<path fill-rule="evenodd" clip-rule="evenodd" d="M24.5997 6.33398C25.1887 6.33398 25.6657 6.81098 25.6657 7.39998C25.6657 7.98898 25.1887 8.46598 24.5997 8.46598C24.0117 8.46598 23.5347 7.98898 23.5347 7.39998C23.5347 6.81098 24.0117 6.33398 24.5997 6.33398Z" fill="white"/>
</svg>
