<svg width="1177" height="1173" viewBox="0 0 1177 1173" fill="none" xmlns="http://www.w3.org/2000/svg">
<g opacity="0.546921">
<path fill-rule="evenodd" clip-rule="evenodd" d="M32.5 43.0174H2L17.2512 22.5104L32.5 2.00119L47.7512 22.5104L63 43.0174H32.5Z" stroke="#FF525B" stroke-width="1.5"/>
<path fill-rule="evenodd" clip-rule="evenodd" d="M83.5 2.00119H114L98.7488 22.5081L83.5 43.0174L68.2512 22.5081L53 2.00119H83.5Z" stroke="#FF525B" stroke-width="1.5"/>
<path fill-rule="evenodd" clip-rule="evenodd" d="M133.5 43.0174H103L118.251 22.5104L133.5 2.00119L148.749 22.5104L164 43.0174H133.5Z" stroke="#FF525B" stroke-width="1.5"/>
<path fill-rule="evenodd" clip-rule="evenodd" d="M184.5 2.00119H215L199.749 22.5081L184.5 43.0174L169.251 22.5081L154 2.00119H184.5Z" stroke="#FF525B" stroke-width="1.5"/>
<path fill-rule="evenodd" clip-rule="evenodd" d="M234.5 43.0174H204L219.249 22.5104L234.5 2.00119L249.749 22.5104L265 43.0174H234.5Z" stroke="#FF525B" stroke-width="1.5"/>
<path fill-rule="evenodd" clip-rule="evenodd" d="M285.5 2.00119H316L300.751 22.5081L285.5 43.0174L270.251 22.5081L255 2.00119H285.5Z" stroke="#FF525B" stroke-width="1.5"/>
<path fill-rule="evenodd" clip-rule="evenodd" d="M335.5 43.0174H305L320.251 22.5104L335.5 2.00119L350.749 22.5104L366 43.0174H335.5Z" stroke="#FF525B" stroke-width="1.5"/>
<path fill-rule="evenodd" clip-rule="evenodd" d="M386.5 2.00119H417L401.749 22.5081L386.5 43.0174L371.251 22.5081L356 2.00119H386.5Z" stroke="#FF525B" stroke-width="1.5"/>
<path fill-rule="evenodd" clip-rule="evenodd" d="M436.5 43.0174H406L421.249 22.5104L436.5 2.00119L451.749 22.5104L467 43.0174H436.5Z" stroke="#FF525B" stroke-width="1.5"/>
<path fill-rule="evenodd" clip-rule="evenodd" d="M487.5 2.00119H518L502.749 22.5081L487.5 43.0174L472.249 22.5081L457 2.00119H487.5Z" stroke="#FF525B" stroke-width="1.5"/>
<path fill-rule="evenodd" clip-rule="evenodd" d="M537.5 43.0174H507L522.251 22.5104L537.5 2.00119L552.749 22.5104L568 43.0174H537.5Z" stroke="#FF525B" stroke-width="1.5"/>
<path fill-rule="evenodd" clip-rule="evenodd" d="M589.5 2.00119H620L604.749 22.5081L589.5 43.0174L574.249 22.5081L559 2.00119H589.5Z" stroke="#FF525B" stroke-width="1.5"/>
<path fill-rule="evenodd" clip-rule="evenodd" d="M639.499 43.0174H609L624.251 22.5104L639.499 2.00119L654.747 22.5104L670 43.0174H639.499Z" stroke="#FF525B" stroke-width="1.5"/>
<path fill-rule="evenodd" clip-rule="evenodd" d="M689.499 2.00119H720L704.749 22.5081L689.499 43.0174L674.251 22.5081L659 2.00119H689.499Z" stroke="#FF525B" stroke-width="1.5"/>
<path fill-rule="evenodd" clip-rule="evenodd" d="M740.5 43.0174H710L725.251 22.5104L740.5 2.00119L755.749 22.5104L771 43.0174H740.5Z" stroke="#FF525B" stroke-width="1.5"/>
<path fill-rule="evenodd" clip-rule="evenodd" d="M790.5 2.00119H821L805.749 22.5081L790.5 43.0174L775.251 22.5081L760 2.00119H790.5Z" stroke="#FF525B" stroke-width="1.5"/>
<path fill-rule="evenodd" clip-rule="evenodd" d="M841.5 43.0174H811L826.251 22.5104L841.5 2.00119L856.749 22.5104L872 43.0174H841.5Z" stroke="#FF525B" stroke-width="1.5"/>
<path fill-rule="evenodd" clip-rule="evenodd" d="M891.5 2.00119H922L906.749 22.5081L891.5 43.0174L876.251 22.5081L861 2.00119H891.5Z" stroke="#FF525B" stroke-width="1.5"/>
<path fill-rule="evenodd" clip-rule="evenodd" d="M942.501 43.0174H912L927.253 22.5104L942.501 2.00119L957.749 22.5104L973 43.0174H942.501Z" stroke="#FF525B" stroke-width="1.5"/>
<path fill-rule="evenodd" clip-rule="evenodd" d="M992.5 2.00119H1023L1007.75 22.5081L992.5 43.0174L977.251 22.5081L962 2.00119H992.5Z" stroke="#FF525B" stroke-width="1.5"/>
<path fill-rule="evenodd" clip-rule="evenodd" d="M1043.5 43.0174H1013L1028.25 22.5104L1043.5 2.00119L1058.75 22.5104L1074 43.0174H1043.5Z" stroke="#FF525B" stroke-width="1.5"/>
<path fill-rule="evenodd" clip-rule="evenodd" d="M1093.5 2.00119H1124L1108.75 22.5081L1093.5 43.0174L1078.25 22.5081L1063 2.00119H1093.5Z" stroke="#FF525B" stroke-width="1.5"/>
<path fill-rule="evenodd" clip-rule="evenodd" d="M1144.5 43.0174H1114L1129.25 22.5104L1144.5 2.00119L1159.75 22.5104L1175 43.0174H1144.5Z" stroke="#FF525B" stroke-width="1.5"/>
<path fill-rule="evenodd" clip-rule="evenodd" d="M23 122.549C23 127.799 18.5224 132.052 13 132.052C7.47761 132.052 3 127.799 3 122.549C3 117.3 7.47761 113.045 13 113.045C18.5224 113.045 23 117.3 23 122.549Z" stroke="#FF525B" stroke-width="1.5"/>
<path fill-rule="evenodd" clip-rule="evenodd" d="M70 122.549C70 127.799 65.5224 132.052 60 132.052C54.4776 132.052 50 127.799 50 122.549C50 117.3 54.4776 113.045 60 113.045C65.5224 113.045 70 117.3 70 122.549Z" stroke="#FF525B" stroke-width="1.5"/>
<path fill-rule="evenodd" clip-rule="evenodd" d="M119 122.549C119 127.799 114.522 132.052 109 132.052C103.478 132.052 99 127.799 99 122.549C99 117.3 103.478 113.045 109 113.045C114.522 113.045 119 117.3 119 122.549Z" stroke="#FF525B" stroke-width="1.5"/>
<path fill-rule="evenodd" clip-rule="evenodd" d="M165 122.549C165 127.799 160.522 132.052 155 132.052C149.475 132.052 145 127.799 145 122.549C145 117.3 149.475 113.045 155 113.045C160.522 113.045 165 117.3 165 122.549Z" stroke="#FF525B" stroke-width="1.5"/>
<path fill-rule="evenodd" clip-rule="evenodd" d="M204 132.052H366V115.046H204V132.052Z" stroke="#FF525B" stroke-width="1.5"/>
<path fill-rule="evenodd" clip-rule="evenodd" d="M425 122.549C425 127.799 420.522 132.052 415 132.052C409.478 132.052 405 127.799 405 122.549C405 117.3 409.478 113.045 415 113.045C420.522 113.045 425 117.3 425 122.549Z" stroke="#FF525B" stroke-width="1.5"/>
<path fill-rule="evenodd" clip-rule="evenodd" d="M472 122.549C472 127.799 467.522 132.052 462 132.052C456.478 132.052 452 127.799 452 122.549C452 117.3 456.478 113.045 462 113.045C467.522 113.045 472 117.3 472 122.549Z" stroke="#FF525B" stroke-width="1.5"/>
<path fill-rule="evenodd" clip-rule="evenodd" d="M521 122.549C521 127.799 516.522 132.052 511 132.052C505.478 132.052 501 127.799 501 122.549C501 117.3 505.478 113.045 511 113.045C516.522 113.045 521 117.3 521 122.549Z" stroke="#FF525B" stroke-width="1.5"/>
<path fill-rule="evenodd" clip-rule="evenodd" d="M568 122.549C568 127.799 563.522 132.052 558 132.052C552.478 132.052 548 127.799 548 122.549C548 117.3 552.478 113.045 558 113.045C563.522 113.045 568 117.3 568 122.549Z" stroke="#FF525B" stroke-width="1.5"/>
<path fill-rule="evenodd" clip-rule="evenodd" d="M607 132.052H769V115.046H607V132.052Z" stroke="#FF525B" stroke-width="1.5"/>
<path fill-rule="evenodd" clip-rule="evenodd" d="M826 122.549C826 127.799 821.522 132.052 816 132.052C810.475 132.052 806 127.799 806 122.549C806 117.3 810.475 113.045 816 113.045C821.522 113.045 826 117.3 826 122.549Z" stroke="#FF525B" stroke-width="1.5"/>
<path fill-rule="evenodd" clip-rule="evenodd" d="M874 122.549C874 127.799 869.522 132.052 864.001 132.052C858.476 132.052 854 127.799 854 122.549C854 117.3 858.476 113.045 864.001 113.045C869.522 113.045 874 117.3 874 122.549Z" stroke="#FF525B" stroke-width="1.5"/>
<path fill-rule="evenodd" clip-rule="evenodd" d="M922 122.549C922 127.799 917.522 132.052 912 132.052C906.478 132.052 902 127.799 902 122.549C902 117.3 906.478 113.045 912 113.045C917.522 113.045 922 117.3 922 122.549Z" stroke="#FF525B" stroke-width="1.5"/>
<path fill-rule="evenodd" clip-rule="evenodd" d="M970 122.549C970 127.799 965.52 132.052 960 132.052C954.475 132.052 950 127.799 950 122.549C950 117.3 954.475 113.045 960 113.045C965.52 113.045 970 117.3 970 122.549Z" stroke="#FF525B" stroke-width="1.5"/>
<path fill-rule="evenodd" clip-rule="evenodd" d="M1007 132.052H1169V115.046H1007V132.052Z" stroke="#FF525B" stroke-width="1.5"/>
<path fill-rule="evenodd" clip-rule="evenodd" d="M3 87.0347H165V70.028H3V87.0347Z" stroke="#FF525B" stroke-width="1.5"/>
<path fill-rule="evenodd" clip-rule="evenodd" d="M346 78.5314C346 73.2806 350.478 69.0276 356 69.0276C361.525 69.0276 366 73.2806 366 78.5314C366 83.7797 361.525 88.0351 356 88.0351C350.478 88.0351 346 83.7797 346 78.5314Z" stroke="#FF525B" stroke-width="1.5"/>
<path fill-rule="evenodd" clip-rule="evenodd" d="M300 78.5314C300 73.2806 304.478 69.0276 310 69.0276C315.522 69.0276 320 73.2806 320 78.5314C320 83.7797 315.522 88.0351 310 88.0351C304.478 88.0351 300 83.7797 300 78.5314Z" stroke="#FF525B" stroke-width="1.5"/>
<path fill-rule="evenodd" clip-rule="evenodd" d="M251 78.5314C251 73.2806 255.478 69.0276 261 69.0276C266.522 69.0276 271 73.2806 271 78.5314C271 83.7797 266.522 88.0351 261 88.0351C255.478 88.0351 251 83.7797 251 78.5314Z" stroke="#FF525B" stroke-width="1.5"/>
<path fill-rule="evenodd" clip-rule="evenodd" d="M204 78.5314C204 73.2806 208.478 69.0276 214 69.0276C219.522 69.0276 224 73.2806 224 78.5314C224 83.7797 219.522 88.0351 214 88.0351C208.478 88.0351 204 83.7797 204 78.5314Z" stroke="#FF525B" stroke-width="1.5"/>
<path fill-rule="evenodd" clip-rule="evenodd" d="M405 87.0347H567V70.028H405V87.0347Z" stroke="#FF525B" stroke-width="1.5"/>
<path fill-rule="evenodd" clip-rule="evenodd" d="M749 78.5314C749 73.2806 753.478 69.0276 759 69.0276C764.525 69.0276 769 73.2806 769 78.5314C769 83.7797 764.525 88.0351 759 88.0351C753.478 88.0351 749 83.7797 749 78.5314Z" stroke="#FF525B" stroke-width="1.5"/>
<path fill-rule="evenodd" clip-rule="evenodd" d="M701 78.5314C701 73.2806 705.48 69.0276 711 69.0276C716.525 69.0276 721 73.2806 721 78.5314C721 83.7797 716.525 88.0351 711 88.0351C705.48 88.0351 701 83.7797 701 78.5314Z" stroke="#FF525B" stroke-width="1.5"/>
<path fill-rule="evenodd" clip-rule="evenodd" d="M653 78.5314C653 73.2806 657.478 69.0276 663 69.0276C668.522 69.0276 673 73.2806 673 78.5314C673 83.7797 668.522 88.0351 663 88.0351C657.478 88.0351 653 83.7797 653 78.5314Z" stroke="#FF525B" stroke-width="1.5"/>
<path fill-rule="evenodd" clip-rule="evenodd" d="M605 78.5314C605 73.2806 609.478 69.0276 615 69.0276C620.525 69.0276 625 73.2806 625 78.5314C625 83.7797 620.525 88.0351 615 88.0351C609.478 88.0351 605 83.7797 605 78.5314Z" stroke="#FF525B" stroke-width="1.5"/>
<path fill-rule="evenodd" clip-rule="evenodd" d="M808 87.0347H970V70.028H808V87.0347Z" stroke="#FF525B" stroke-width="1.5"/>
<path fill-rule="evenodd" clip-rule="evenodd" d="M1151 78.5314C1151 73.2806 1155.48 69.0276 1161 69.0276C1166.52 69.0276 1171 73.2806 1171 78.5314C1171 83.7797 1166.52 88.0351 1161 88.0351C1155.48 88.0351 1151 83.7797 1151 78.5314Z" stroke="#FF525B" stroke-width="1.5"/>
<path fill-rule="evenodd" clip-rule="evenodd" d="M1103 78.5314C1103 73.2806 1107.48 69.0276 1113 69.0276C1118.52 69.0276 1123 73.2806 1123 78.5314C1123 83.7797 1118.52 88.0351 1113 88.0351C1107.48 88.0351 1103 83.7797 1103 78.5314Z" stroke="#FF525B" stroke-width="1.5"/>
<path fill-rule="evenodd" clip-rule="evenodd" d="M1055 78.5314C1055 73.2806 1059.48 69.0276 1065 69.0276C1070.52 69.0276 1075 73.2806 1075 78.5314C1075 83.7797 1070.52 88.0351 1065 88.0351C1059.48 88.0351 1055 83.7797 1055 78.5314Z" stroke="#FF525B" stroke-width="1.5"/>
<path fill-rule="evenodd" clip-rule="evenodd" d="M1007 78.5314C1007 73.2806 1011.48 69.0276 1017 69.0276C1022.52 69.0276 1027 73.2806 1027 78.5314C1027 83.7797 1022.52 88.0351 1017 88.0351C1011.48 88.0351 1007 83.7797 1007 78.5314Z" stroke="#FF525B" stroke-width="1.5"/>
<path fill-rule="evenodd" clip-rule="evenodd" d="M1144.5 193.077H1175L1159.75 213.585L1144.5 234.093L1129.25 213.585L1114 193.077H1144.5Z" stroke="#FF525B" stroke-width="1.5"/>
<path fill-rule="evenodd" clip-rule="evenodd" d="M1093.5 234.093H1063L1078.25 213.585L1093.5 193.077L1108.75 213.585L1124 234.093H1093.5Z" stroke="#FF525B" stroke-width="1.5"/>
<path fill-rule="evenodd" clip-rule="evenodd" d="M1043.5 193.077H1074L1058.75 213.585L1043.5 234.093L1028.25 213.585L1013 193.077H1043.5Z" stroke="#FF525B" stroke-width="1.5"/>
<path fill-rule="evenodd" clip-rule="evenodd" d="M992.499 234.093H962L977.251 213.585L992.499 193.077L1007.75 213.585L1023 234.093H992.499Z" stroke="#FF525B" stroke-width="1.5"/>
<path fill-rule="evenodd" clip-rule="evenodd" d="M942.501 193.077H973L957.749 213.585L942.501 234.093L927.253 213.585L912 193.077H942.501Z" stroke="#FF525B" stroke-width="1.5"/>
<path fill-rule="evenodd" clip-rule="evenodd" d="M891.5 234.093H861L876.251 213.585L891.5 193.077L906.749 213.585L922 234.093H891.5Z" stroke="#FF525B" stroke-width="1.5"/>
<path fill-rule="evenodd" clip-rule="evenodd" d="M841.5 193.077H872L856.749 213.583L841.5 234.093L826.251 213.583L811 193.077H841.5Z" stroke="#FF525B" stroke-width="1.5"/>
<path fill-rule="evenodd" clip-rule="evenodd" d="M790.5 234.093H760L775.251 213.585L790.5 193.077L805.749 213.585L821 234.093H790.5Z" stroke="#FF525B" stroke-width="1.5"/>
<path fill-rule="evenodd" clip-rule="evenodd" d="M740.5 193.077H771L755.749 213.583L740.5 234.093L725.251 213.583L710 193.077H740.5Z" stroke="#FF525B" stroke-width="1.5"/>
<path fill-rule="evenodd" clip-rule="evenodd" d="M689.5 234.093H659L674.251 213.585L689.5 193.077L704.749 213.585L720 234.093H689.5Z" stroke="#FF525B" stroke-width="1.5"/>
<path fill-rule="evenodd" clip-rule="evenodd" d="M639.499 193.077H670L654.747 213.583L639.499 234.093L624.251 213.583L609 193.077H639.499Z" stroke="#FF525B" stroke-width="1.5"/>
<path fill-rule="evenodd" clip-rule="evenodd" d="M589.5 234.093H559L574.251 213.585L589.5 193.077L604.749 213.585L620 234.093H589.5Z" stroke="#FF525B" stroke-width="1.5"/>
<path fill-rule="evenodd" clip-rule="evenodd" d="M537.5 193.077H568L552.749 213.583L537.5 234.093L522.251 213.583L507 193.077H537.5Z" stroke="#FF525B" stroke-width="1.5"/>
<path fill-rule="evenodd" clip-rule="evenodd" d="M487.5 234.093H457L472.251 213.585L487.5 193.077L502.749 213.585L518 234.093H487.5Z" stroke="#FF525B" stroke-width="1.5"/>
<path fill-rule="evenodd" clip-rule="evenodd" d="M436.5 193.077H467L451.749 213.583L436.5 234.093L421.249 213.583L406 193.077H436.5Z" stroke="#FF525B" stroke-width="1.5"/>
<path fill-rule="evenodd" clip-rule="evenodd" d="M386.5 234.093H356L371.251 213.585L386.5 193.077L401.751 213.585L417 234.093H386.5Z" stroke="#FF525B" stroke-width="1.5"/>
<path fill-rule="evenodd" clip-rule="evenodd" d="M335.5 193.077H366L350.749 213.583L335.5 234.093L320.251 213.583L305 193.077H335.5Z" stroke="#FF525B" stroke-width="1.5"/>
<path fill-rule="evenodd" clip-rule="evenodd" d="M285.5 234.093H255L270.251 213.585L285.5 193.077L300.749 213.585L316 234.093H285.5Z" stroke="#FF525B" stroke-width="1.5"/>
<path fill-rule="evenodd" clip-rule="evenodd" d="M234.5 193.077H265L249.749 213.583L234.5 234.093L219.249 213.583L204 193.077H234.5Z" stroke="#FF525B" stroke-width="1.5"/>
<path fill-rule="evenodd" clip-rule="evenodd" d="M184.5 234.093H154L169.251 213.585L184.5 193.077L199.749 213.585L215 234.093H184.5Z" stroke="#FF525B" stroke-width="1.5"/>
<path fill-rule="evenodd" clip-rule="evenodd" d="M133.5 193.077H164L148.749 213.583L133.5 234.093L118.251 213.583L103 193.077H133.5Z" stroke="#FF525B" stroke-width="1.5"/>
<path fill-rule="evenodd" clip-rule="evenodd" d="M83.5 234.093H53L68.2488 213.585L83.5 193.077L98.7488 213.585L114 234.093H83.5Z" stroke="#FF525B" stroke-width="1.5"/>
<path fill-rule="evenodd" clip-rule="evenodd" d="M32.5 193.077H63L47.7512 213.583L32.5 234.093L17.2512 213.583L2 193.077H32.5Z" stroke="#FF525B" stroke-width="1.5"/>
<path fill-rule="evenodd" clip-rule="evenodd" d="M1152 162.564C1152 157.316 1156.48 153.061 1162 153.061C1167.52 153.061 1172 157.316 1172 162.564C1172 167.815 1167.52 172.068 1162 172.068C1156.48 172.068 1152 167.815 1152 162.564Z" stroke="#FF525B" stroke-width="1.5"/>
<path fill-rule="evenodd" clip-rule="evenodd" d="M1105 162.564C1105 157.316 1109.48 153.061 1115 153.061C1120.52 153.061 1125 157.316 1125 162.564C1125 167.815 1120.52 172.068 1115 172.068C1109.48 172.068 1105 167.815 1105 162.564Z" stroke="#FF525B" stroke-width="1.5"/>
<path fill-rule="evenodd" clip-rule="evenodd" d="M1056 162.564C1056 157.316 1060.48 153.061 1066 153.061C1071.52 153.061 1076 157.316 1076 162.564C1076 167.815 1071.52 172.068 1066 172.068C1060.48 172.068 1056 167.815 1056 162.564Z" stroke="#FF525B" stroke-width="1.5"/>
<path fill-rule="evenodd" clip-rule="evenodd" d="M1010 162.564C1010 157.316 1014.48 153.061 1020 153.061C1025.52 153.061 1030 157.316 1030 162.564C1030 167.815 1025.52 172.068 1020 172.068C1014.48 172.068 1010 167.815 1010 162.564Z" stroke="#FF525B" stroke-width="1.5"/>
<path fill-rule="evenodd" clip-rule="evenodd" d="M809 170.067H971V153.061H809V170.067Z" stroke="#FF525B" stroke-width="1.5"/>
<path fill-rule="evenodd" clip-rule="evenodd" d="M751 162.564C751 157.316 755.48 153.061 761 153.061C766.525 153.061 771 157.316 771 162.564C771 167.815 766.525 172.068 761 172.068C755.48 172.068 751 167.815 751 162.564Z" stroke="#FF525B" stroke-width="1.5"/>
<path fill-rule="evenodd" clip-rule="evenodd" d="M703 162.564C703 157.316 707.478 153.061 713 153.061C718.522 153.061 723 157.316 723 162.564C723 167.815 718.522 172.068 713 172.068C707.478 172.068 703 167.815 703 162.564Z" stroke="#FF525B" stroke-width="1.5"/>
<path fill-rule="evenodd" clip-rule="evenodd" d="M656 162.564C656 157.316 660.478 153.061 666 153.061C671.525 153.061 676 157.316 676 162.564C676 167.815 671.525 172.068 666 172.068C660.478 172.068 656 167.815 656 162.564Z" stroke="#FF525B" stroke-width="1.5"/>
<path fill-rule="evenodd" clip-rule="evenodd" d="M607 162.564C607 157.316 611.478 153.061 616.999 153.061C622.524 153.061 627 157.316 627 162.564C627 167.815 622.524 172.068 616.999 172.068C611.478 172.068 607 167.815 607 162.564Z" stroke="#FF525B" stroke-width="1.5"/>
<path fill-rule="evenodd" clip-rule="evenodd" d="M408 170.067H570V153.061H408V170.067Z" stroke="#FF525B" stroke-width="1.5"/>
<path fill-rule="evenodd" clip-rule="evenodd" d="M349 162.564C349 157.316 353.478 153.061 359 153.061C364.522 153.061 369 157.316 369 162.564C369 167.815 364.522 172.068 359 172.068C353.478 172.068 349 167.815 349 162.564Z" stroke="#FF525B" stroke-width="1.5"/>
<path fill-rule="evenodd" clip-rule="evenodd" d="M301 162.564C301 157.316 305.478 153.061 311 153.061C316.522 153.061 321 157.316 321 162.564C321 167.815 316.522 172.068 311 172.068C305.478 172.068 301 167.815 301 162.564Z" stroke="#FF525B" stroke-width="1.5"/>
<path fill-rule="evenodd" clip-rule="evenodd" d="M253 162.564C253 157.316 257.478 153.061 263 153.061C268.522 153.061 273 157.316 273 162.564C273 167.815 268.522 172.068 263 172.068C257.478 172.068 253 167.815 253 162.564Z" stroke="#FF525B" stroke-width="1.5"/>
<path fill-rule="evenodd" clip-rule="evenodd" d="M207 162.564C207 157.316 211.478 153.061 217 153.061C222.522 153.061 227 157.316 227 162.564C227 167.815 222.522 172.068 217 172.068C211.478 172.068 207 167.815 207 162.564Z" stroke="#FF525B" stroke-width="1.5"/>
<path fill-rule="evenodd" clip-rule="evenodd" d="M6 170.067H168V153.061H6V170.067Z" stroke="#FF525B" stroke-width="1.5"/>
<path fill-rule="evenodd" clip-rule="evenodd" d="M1010 278.11H1172V261.103H1010V278.11Z" stroke="#FF525B" stroke-width="1.5"/>
<path fill-rule="evenodd" clip-rule="evenodd" d="M829 267.606C829 272.854 824.522 277.11 819 277.11C813.478 277.11 809 272.854 809 267.606C809 262.358 813.478 258.102 819 258.102C824.522 258.102 829 262.358 829 267.606Z" stroke="#FF525B" stroke-width="1.5"/>
<path fill-rule="evenodd" clip-rule="evenodd" d="M877 267.606C877 272.854 872.522 277.11 867 277.11C861.475 277.11 857 272.854 857 267.606C857 262.358 861.475 258.102 867 258.102C872.522 258.102 877 262.358 877 267.606Z" stroke="#FF525B" stroke-width="1.5"/>
<path fill-rule="evenodd" clip-rule="evenodd" d="M924 267.606C924 272.854 919.52 277.11 914 277.11C908.475 277.11 904 272.854 904 267.606C904 262.358 908.475 258.102 914 258.102C919.52 258.102 924 262.358 924 267.606Z" stroke="#FF525B" stroke-width="1.5"/>
<path fill-rule="evenodd" clip-rule="evenodd" d="M972 267.606C972 272.854 967.522 277.11 962 277.11C956.478 277.11 952 272.854 952 267.606C952 262.358 956.478 258.102 962 258.102C967.522 258.102 972 262.358 972 267.606Z" stroke="#FF525B" stroke-width="1.5"/>
<path fill-rule="evenodd" clip-rule="evenodd" d="M609 278.11H771V261.103H609V278.11Z" stroke="#FF525B" stroke-width="1.5"/>
<path fill-rule="evenodd" clip-rule="evenodd" d="M426 267.606C426 272.854 421.522 277.11 416 277.11C410.478 277.11 406 272.854 406 267.606C406 262.358 410.478 258.102 416 258.102C421.522 258.102 426 262.358 426 267.606Z" stroke="#FF525B" stroke-width="1.5"/>
<path fill-rule="evenodd" clip-rule="evenodd" d="M474 267.606C474 272.854 469.522 277.11 464 277.11C458.478 277.11 454 272.854 454 267.606C454 262.358 458.478 258.102 464 258.102C469.522 258.102 474 262.358 474 267.606Z" stroke="#FF525B" stroke-width="1.5"/>
<path fill-rule="evenodd" clip-rule="evenodd" d="M521 267.606C521 272.854 516.522 277.11 511 277.11C505.475 277.11 501 272.854 501 267.606C501 262.358 505.475 258.102 511 258.102C516.522 258.102 521 262.358 521 267.606Z" stroke="#FF525B" stroke-width="1.5"/>
<path fill-rule="evenodd" clip-rule="evenodd" d="M571 267.606C571 272.854 566.522 277.11 561 277.11C555.478 277.11 551 272.854 551 267.606C551 262.358 555.478 258.102 561 258.102C566.522 258.102 571 262.358 571 267.606Z" stroke="#FF525B" stroke-width="1.5"/>
<path fill-rule="evenodd" clip-rule="evenodd" d="M207 278.11H369V261.103H207V278.11Z" stroke="#FF525B" stroke-width="1.5"/>
<path fill-rule="evenodd" clip-rule="evenodd" d="M26 267.606C26 272.854 21.5224 277.11 16 277.11C10.4776 277.11 6 272.854 6 267.606C6 262.358 10.4776 258.102 16 258.102C21.5224 258.102 26 262.358 26 267.606Z" stroke="#FF525B" stroke-width="1.5"/>
<path fill-rule="evenodd" clip-rule="evenodd" d="M72 267.606C72 272.854 67.5224 277.11 62 277.11C56.4776 277.11 52 272.854 52 267.606C52 262.358 56.4776 258.102 62 258.102C67.5224 258.102 72 262.358 72 267.606Z" stroke="#FF525B" stroke-width="1.5"/>
<path fill-rule="evenodd" clip-rule="evenodd" d="M121 267.606C121 272.854 116.522 277.11 111 277.11C105.478 277.11 101 272.854 101 267.606C101 262.358 105.478 258.102 111 258.102C116.522 258.102 121 262.358 121 267.606Z" stroke="#FF525B" stroke-width="1.5"/>
<path fill-rule="evenodd" clip-rule="evenodd" d="M168 267.606C168 272.854 163.522 277.11 158 277.11C152.478 277.11 148 272.854 148 267.606C148 262.358 152.478 258.102 158 258.102C163.522 258.102 168 262.358 168 267.606Z" stroke="#FF525B" stroke-width="1.5"/>
<path fill-rule="evenodd" clip-rule="evenodd" d="M32.5 341.135H2L17.2512 320.628L32.5 300.119L47.7512 320.628L63 341.135H32.5Z" stroke="#FF525B" stroke-width="1.5"/>
<path fill-rule="evenodd" clip-rule="evenodd" d="M83.5 300.119H114L98.7488 320.626L83.5 341.135L68.2512 320.626L53 300.119H83.5Z" stroke="#FF525B" stroke-width="1.5"/>
<path fill-rule="evenodd" clip-rule="evenodd" d="M133.5 341.135H103L118.251 320.628L133.5 300.119L148.749 320.628L164 341.135H133.5Z" stroke="#FF525B" stroke-width="1.5"/>
<path fill-rule="evenodd" clip-rule="evenodd" d="M184.5 300.119H215L199.749 320.626L184.5 341.135L169.251 320.626L154 300.119H184.5Z" stroke="#FF525B" stroke-width="1.5"/>
<path fill-rule="evenodd" clip-rule="evenodd" d="M234.5 341.135H204L219.249 320.628L234.5 300.119L249.749 320.628L265 341.135H234.5Z" stroke="#FF525B" stroke-width="1.5"/>
<path fill-rule="evenodd" clip-rule="evenodd" d="M285.5 300.119H316L300.751 320.626L285.5 341.135L270.251 320.626L255 300.119H285.5Z" stroke="#FF525B" stroke-width="1.5"/>
<path fill-rule="evenodd" clip-rule="evenodd" d="M335.5 341.135H305L320.251 320.628L335.5 300.119L350.749 320.628L366 341.135H335.5Z" stroke="#FF525B" stroke-width="1.5"/>
<path fill-rule="evenodd" clip-rule="evenodd" d="M386.5 300.119H417L401.749 320.626L386.5 341.135L371.251 320.626L356 300.119H386.5Z" stroke="#FF525B" stroke-width="1.5"/>
<path fill-rule="evenodd" clip-rule="evenodd" d="M436.5 341.135H406L421.249 320.628L436.5 300.119L451.749 320.628L467 341.135H436.5Z" stroke="#FF525B" stroke-width="1.5"/>
<path fill-rule="evenodd" clip-rule="evenodd" d="M487.5 300.119H518L502.749 320.626L487.5 341.135L472.249 320.626L457 300.119H487.5Z" stroke="#FF525B" stroke-width="1.5"/>
<path fill-rule="evenodd" clip-rule="evenodd" d="M537.5 341.135H507L522.251 320.628L537.5 300.119L552.749 320.628L568 341.135H537.5Z" stroke="#FF525B" stroke-width="1.5"/>
<path fill-rule="evenodd" clip-rule="evenodd" d="M589.5 300.119H620L604.749 320.626L589.5 341.135L574.249 320.626L559 300.119H589.5Z" stroke="#FF525B" stroke-width="1.5"/>
<path fill-rule="evenodd" clip-rule="evenodd" d="M639.499 341.135H609L624.251 320.628L639.499 300.119L654.747 320.628L670 341.135H639.499Z" stroke="#FF525B" stroke-width="1.5"/>
<path fill-rule="evenodd" clip-rule="evenodd" d="M689.499 300.119H720L704.749 320.626L689.499 341.135L674.251 320.626L659 300.119H689.499Z" stroke="#FF525B" stroke-width="1.5"/>
<path fill-rule="evenodd" clip-rule="evenodd" d="M740.5 341.135H710L725.251 320.628L740.5 300.119L755.749 320.628L771 341.135H740.5Z" stroke="#FF525B" stroke-width="1.5"/>
<path fill-rule="evenodd" clip-rule="evenodd" d="M790.5 300.119H821L805.749 320.626L790.5 341.135L775.251 320.626L760 300.119H790.5Z" stroke="#FF525B" stroke-width="1.5"/>
<path fill-rule="evenodd" clip-rule="evenodd" d="M841.5 341.135H811L826.251 320.628L841.5 300.119L856.749 320.628L872 341.135H841.5Z" stroke="#FF525B" stroke-width="1.5"/>
<path fill-rule="evenodd" clip-rule="evenodd" d="M891.5 300.119H922L906.749 320.626L891.5 341.135L876.251 320.626L861 300.119H891.5Z" stroke="#FF525B" stroke-width="1.5"/>
<path fill-rule="evenodd" clip-rule="evenodd" d="M942.501 341.135H912L927.253 320.628L942.501 300.119L957.749 320.628L973 341.135H942.501Z" stroke="#FF525B" stroke-width="1.5"/>
<path fill-rule="evenodd" clip-rule="evenodd" d="M992.5 300.119H1023L1007.75 320.626L992.5 341.135L977.251 320.626L962 300.119H992.5Z" stroke="#FF525B" stroke-width="1.5"/>
<path fill-rule="evenodd" clip-rule="evenodd" d="M1043.5 341.135H1013L1028.25 320.628L1043.5 300.119L1058.75 320.628L1074 341.135H1043.5Z" stroke="#FF525B" stroke-width="1.5"/>
<path fill-rule="evenodd" clip-rule="evenodd" d="M1093.5 300.119H1124L1108.75 320.626L1093.5 341.135L1078.25 320.626L1063 300.119H1093.5Z" stroke="#FF525B" stroke-width="1.5"/>
<path fill-rule="evenodd" clip-rule="evenodd" d="M1144.5 341.135H1114L1129.25 320.628L1144.5 300.119L1159.75 320.628L1175 341.135H1144.5Z" stroke="#FF525B" stroke-width="1.5"/>
<path fill-rule="evenodd" clip-rule="evenodd" d="M23 419.666C23 424.914 18.5224 429.17 13 429.17C7.47761 429.17 3 424.914 3 419.666C3 414.418 7.47761 410.162 13 410.162C18.5224 410.162 23 414.418 23 419.666Z" stroke="#FF525B" stroke-width="1.5"/>
<path fill-rule="evenodd" clip-rule="evenodd" d="M70 419.666C70 424.914 65.5224 429.17 60 429.17C54.4776 429.17 50 424.914 50 419.666C50 414.418 54.4776 410.162 60 410.162C65.5224 410.162 70 414.418 70 419.666Z" stroke="#FF525B" stroke-width="1.5"/>
<path fill-rule="evenodd" clip-rule="evenodd" d="M119 419.666C119 424.914 114.522 429.17 109 429.17C103.478 429.17 99 424.914 99 419.666C99 414.418 103.478 410.162 109 410.162C114.522 410.162 119 414.418 119 419.666Z" stroke="#FF525B" stroke-width="1.5"/>
<path fill-rule="evenodd" clip-rule="evenodd" d="M165 419.666C165 424.914 160.522 429.17 155 429.17C149.475 429.17 145 424.914 145 419.666C145 414.418 149.475 410.162 155 410.162C160.522 410.162 165 414.418 165 419.666Z" stroke="#FF525B" stroke-width="1.5"/>
<path fill-rule="evenodd" clip-rule="evenodd" d="M204 429.17H366V412.163H204V429.17Z" stroke="#FF525B" stroke-width="1.5"/>
<path fill-rule="evenodd" clip-rule="evenodd" d="M425 419.666C425 424.914 420.522 429.17 415 429.17C409.478 429.17 405 424.914 405 419.666C405 414.418 409.478 410.162 415 410.162C420.522 410.162 425 414.418 425 419.666Z" stroke="#FF525B" stroke-width="1.5"/>
<path fill-rule="evenodd" clip-rule="evenodd" d="M472 419.666C472 424.914 467.522 429.17 462 429.17C456.478 429.17 452 424.914 452 419.666C452 414.418 456.478 410.162 462 410.162C467.522 410.162 472 414.418 472 419.666Z" stroke="#FF525B" stroke-width="1.5"/>
<path fill-rule="evenodd" clip-rule="evenodd" d="M521 419.666C521 424.914 516.522 429.17 511 429.17C505.478 429.17 501 424.914 501 419.666C501 414.418 505.478 410.162 511 410.162C516.522 410.162 521 414.418 521 419.666Z" stroke="#FF525B" stroke-width="1.5"/>
<path fill-rule="evenodd" clip-rule="evenodd" d="M568 419.666C568 424.914 563.522 429.17 558 429.17C552.478 429.17 548 424.914 548 419.666C548 414.418 552.478 410.162 558 410.162C563.522 410.162 568 414.418 568 419.666Z" stroke="#FF525B" stroke-width="1.5"/>
<path fill-rule="evenodd" clip-rule="evenodd" d="M607 429.17H769V412.163H607V429.17Z" stroke="#FF525B" stroke-width="1.5"/>
<path fill-rule="evenodd" clip-rule="evenodd" d="M826 419.666C826 424.914 821.522 429.17 816 429.17C810.475 429.17 806 424.914 806 419.666C806 414.418 810.475 410.162 816 410.162C821.522 410.162 826 414.418 826 419.666Z" stroke="#FF525B" stroke-width="1.5"/>
<path fill-rule="evenodd" clip-rule="evenodd" d="M874 419.666C874 424.914 869.522 429.17 864.001 429.17C858.476 429.17 854 424.914 854 419.666C854 414.418 858.476 410.162 864.001 410.162C869.522 410.162 874 414.418 874 419.666Z" stroke="#FF525B" stroke-width="1.5"/>
<path fill-rule="evenodd" clip-rule="evenodd" d="M922 419.666C922 424.914 917.522 429.17 912 429.17C906.478 429.17 902 424.914 902 419.666C902 414.418 906.478 410.162 912 410.162C917.522 410.162 922 414.418 922 419.666Z" stroke="#FF525B" stroke-width="1.5"/>
<path fill-rule="evenodd" clip-rule="evenodd" d="M970 419.666C970 424.914 965.52 429.17 960 429.17C954.475 429.17 950 424.914 950 419.666C950 414.418 954.475 410.162 960 410.162C965.52 410.162 970 414.418 970 419.666Z" stroke="#FF525B" stroke-width="1.5"/>
<path fill-rule="evenodd" clip-rule="evenodd" d="M1007 429.17H1169V412.163H1007V429.17Z" stroke="#FF525B" stroke-width="1.5"/>
<path fill-rule="evenodd" clip-rule="evenodd" d="M3 385.152H165V368.146H3V385.152Z" stroke="#FF525B" stroke-width="1.5"/>
<path fill-rule="evenodd" clip-rule="evenodd" d="M346 377.649C346 372.401 350.478 368.146 356 368.146C361.525 368.146 366 372.401 366 377.649C366 382.9 361.525 387.153 356 387.153C350.478 387.153 346 382.9 346 377.649Z" stroke="#FF525B" stroke-width="1.5"/>
<path fill-rule="evenodd" clip-rule="evenodd" d="M300 377.649C300 372.401 304.478 368.146 310 368.146C315.522 368.146 320 372.401 320 377.649C320 382.9 315.522 387.153 310 387.153C304.478 387.153 300 382.9 300 377.649Z" stroke="#FF525B" stroke-width="1.5"/>
<path fill-rule="evenodd" clip-rule="evenodd" d="M251 377.649C251 372.401 255.478 368.146 261 368.146C266.522 368.146 271 372.401 271 377.649C271 382.9 266.522 387.153 261 387.153C255.478 387.153 251 382.9 251 377.649Z" stroke="#FF525B" stroke-width="1.5"/>
<path fill-rule="evenodd" clip-rule="evenodd" d="M204 377.649C204 372.401 208.478 368.146 214 368.146C219.522 368.146 224 372.401 224 377.649C224 382.9 219.522 387.153 214 387.153C208.478 387.153 204 382.9 204 377.649Z" stroke="#FF525B" stroke-width="1.5"/>
<path fill-rule="evenodd" clip-rule="evenodd" d="M405 385.152H567V368.146H405V385.152Z" stroke="#FF525B" stroke-width="1.5"/>
<path fill-rule="evenodd" clip-rule="evenodd" d="M749 377.649C749 372.401 753.478 368.146 759 368.146C764.525 368.146 769 372.401 769 377.649C769 382.9 764.525 387.153 759 387.153C753.478 387.153 749 382.9 749 377.649Z" stroke="#FF525B" stroke-width="1.5"/>
<path fill-rule="evenodd" clip-rule="evenodd" d="M701 377.649C701 372.401 705.48 368.146 711 368.146C716.525 368.146 721 372.401 721 377.649C721 382.9 716.525 387.153 711 387.153C705.48 387.153 701 382.9 701 377.649Z" stroke="#FF525B" stroke-width="1.5"/>
<path fill-rule="evenodd" clip-rule="evenodd" d="M653 377.649C653 372.401 657.478 368.146 663 368.146C668.522 368.146 673 372.401 673 377.649C673 382.9 668.522 387.153 663 387.153C657.478 387.153 653 382.9 653 377.649Z" stroke="#FF525B" stroke-width="1.5"/>
<path fill-rule="evenodd" clip-rule="evenodd" d="M605 377.649C605 372.401 609.478 368.146 615 368.146C620.525 368.146 625 372.401 625 377.649C625 382.9 620.525 387.153 615 387.153C609.478 387.153 605 382.9 605 377.649Z" stroke="#FF525B" stroke-width="1.5"/>
<path fill-rule="evenodd" clip-rule="evenodd" d="M808 385.152H970V368.146H808V385.152Z" stroke="#FF525B" stroke-width="1.5"/>
<path fill-rule="evenodd" clip-rule="evenodd" d="M1151 377.649C1151 372.401 1155.48 368.146 1161 368.146C1166.52 368.146 1171 372.401 1171 377.649C1171 382.9 1166.52 387.153 1161 387.153C1155.48 387.153 1151 382.9 1151 377.649Z" stroke="#FF525B" stroke-width="1.5"/>
<path fill-rule="evenodd" clip-rule="evenodd" d="M1103 377.649C1103 372.401 1107.48 368.146 1113 368.146C1118.52 368.146 1123 372.401 1123 377.649C1123 382.9 1118.52 387.153 1113 387.153C1107.48 387.153 1103 382.9 1103 377.649Z" stroke="#FF525B" stroke-width="1.5"/>
<path fill-rule="evenodd" clip-rule="evenodd" d="M1055 377.649C1055 372.401 1059.48 368.146 1065 368.146C1070.52 368.146 1075 372.401 1075 377.649C1075 382.9 1070.52 387.153 1065 387.153C1059.48 387.153 1055 382.9 1055 377.649Z" stroke="#FF525B" stroke-width="1.5"/>
<path fill-rule="evenodd" clip-rule="evenodd" d="M1007 377.649C1007 372.401 1011.48 368.146 1017 368.146C1022.52 368.146 1027 372.401 1027 377.649C1027 382.9 1022.52 387.153 1017 387.153C1011.48 387.153 1007 382.9 1007 377.649Z" stroke="#FF525B" stroke-width="1.5"/>
<path fill-rule="evenodd" clip-rule="evenodd" d="M1144.5 491.194H1175L1159.75 511.702L1144.5 532.21L1129.25 511.702L1114 491.194H1144.5Z" stroke="#FF525B" stroke-width="1.5"/>
<path fill-rule="evenodd" clip-rule="evenodd" d="M1093.5 532.21H1063L1078.25 511.702L1093.5 491.194L1108.75 511.702L1124 532.21H1093.5Z" stroke="#FF525B" stroke-width="1.5"/>
<path fill-rule="evenodd" clip-rule="evenodd" d="M1043.5 491.194H1074L1058.75 511.702L1043.5 532.21L1028.25 511.702L1013 491.194H1043.5Z" stroke="#FF525B" stroke-width="1.5"/>
<path fill-rule="evenodd" clip-rule="evenodd" d="M992.499 532.21H962L977.251 511.702L992.499 491.194L1007.75 511.702L1023 532.21H992.499Z" stroke="#FF525B" stroke-width="1.5"/>
<path fill-rule="evenodd" clip-rule="evenodd" d="M942.501 491.194H973L957.749 511.702L942.501 532.21L927.253 511.702L912 491.194H942.501Z" stroke="#FF525B" stroke-width="1.5"/>
<path fill-rule="evenodd" clip-rule="evenodd" d="M891.5 532.21H861L876.251 511.702L891.5 491.194L906.749 511.702L922 532.21H891.5Z" stroke="#FF525B" stroke-width="1.5"/>
<path fill-rule="evenodd" clip-rule="evenodd" d="M841.5 491.194H872L856.749 511.702L841.5 532.21L826.251 511.702L811 491.194H841.5Z" stroke="#FF525B" stroke-width="1.5"/>
<path fill-rule="evenodd" clip-rule="evenodd" d="M790.5 532.21H760L775.251 511.702L790.5 491.194L805.749 511.702L821 532.21H790.5Z" stroke="#FF525B" stroke-width="1.5"/>
<path fill-rule="evenodd" clip-rule="evenodd" d="M740.5 491.194H771L755.749 511.702L740.5 532.21L725.251 511.702L710 491.194H740.5Z" stroke="#FF525B" stroke-width="1.5"/>
<path fill-rule="evenodd" clip-rule="evenodd" d="M689.5 532.21H659L674.251 511.702L689.5 491.194L704.749 511.702L720 532.21H689.5Z" stroke="#FF525B" stroke-width="1.5"/>
<path fill-rule="evenodd" clip-rule="evenodd" d="M639.499 491.194H670L654.747 511.702L639.499 532.21L624.251 511.702L609 491.194H639.499Z" stroke="#FF525B" stroke-width="1.5"/>
<path fill-rule="evenodd" clip-rule="evenodd" d="M589.5 532.21H559L574.251 511.702L589.5 491.194L604.749 511.702L620 532.21H589.5Z" stroke="#FF525B" stroke-width="1.5"/>
<path fill-rule="evenodd" clip-rule="evenodd" d="M537.5 491.194H568L552.749 511.702L537.5 532.21L522.251 511.702L507 491.194H537.5Z" stroke="#FF525B" stroke-width="1.5"/>
<path fill-rule="evenodd" clip-rule="evenodd" d="M487.5 532.21H457L472.251 511.702L487.5 491.194L502.749 511.702L518 532.21H487.5Z" stroke="#FF525B" stroke-width="1.5"/>
<path fill-rule="evenodd" clip-rule="evenodd" d="M436.5 491.194H467L451.749 511.702L436.5 532.21L421.249 511.702L406 491.194H436.5Z" stroke="#FF525B" stroke-width="1.5"/>
<path fill-rule="evenodd" clip-rule="evenodd" d="M386.5 532.21H356L371.251 511.702L386.5 491.194L401.751 511.702L417 532.21H386.5Z" stroke="#FF525B" stroke-width="1.5"/>
<path fill-rule="evenodd" clip-rule="evenodd" d="M335.5 491.194H366L350.749 511.702L335.5 532.21L320.251 511.702L305 491.194H335.5Z" stroke="#FF525B" stroke-width="1.5"/>
<path fill-rule="evenodd" clip-rule="evenodd" d="M285.5 532.21H255L270.251 511.702L285.5 491.194L300.749 511.702L316 532.21H285.5Z" stroke="#FF525B" stroke-width="1.5"/>
<path fill-rule="evenodd" clip-rule="evenodd" d="M234.5 491.194H265L249.749 511.702L234.5 532.21L219.249 511.702L204 491.194H234.5Z" stroke="#FF525B" stroke-width="1.5"/>
<path fill-rule="evenodd" clip-rule="evenodd" d="M184.5 532.21H154L169.251 511.702L184.5 491.194L199.749 511.702L215 532.21H184.5Z" stroke="#FF525B" stroke-width="1.5"/>
<path fill-rule="evenodd" clip-rule="evenodd" d="M133.5 491.194H164L148.749 511.702L133.5 532.21L118.251 511.702L103 491.194H133.5Z" stroke="#FF525B" stroke-width="1.5"/>
<path fill-rule="evenodd" clip-rule="evenodd" d="M83.5 532.21H53L68.2488 511.702L83.5 491.194L98.7488 511.702L114 532.21H83.5Z" stroke="#FF525B" stroke-width="1.5"/>
<path fill-rule="evenodd" clip-rule="evenodd" d="M32.5 491.194H63L47.7512 511.702L32.5 532.21L17.2512 511.702L2 491.194H32.5Z" stroke="#FF525B" stroke-width="1.5"/>
<path fill-rule="evenodd" clip-rule="evenodd" d="M1152 459.682C1152 454.433 1156.48 450.178 1162 450.178C1167.52 450.178 1172 454.433 1172 459.682C1172 464.93 1167.52 469.185 1162 469.185C1156.48 469.185 1152 464.93 1152 459.682Z" stroke="#FF525B" stroke-width="1.5"/>
<path fill-rule="evenodd" clip-rule="evenodd" d="M1105 459.682C1105 454.433 1109.48 450.178 1115 450.178C1120.52 450.178 1125 454.433 1125 459.682C1125 464.93 1120.52 469.185 1115 469.185C1109.48 469.185 1105 464.93 1105 459.682Z" stroke="#FF525B" stroke-width="1.5"/>
<path fill-rule="evenodd" clip-rule="evenodd" d="M1056 459.682C1056 454.433 1060.48 450.178 1066 450.178C1071.52 450.178 1076 454.433 1076 459.682C1076 464.93 1071.52 469.185 1066 469.185C1060.48 469.185 1056 464.93 1056 459.682Z" stroke="#FF525B" stroke-width="1.5"/>
<path fill-rule="evenodd" clip-rule="evenodd" d="M1010 459.682C1010 454.433 1014.48 450.178 1020 450.178C1025.52 450.178 1030 454.433 1030 459.682C1030 464.93 1025.52 469.185 1020 469.185C1014.48 469.185 1010 464.93 1010 459.682Z" stroke="#FF525B" stroke-width="1.5"/>
<path fill-rule="evenodd" clip-rule="evenodd" d="M809 467.185H971V450.178H809V467.185Z" stroke="#FF525B" stroke-width="1.5"/>
<path fill-rule="evenodd" clip-rule="evenodd" d="M751 459.682C751 454.433 755.48 450.178 761 450.178C766.525 450.178 771 454.433 771 459.682C771 464.93 766.525 469.185 761 469.185C755.48 469.185 751 464.93 751 459.682Z" stroke="#FF525B" stroke-width="1.5"/>
<path fill-rule="evenodd" clip-rule="evenodd" d="M703 459.682C703 454.433 707.478 450.178 713 450.178C718.522 450.178 723 454.433 723 459.682C723 464.93 718.522 469.185 713 469.185C707.478 469.185 703 464.93 703 459.682Z" stroke="#FF525B" stroke-width="1.5"/>
<path fill-rule="evenodd" clip-rule="evenodd" d="M656 459.682C656 454.433 660.478 450.178 666 450.178C671.525 450.178 676 454.433 676 459.682C676 464.93 671.525 469.185 666 469.185C660.478 469.185 656 464.93 656 459.682Z" stroke="#FF525B" stroke-width="1.5"/>
<path fill-rule="evenodd" clip-rule="evenodd" d="M607 459.682C607 454.433 611.478 450.178 616.999 450.178C622.524 450.178 627 454.433 627 459.682C627 464.93 622.524 469.185 616.999 469.185C611.478 469.185 607 464.93 607 459.682Z" stroke="#FF525B" stroke-width="1.5"/>
<path fill-rule="evenodd" clip-rule="evenodd" d="M408 467.185H570V450.178H408V467.185Z" stroke="#FF525B" stroke-width="1.5"/>
<path fill-rule="evenodd" clip-rule="evenodd" d="M349 459.682C349 454.433 353.478 450.178 359 450.178C364.522 450.178 369 454.433 369 459.682C369 464.93 364.522 469.185 359 469.185C353.478 469.185 349 464.93 349 459.682Z" stroke="#FF525B" stroke-width="1.5"/>
<path fill-rule="evenodd" clip-rule="evenodd" d="M301 459.682C301 454.433 305.478 450.178 311 450.178C316.522 450.178 321 454.433 321 459.682C321 464.93 316.522 469.185 311 469.185C305.478 469.185 301 464.93 301 459.682Z" stroke="#FF525B" stroke-width="1.5"/>
<path fill-rule="evenodd" clip-rule="evenodd" d="M253 459.682C253 454.433 257.478 450.178 263 450.178C268.522 450.178 273 454.433 273 459.682C273 464.93 268.522 469.185 263 469.185C257.478 469.185 253 464.93 253 459.682Z" stroke="#FF525B" stroke-width="1.5"/>
<path fill-rule="evenodd" clip-rule="evenodd" d="M207 459.682C207 454.433 211.478 450.178 217 450.178C222.522 450.178 227 454.433 227 459.682C227 464.93 222.522 469.185 217 469.185C211.478 469.185 207 464.93 207 459.682Z" stroke="#FF525B" stroke-width="1.5"/>
<path fill-rule="evenodd" clip-rule="evenodd" d="M6 467.185H168V450.178H6V467.185Z" stroke="#FF525B" stroke-width="1.5"/>
<path fill-rule="evenodd" clip-rule="evenodd" d="M1010 574.227H1172V557.22H1010V574.227Z" stroke="#FF525B" stroke-width="1.5"/>
<path fill-rule="evenodd" clip-rule="evenodd" d="M829 564.723C829 569.971 824.522 574.227 819 574.227C813.478 574.227 809 569.971 809 564.723C809 559.475 813.478 555.219 819 555.219C824.522 555.219 829 559.475 829 564.723Z" stroke="#FF525B" stroke-width="1.5"/>
<path fill-rule="evenodd" clip-rule="evenodd" d="M877 564.723C877 569.971 872.522 574.227 867 574.227C861.475 574.227 857 569.971 857 564.723C857 559.475 861.475 555.219 867 555.219C872.522 555.219 877 559.475 877 564.723Z" stroke="#FF525B" stroke-width="1.5"/>
<path fill-rule="evenodd" clip-rule="evenodd" d="M924 564.723C924 569.971 919.52 574.227 914 574.227C908.475 574.227 904 569.971 904 564.723C904 559.475 908.475 555.219 914 555.219C919.52 555.219 924 559.475 924 564.723Z" stroke="#FF525B" stroke-width="1.5"/>
<path fill-rule="evenodd" clip-rule="evenodd" d="M972 564.723C972 569.971 967.522 574.227 962 574.227C956.478 574.227 952 569.971 952 564.723C952 559.475 956.478 555.219 962 555.219C967.522 555.219 972 559.475 972 564.723Z" stroke="#FF525B" stroke-width="1.5"/>
<path fill-rule="evenodd" clip-rule="evenodd" d="M609 574.227H771V557.22H609V574.227Z" stroke="#FF525B" stroke-width="1.5"/>
<path fill-rule="evenodd" clip-rule="evenodd" d="M426 564.723C426 569.971 421.522 574.227 416 574.227C410.478 574.227 406 569.971 406 564.723C406 559.475 410.478 555.219 416 555.219C421.522 555.219 426 559.475 426 564.723Z" stroke="#FF525B" stroke-width="1.5"/>
<path fill-rule="evenodd" clip-rule="evenodd" d="M474 564.723C474 569.971 469.522 574.227 464 574.227C458.478 574.227 454 569.971 454 564.723C454 559.475 458.478 555.219 464 555.219C469.522 555.219 474 559.475 474 564.723Z" stroke="#FF525B" stroke-width="1.5"/>
<path fill-rule="evenodd" clip-rule="evenodd" d="M521 564.723C521 569.971 516.522 574.227 511 574.227C505.475 574.227 501 569.971 501 564.723C501 559.475 505.475 555.219 511 555.219C516.522 555.219 521 559.475 521 564.723Z" stroke="#FF525B" stroke-width="1.5"/>
<path fill-rule="evenodd" clip-rule="evenodd" d="M571 564.723C571 569.971 566.522 574.227 561 574.227C555.478 574.227 551 569.971 551 564.723C551 559.475 555.478 555.219 561 555.219C566.522 555.219 571 559.475 571 564.723Z" stroke="#FF525B" stroke-width="1.5"/>
<path fill-rule="evenodd" clip-rule="evenodd" d="M207 574.227H369V557.22H207V574.227Z" stroke="#FF525B" stroke-width="1.5"/>
<path fill-rule="evenodd" clip-rule="evenodd" d="M26 564.723C26 569.971 21.5224 574.227 16 574.227C10.4776 574.227 6 569.971 6 564.723C6 559.475 10.4776 555.219 16 555.219C21.5224 555.219 26 559.475 26 564.723Z" stroke="#FF525B" stroke-width="1.5"/>
<path fill-rule="evenodd" clip-rule="evenodd" d="M72 564.723C72 569.971 67.5224 574.227 62 574.227C56.4776 574.227 52 569.971 52 564.723C52 559.475 56.4776 555.219 62 555.219C67.5224 555.219 72 559.475 72 564.723Z" stroke="#FF525B" stroke-width="1.5"/>
<path fill-rule="evenodd" clip-rule="evenodd" d="M121 564.723C121 569.971 116.522 574.227 111 574.227C105.478 574.227 101 569.971 101 564.723C101 559.475 105.478 555.219 111 555.219C116.522 555.219 121 559.475 121 564.723Z" stroke="#FF525B" stroke-width="1.5"/>
<path fill-rule="evenodd" clip-rule="evenodd" d="M168 564.723C168 569.971 163.522 574.227 158 574.227C152.478 574.227 148 569.971 148 564.723C148 559.475 152.478 555.219 158 555.219C163.522 555.219 168 559.475 168 564.723Z" stroke="#FF525B" stroke-width="1.5"/>
<path fill-rule="evenodd" clip-rule="evenodd" d="M32.5 640.253H2L17.2512 619.745L32.5 599.237L47.7512 619.745L63 640.253H32.5Z" stroke="#FF525B" stroke-width="1.5"/>
<path fill-rule="evenodd" clip-rule="evenodd" d="M83.5 599.237H114L98.7488 619.745L83.5 640.253L68.2512 619.745L53 599.237H83.5Z" stroke="#FF525B" stroke-width="1.5"/>
<path fill-rule="evenodd" clip-rule="evenodd" d="M133.5 640.253H103L118.251 619.745L133.5 599.237L148.749 619.745L164 640.253H133.5Z" stroke="#FF525B" stroke-width="1.5"/>
<path fill-rule="evenodd" clip-rule="evenodd" d="M184.5 599.237H215L199.749 619.745L184.5 640.253L169.251 619.745L154 599.237H184.5Z" stroke="#FF525B" stroke-width="1.5"/>
<path fill-rule="evenodd" clip-rule="evenodd" d="M234.5 640.253H204L219.249 619.745L234.5 599.237L249.749 619.745L265 640.253H234.5Z" stroke="#FF525B" stroke-width="1.5"/>
<path fill-rule="evenodd" clip-rule="evenodd" d="M285.5 599.237H316L300.751 619.745L285.5 640.253L270.251 619.745L255 599.237H285.5Z" stroke="#FF525B" stroke-width="1.5"/>
<path fill-rule="evenodd" clip-rule="evenodd" d="M335.5 640.253H305L320.251 619.745L335.5 599.237L350.749 619.745L366 640.253H335.5Z" stroke="#FF525B" stroke-width="1.5"/>
<path fill-rule="evenodd" clip-rule="evenodd" d="M386.5 599.237H417L401.749 619.745L386.5 640.253L371.251 619.745L356 599.237H386.5Z" stroke="#FF525B" stroke-width="1.5"/>
<path fill-rule="evenodd" clip-rule="evenodd" d="M436.5 640.253H406L421.249 619.745L436.5 599.237L451.749 619.745L467 640.253H436.5Z" stroke="#FF525B" stroke-width="1.5"/>
<path fill-rule="evenodd" clip-rule="evenodd" d="M487.5 599.237H518L502.749 619.745L487.5 640.253L472.249 619.745L457 599.237H487.5Z" stroke="#FF525B" stroke-width="1.5"/>
<path fill-rule="evenodd" clip-rule="evenodd" d="M537.5 640.253H507L522.251 619.745L537.5 599.237L552.749 619.745L568 640.253H537.5Z" stroke="#FF525B" stroke-width="1.5"/>
<path fill-rule="evenodd" clip-rule="evenodd" d="M589.5 599.237H620L604.749 619.745L589.5 640.253L574.249 619.745L559 599.237H589.5Z" stroke="#FF525B" stroke-width="1.5"/>
<path fill-rule="evenodd" clip-rule="evenodd" d="M639.499 640.253H609L624.251 619.745L639.499 599.237L654.747 619.745L670 640.253H639.499Z" stroke="#FF525B" stroke-width="1.5"/>
<path fill-rule="evenodd" clip-rule="evenodd" d="M689.499 599.237H720L704.749 619.745L689.499 640.253L674.251 619.745L659 599.237H689.499Z" stroke="#FF525B" stroke-width="1.5"/>
<path fill-rule="evenodd" clip-rule="evenodd" d="M740.5 640.253H710L725.251 619.745L740.5 599.237L755.749 619.745L771 640.253H740.5Z" stroke="#FF525B" stroke-width="1.5"/>
<path fill-rule="evenodd" clip-rule="evenodd" d="M790.5 599.237H821L805.749 619.745L790.5 640.253L775.251 619.745L760 599.237H790.5Z" stroke="#FF525B" stroke-width="1.5"/>
<path fill-rule="evenodd" clip-rule="evenodd" d="M841.5 640.253H811L826.251 619.745L841.5 599.237L856.749 619.745L872 640.253H841.5Z" stroke="#FF525B" stroke-width="1.5"/>
<path fill-rule="evenodd" clip-rule="evenodd" d="M891.5 599.237H922L906.749 619.745L891.5 640.253L876.251 619.745L861 599.237H891.5Z" stroke="#FF525B" stroke-width="1.5"/>
<path fill-rule="evenodd" clip-rule="evenodd" d="M942.501 640.253H912L927.253 619.745L942.501 599.237L957.749 619.745L973 640.253H942.501Z" stroke="#FF525B" stroke-width="1.5"/>
<path fill-rule="evenodd" clip-rule="evenodd" d="M992.5 599.237H1023L1007.75 619.745L992.5 640.253L977.251 619.745L962 599.237H992.5Z" stroke="#FF525B" stroke-width="1.5"/>
<path fill-rule="evenodd" clip-rule="evenodd" d="M1043.5 640.253H1013L1028.25 619.745L1043.5 599.237L1058.75 619.745L1074 640.253H1043.5Z" stroke="#FF525B" stroke-width="1.5"/>
<path fill-rule="evenodd" clip-rule="evenodd" d="M1093.5 599.237H1124L1108.75 619.745L1093.5 640.253L1078.25 619.745L1063 599.237H1093.5Z" stroke="#FF525B" stroke-width="1.5"/>
<path fill-rule="evenodd" clip-rule="evenodd" d="M1144.5 640.253H1114L1129.25 619.745L1144.5 599.237L1159.75 619.745L1175 640.253H1144.5Z" stroke="#FF525B" stroke-width="1.5"/>
<path fill-rule="evenodd" clip-rule="evenodd" d="M23 717.783C23 723.032 18.5224 727.287 13 727.287C7.47761 727.287 3 723.032 3 717.783C3 712.535 7.47761 708.28 13 708.28C18.5224 708.28 23 712.535 23 717.783Z" stroke="#FF525B" stroke-width="1.5"/>
<path fill-rule="evenodd" clip-rule="evenodd" d="M70 717.783C70 723.032 65.5224 727.287 60 727.287C54.4776 727.287 50 723.032 50 717.783C50 712.535 54.4776 708.28 60 708.28C65.5224 708.28 70 712.535 70 717.783Z" stroke="#FF525B" stroke-width="1.5"/>
<path fill-rule="evenodd" clip-rule="evenodd" d="M119 717.783C119 723.032 114.522 727.287 109 727.287C103.478 727.287 99 723.032 99 717.783C99 712.535 103.478 708.28 109 708.28C114.522 708.28 119 712.535 119 717.783Z" stroke="#FF525B" stroke-width="1.5"/>
<path fill-rule="evenodd" clip-rule="evenodd" d="M165 717.783C165 723.032 160.522 727.287 155 727.287C149.475 727.287 145 723.032 145 717.783C145 712.535 149.475 708.28 155 708.28C160.522 708.28 165 712.535 165 717.783Z" stroke="#FF525B" stroke-width="1.5"/>
<path fill-rule="evenodd" clip-rule="evenodd" d="M204 727.287H366V710.281H204V727.287Z" stroke="#FF525B" stroke-width="1.5"/>
<path fill-rule="evenodd" clip-rule="evenodd" d="M425 717.783C425 723.032 420.522 727.287 415 727.287C409.478 727.287 405 723.032 405 717.783C405 712.535 409.478 708.28 415 708.28C420.522 708.28 425 712.535 425 717.783Z" stroke="#FF525B" stroke-width="1.5"/>
<path fill-rule="evenodd" clip-rule="evenodd" d="M472 717.783C472 723.032 467.522 727.287 462 727.287C456.478 727.287 452 723.032 452 717.783C452 712.535 456.478 708.28 462 708.28C467.522 708.28 472 712.535 472 717.783Z" stroke="#FF525B" stroke-width="1.5"/>
<path fill-rule="evenodd" clip-rule="evenodd" d="M521 717.783C521 723.032 516.522 727.287 511 727.287C505.478 727.287 501 723.032 501 717.783C501 712.535 505.478 708.28 511 708.28C516.522 708.28 521 712.535 521 717.783Z" stroke="#FF525B" stroke-width="1.5"/>
<path fill-rule="evenodd" clip-rule="evenodd" d="M568 717.783C568 723.032 563.522 727.287 558 727.287C552.478 727.287 548 723.032 548 717.783C548 712.535 552.478 708.28 558 708.28C563.522 708.28 568 712.535 568 717.783Z" stroke="#FF525B" stroke-width="1.5"/>
<path fill-rule="evenodd" clip-rule="evenodd" d="M607 727.287H769V710.281H607V727.287Z" stroke="#FF525B" stroke-width="1.5"/>
<path fill-rule="evenodd" clip-rule="evenodd" d="M826 717.783C826 723.032 821.522 727.287 816 727.287C810.475 727.287 806 723.032 806 717.783C806 712.535 810.475 708.28 816 708.28C821.522 708.28 826 712.535 826 717.783Z" stroke="#FF525B" stroke-width="1.5"/>
<path fill-rule="evenodd" clip-rule="evenodd" d="M874 717.783C874 723.032 869.522 727.287 864.001 727.287C858.476 727.287 854 723.032 854 717.783C854 712.535 858.476 708.28 864.001 708.28C869.522 708.28 874 712.535 874 717.783Z" stroke="#FF525B" stroke-width="1.5"/>
<path fill-rule="evenodd" clip-rule="evenodd" d="M922 717.783C922 723.032 917.522 727.287 912 727.287C906.478 727.287 902 723.032 902 717.783C902 712.535 906.478 708.28 912 708.28C917.522 708.28 922 712.535 922 717.783Z" stroke="#FF525B" stroke-width="1.5"/>
<path fill-rule="evenodd" clip-rule="evenodd" d="M970 717.783C970 723.032 965.52 727.287 960 727.287C954.475 727.287 950 723.032 950 717.783C950 712.535 954.475 708.28 960 708.28C965.52 708.28 970 712.535 970 717.783Z" stroke="#FF525B" stroke-width="1.5"/>
<path fill-rule="evenodd" clip-rule="evenodd" d="M1007 727.287H1169V710.281H1007V727.287Z" stroke="#FF525B" stroke-width="1.5"/>
<path fill-rule="evenodd" clip-rule="evenodd" d="M3 681.269H165V664.262H3V681.269Z" stroke="#FF525B" stroke-width="1.5"/>
<path fill-rule="evenodd" clip-rule="evenodd" d="M346 674.766C346 669.518 350.478 665.263 356 665.263C361.525 665.263 366 669.518 366 674.766C366 680.017 361.525 684.27 356 684.27C350.478 684.27 346 680.017 346 674.766Z" stroke="#FF525B" stroke-width="1.5"/>
<path fill-rule="evenodd" clip-rule="evenodd" d="M300 674.766C300 669.518 304.478 665.263 310 665.263C315.522 665.263 320 669.518 320 674.766C320 680.017 315.522 684.27 310 684.27C304.478 684.27 300 680.017 300 674.766Z" stroke="#FF525B" stroke-width="1.5"/>
<path fill-rule="evenodd" clip-rule="evenodd" d="M251 674.766C251 669.518 255.478 665.263 261 665.263C266.522 665.263 271 669.518 271 674.766C271 680.017 266.522 684.27 261 684.27C255.478 684.27 251 680.017 251 674.766Z" stroke="#FF525B" stroke-width="1.5"/>
<path fill-rule="evenodd" clip-rule="evenodd" d="M204 674.766C204 669.518 208.478 665.263 214 665.263C219.522 665.263 224 669.518 224 674.766C224 680.017 219.522 684.27 214 684.27C208.478 684.27 204 680.017 204 674.766Z" stroke="#FF525B" stroke-width="1.5"/>
<path fill-rule="evenodd" clip-rule="evenodd" d="M405 681.269H567V664.262H405V681.269Z" stroke="#FF525B" stroke-width="1.5"/>
<path fill-rule="evenodd" clip-rule="evenodd" d="M749 674.766C749 669.518 753.478 665.263 759 665.263C764.525 665.263 769 669.518 769 674.766C769 680.017 764.525 684.27 759 684.27C753.478 684.27 749 680.017 749 674.766Z" stroke="#FF525B" stroke-width="1.5"/>
<path fill-rule="evenodd" clip-rule="evenodd" d="M701 674.766C701 669.518 705.48 665.263 711 665.263C716.525 665.263 721 669.518 721 674.766C721 680.017 716.525 684.27 711 684.27C705.48 684.27 701 680.017 701 674.766Z" stroke="#FF525B" stroke-width="1.5"/>
<path fill-rule="evenodd" clip-rule="evenodd" d="M653 674.766C653 669.518 657.478 665.263 663 665.263C668.522 665.263 673 669.518 673 674.766C673 680.017 668.522 684.27 663 684.27C657.478 684.27 653 680.017 653 674.766Z" stroke="#FF525B" stroke-width="1.5"/>
<path fill-rule="evenodd" clip-rule="evenodd" d="M605 674.766C605 669.518 609.478 665.263 615 665.263C620.525 665.263 625 669.518 625 674.766C625 680.017 620.525 684.27 615 684.27C609.478 684.27 605 680.017 605 674.766Z" stroke="#FF525B" stroke-width="1.5"/>
<path fill-rule="evenodd" clip-rule="evenodd" d="M808 681.269H970V664.262H808V681.269Z" stroke="#FF525B" stroke-width="1.5"/>
<path fill-rule="evenodd" clip-rule="evenodd" d="M1151 674.766C1151 669.518 1155.48 665.263 1161 665.263C1166.52 665.263 1171 669.518 1171 674.766C1171 680.017 1166.52 684.27 1161 684.27C1155.48 684.27 1151 680.017 1151 674.766Z" stroke="#FF525B" stroke-width="1.5"/>
<path fill-rule="evenodd" clip-rule="evenodd" d="M1103 674.766C1103 669.518 1107.48 665.263 1113 665.263C1118.52 665.263 1123 669.518 1123 674.766C1123 680.017 1118.52 684.27 1113 684.27C1107.48 684.27 1103 680.017 1103 674.766Z" stroke="#FF525B" stroke-width="1.5"/>
<path fill-rule="evenodd" clip-rule="evenodd" d="M1055 674.766C1055 669.518 1059.48 665.263 1065 665.263C1070.52 665.263 1075 669.518 1075 674.766C1075 680.017 1070.52 684.27 1065 684.27C1059.48 684.27 1055 680.017 1055 674.766Z" stroke="#FF525B" stroke-width="1.5"/>
<path fill-rule="evenodd" clip-rule="evenodd" d="M1007 674.766C1007 669.518 1011.48 665.263 1017 665.263C1022.52 665.263 1027 669.518 1027 674.766C1027 680.017 1022.52 684.27 1017 684.27C1011.48 684.27 1007 680.017 1007 674.766Z" stroke="#FF525B" stroke-width="1.5"/>
<path fill-rule="evenodd" clip-rule="evenodd" d="M1144.5 789.312H1175L1159.75 809.82L1144.5 830.328L1129.25 809.82L1114 789.312H1144.5Z" stroke="#FF525B" stroke-width="1.5"/>
<path fill-rule="evenodd" clip-rule="evenodd" d="M1093.5 830.328H1063L1078.25 809.82L1093.5 789.312L1108.75 809.82L1124 830.328H1093.5Z" stroke="#FF525B" stroke-width="1.5"/>
<path fill-rule="evenodd" clip-rule="evenodd" d="M1043.5 789.312H1074L1058.75 809.82L1043.5 830.328L1028.25 809.82L1013 789.312H1043.5Z" stroke="#FF525B" stroke-width="1.5"/>
<path fill-rule="evenodd" clip-rule="evenodd" d="M992.499 830.328H962L977.251 809.82L992.499 789.312L1007.75 809.82L1023 830.328H992.499Z" stroke="#FF525B" stroke-width="1.5"/>
<path fill-rule="evenodd" clip-rule="evenodd" d="M942.501 789.312H973L957.749 809.82L942.501 830.328L927.253 809.82L912 789.312H942.501Z" stroke="#FF525B" stroke-width="1.5"/>
<path fill-rule="evenodd" clip-rule="evenodd" d="M891.5 830.328H861L876.251 809.82L891.5 789.312L906.749 809.82L922 830.328H891.5Z" stroke="#FF525B" stroke-width="1.5"/>
<path fill-rule="evenodd" clip-rule="evenodd" d="M841.5 789.312H872L856.749 809.82L841.5 830.328L826.251 809.82L811 789.312H841.5Z" stroke="#FF525B" stroke-width="1.5"/>
<path fill-rule="evenodd" clip-rule="evenodd" d="M790.5 830.328H760L775.251 809.82L790.5 789.312L805.749 809.82L821 830.328H790.5Z" stroke="#FF525B" stroke-width="1.5"/>
<path fill-rule="evenodd" clip-rule="evenodd" d="M740.5 789.312H771L755.749 809.82L740.5 830.328L725.251 809.82L710 789.312H740.5Z" stroke="#FF525B" stroke-width="1.5"/>
<path fill-rule="evenodd" clip-rule="evenodd" d="M689.5 830.328H659L674.251 809.82L689.5 789.312L704.749 809.82L720 830.328H689.5Z" stroke="#FF525B" stroke-width="1.5"/>
<path fill-rule="evenodd" clip-rule="evenodd" d="M639.499 789.312H670L654.747 809.82L639.499 830.328L624.251 809.82L609 789.312H639.499Z" stroke="#FF525B" stroke-width="1.5"/>
<path fill-rule="evenodd" clip-rule="evenodd" d="M589.5 830.328H559L574.251 809.82L589.5 789.312L604.749 809.82L620 830.328H589.5Z" stroke="#FF525B" stroke-width="1.5"/>
<path fill-rule="evenodd" clip-rule="evenodd" d="M537.5 789.312H568L552.749 809.82L537.5 830.328L522.251 809.82L507 789.312H537.5Z" stroke="#FF525B" stroke-width="1.5"/>
<path fill-rule="evenodd" clip-rule="evenodd" d="M487.5 830.328H457L472.251 809.82L487.5 789.312L502.749 809.82L518 830.328H487.5Z" stroke="#FF525B" stroke-width="1.5"/>
<path fill-rule="evenodd" clip-rule="evenodd" d="M436.5 789.312H467L451.749 809.82L436.5 830.328L421.249 809.82L406 789.312H436.5Z" stroke="#FF525B" stroke-width="1.5"/>
<path fill-rule="evenodd" clip-rule="evenodd" d="M386.5 830.328H356L371.251 809.82L386.5 789.312L401.751 809.82L417 830.328H386.5Z" stroke="#FF525B" stroke-width="1.5"/>
<path fill-rule="evenodd" clip-rule="evenodd" d="M335.5 789.312H366L350.749 809.82L335.5 830.328L320.251 809.82L305 789.312H335.5Z" stroke="#FF525B" stroke-width="1.5"/>
<path fill-rule="evenodd" clip-rule="evenodd" d="M285.5 830.328H255L270.251 809.82L285.5 789.312L300.749 809.82L316 830.328H285.5Z" stroke="#FF525B" stroke-width="1.5"/>
<path fill-rule="evenodd" clip-rule="evenodd" d="M234.5 789.312H265L249.749 809.82L234.5 830.328L219.249 809.82L204 789.312H234.5Z" stroke="#FF525B" stroke-width="1.5"/>
<path fill-rule="evenodd" clip-rule="evenodd" d="M184.5 830.328H154L169.251 809.82L184.5 789.312L199.749 809.82L215 830.328H184.5Z" stroke="#FF525B" stroke-width="1.5"/>
<path fill-rule="evenodd" clip-rule="evenodd" d="M133.5 789.312H164L148.749 809.82L133.5 830.328L118.251 809.82L103 789.312H133.5Z" stroke="#FF525B" stroke-width="1.5"/>
<path fill-rule="evenodd" clip-rule="evenodd" d="M83.5 830.328H53L68.2488 809.82L83.5 789.312L98.7488 809.82L114 830.328H83.5Z" stroke="#FF525B" stroke-width="1.5"/>
<path fill-rule="evenodd" clip-rule="evenodd" d="M32.5 789.312H63L47.7512 809.82L32.5 830.328L17.2512 809.82L2 789.312H32.5Z" stroke="#FF525B" stroke-width="1.5"/>
<path fill-rule="evenodd" clip-rule="evenodd" d="M1152 758.8C1152 753.551 1156.48 749.296 1162 749.296C1167.52 749.296 1172 753.551 1172 758.8C1172 764.048 1167.52 768.303 1162 768.303C1156.48 768.303 1152 764.048 1152 758.8Z" stroke="#FF525B" stroke-width="1.5"/>
<path fill-rule="evenodd" clip-rule="evenodd" d="M1105 758.8C1105 753.551 1109.48 749.296 1115 749.296C1120.52 749.296 1125 753.551 1125 758.8C1125 764.048 1120.52 768.303 1115 768.303C1109.48 768.303 1105 764.048 1105 758.8Z" stroke="#FF525B" stroke-width="1.5"/>
<path fill-rule="evenodd" clip-rule="evenodd" d="M1056 758.8C1056 753.551 1060.48 749.296 1066 749.296C1071.52 749.296 1076 753.551 1076 758.8C1076 764.048 1071.52 768.303 1066 768.303C1060.48 768.303 1056 764.048 1056 758.8Z" stroke="#FF525B" stroke-width="1.5"/>
<path fill-rule="evenodd" clip-rule="evenodd" d="M1010 758.8C1010 753.551 1014.48 749.296 1020 749.296C1025.52 749.296 1030 753.551 1030 758.8C1030 764.048 1025.52 768.303 1020 768.303C1014.48 768.303 1010 764.048 1010 758.8Z" stroke="#FF525B" stroke-width="1.5"/>
<path fill-rule="evenodd" clip-rule="evenodd" d="M809 766.303H971V749.296H809V766.303Z" stroke="#FF525B" stroke-width="1.5"/>
<path fill-rule="evenodd" clip-rule="evenodd" d="M751 758.8C751 753.551 755.48 749.296 761 749.296C766.525 749.296 771 753.551 771 758.8C771 764.048 766.525 768.303 761 768.303C755.48 768.303 751 764.048 751 758.8Z" stroke="#FF525B" stroke-width="1.5"/>
<path fill-rule="evenodd" clip-rule="evenodd" d="M703 758.8C703 753.551 707.478 749.296 713 749.296C718.522 749.296 723 753.551 723 758.8C723 764.048 718.522 768.303 713 768.303C707.478 768.303 703 764.048 703 758.8Z" stroke="#FF525B" stroke-width="1.5"/>
<path fill-rule="evenodd" clip-rule="evenodd" d="M656 758.8C656 753.551 660.478 749.296 666 749.296C671.525 749.296 676 753.551 676 758.8C676 764.048 671.525 768.303 666 768.303C660.478 768.303 656 764.048 656 758.8Z" stroke="#FF525B" stroke-width="1.5"/>
<path fill-rule="evenodd" clip-rule="evenodd" d="M607 758.8C607 753.551 611.478 749.296 616.999 749.296C622.524 749.296 627 753.551 627 758.8C627 764.048 622.524 768.303 616.999 768.303C611.478 768.303 607 764.048 607 758.8Z" stroke="#FF525B" stroke-width="1.5"/>
<path fill-rule="evenodd" clip-rule="evenodd" d="M408 766.303H570V749.296H408V766.303Z" stroke="#FF525B" stroke-width="1.5"/>
<path fill-rule="evenodd" clip-rule="evenodd" d="M349 758.8C349 753.551 353.478 749.296 359 749.296C364.522 749.296 369 753.551 369 758.8C369 764.048 364.522 768.303 359 768.303C353.478 768.303 349 764.048 349 758.8Z" stroke="#FF525B" stroke-width="1.5"/>
<path fill-rule="evenodd" clip-rule="evenodd" d="M301 758.8C301 753.551 305.478 749.296 311 749.296C316.522 749.296 321 753.551 321 758.8C321 764.048 316.522 768.303 311 768.303C305.478 768.303 301 764.048 301 758.8Z" stroke="#FF525B" stroke-width="1.5"/>
<path fill-rule="evenodd" clip-rule="evenodd" d="M253 758.8C253 753.551 257.478 749.296 263 749.296C268.522 749.296 273 753.551 273 758.8C273 764.048 268.522 768.303 263 768.303C257.478 768.303 253 764.048 253 758.8Z" stroke="#FF525B" stroke-width="1.5"/>
<path fill-rule="evenodd" clip-rule="evenodd" d="M207 758.8C207 753.551 211.478 749.296 217 749.296C222.522 749.296 227 753.551 227 758.8C227 764.048 222.522 768.303 217 768.303C211.478 768.303 207 764.048 207 758.8Z" stroke="#FF525B" stroke-width="1.5"/>
<path fill-rule="evenodd" clip-rule="evenodd" d="M6 766.303H168V749.296H6V766.303Z" stroke="#FF525B" stroke-width="1.5"/>
<path fill-rule="evenodd" clip-rule="evenodd" d="M1010 874.345H1172V857.339H1010V874.345Z" stroke="#FF525B" stroke-width="1.5"/>
<path fill-rule="evenodd" clip-rule="evenodd" d="M829 865.842C829 871.093 824.522 875.346 819 875.346C813.478 875.346 809 871.093 809 865.842C809 860.594 813.478 856.338 819 856.338C824.522 856.338 829 860.594 829 865.842Z" stroke="#FF525B" stroke-width="1.5"/>
<path fill-rule="evenodd" clip-rule="evenodd" d="M877 865.842C877 871.093 872.522 875.346 867 875.346C861.475 875.346 857 871.093 857 865.842C857 860.594 861.475 856.338 867 856.338C872.522 856.338 877 860.594 877 865.842Z" stroke="#FF525B" stroke-width="1.5"/>
<path fill-rule="evenodd" clip-rule="evenodd" d="M924 865.842C924 871.093 919.52 875.346 914 875.346C908.475 875.346 904 871.093 904 865.842C904 860.594 908.475 856.338 914 856.338C919.52 856.338 924 860.594 924 865.842Z" stroke="#FF525B" stroke-width="1.5"/>
<path fill-rule="evenodd" clip-rule="evenodd" d="M972 865.842C972 871.093 967.522 875.346 962 875.346C956.478 875.346 952 871.093 952 865.842C952 860.594 956.478 856.338 962 856.338C967.522 856.338 972 860.594 972 865.842Z" stroke="#FF525B" stroke-width="1.5"/>
<path fill-rule="evenodd" clip-rule="evenodd" d="M609 874.345H771V857.339H609V874.345Z" stroke="#FF525B" stroke-width="1.5"/>
<path fill-rule="evenodd" clip-rule="evenodd" d="M426 865.842C426 871.093 421.522 875.346 416 875.346C410.478 875.346 406 871.093 406 865.842C406 860.594 410.478 856.338 416 856.338C421.522 856.338 426 860.594 426 865.842Z" stroke="#FF525B" stroke-width="1.5"/>
<path fill-rule="evenodd" clip-rule="evenodd" d="M474 865.842C474 871.093 469.522 875.346 464 875.346C458.478 875.346 454 871.093 454 865.842C454 860.594 458.478 856.338 464 856.338C469.522 856.338 474 860.594 474 865.842Z" stroke="#FF525B" stroke-width="1.5"/>
<path fill-rule="evenodd" clip-rule="evenodd" d="M521 865.842C521 871.093 516.522 875.346 511 875.346C505.475 875.346 501 871.093 501 865.842C501 860.594 505.475 856.338 511 856.338C516.522 856.338 521 860.594 521 865.842Z" stroke="#FF525B" stroke-width="1.5"/>
<path fill-rule="evenodd" clip-rule="evenodd" d="M571 865.842C571 871.093 566.522 875.346 561 875.346C555.478 875.346 551 871.093 551 865.842C551 860.594 555.478 856.338 561 856.338C566.522 856.338 571 860.594 571 865.842Z" stroke="#FF525B" stroke-width="1.5"/>
<path fill-rule="evenodd" clip-rule="evenodd" d="M207 874.345H369V857.339H207V874.345Z" stroke="#FF525B" stroke-width="1.5"/>
<path fill-rule="evenodd" clip-rule="evenodd" d="M26 865.842C26 871.093 21.5224 875.346 16 875.346C10.4776 875.346 6 871.093 6 865.842C6 860.594 10.4776 856.338 16 856.338C21.5224 856.338 26 860.594 26 865.842Z" stroke="#FF525B" stroke-width="1.5"/>
<path fill-rule="evenodd" clip-rule="evenodd" d="M72 865.842C72 871.093 67.5224 875.346 62 875.346C56.4776 875.346 52 871.093 52 865.842C52 860.594 56.4776 856.338 62 856.338C67.5224 856.338 72 860.594 72 865.842Z" stroke="#FF525B" stroke-width="1.5"/>
<path fill-rule="evenodd" clip-rule="evenodd" d="M121 865.842C121 871.093 116.522 875.346 111 875.346C105.478 875.346 101 871.093 101 865.842C101 860.594 105.478 856.338 111 856.338C116.522 856.338 121 860.594 121 865.842Z" stroke="#FF525B" stroke-width="1.5"/>
<path fill-rule="evenodd" clip-rule="evenodd" d="M168 865.842C168 871.093 163.522 875.346 158 875.346C152.478 875.346 148 871.093 148 865.842C148 860.594 152.478 856.338 158 856.338C163.522 856.338 168 860.594 168 865.842Z" stroke="#FF525B" stroke-width="1.5"/>
<path fill-rule="evenodd" clip-rule="evenodd" d="M32.5 937.37H2L17.2512 916.862L32.5 896.354L47.7512 916.862L63 937.37H32.5Z" stroke="#FF525B" stroke-width="1.5"/>
<path fill-rule="evenodd" clip-rule="evenodd" d="M83.5 896.354H114L98.7488 916.862L83.5 937.37L68.2512 916.862L53 896.354H83.5Z" stroke="#FF525B" stroke-width="1.5"/>
<path fill-rule="evenodd" clip-rule="evenodd" d="M133.5 937.37H103L118.251 916.862L133.5 896.354L148.749 916.862L164 937.37H133.5Z" stroke="#FF525B" stroke-width="1.5"/>
<path fill-rule="evenodd" clip-rule="evenodd" d="M184.5 896.354H215L199.749 916.862L184.5 937.37L169.251 916.862L154 896.354H184.5Z" stroke="#FF525B" stroke-width="1.5"/>
<path fill-rule="evenodd" clip-rule="evenodd" d="M234.5 937.37H204L219.249 916.863L234.5 896.354L249.749 916.863L265 937.37H234.5Z" stroke="#FF525B" stroke-width="1.5"/>
<path fill-rule="evenodd" clip-rule="evenodd" d="M285.5 896.354H316L300.751 916.862L285.5 937.37L270.251 916.862L255 896.354H285.5Z" stroke="#FF525B" stroke-width="1.5"/>
<path fill-rule="evenodd" clip-rule="evenodd" d="M335.5 937.37H305L320.251 916.863L335.5 896.354L350.749 916.863L366 937.37H335.5Z" stroke="#FF525B" stroke-width="1.5"/>
<path fill-rule="evenodd" clip-rule="evenodd" d="M386.5 896.354H417L401.749 916.862L386.5 937.37L371.251 916.862L356 896.354H386.5Z" stroke="#FF525B" stroke-width="1.5"/>
<path fill-rule="evenodd" clip-rule="evenodd" d="M436.5 937.37H406L421.249 916.863L436.5 896.354L451.749 916.863L467 937.37H436.5Z" stroke="#FF525B" stroke-width="1.5"/>
<path fill-rule="evenodd" clip-rule="evenodd" d="M487.5 896.354H518L502.749 916.862L487.5 937.37L472.249 916.862L457 896.354H487.5Z" stroke="#FF525B" stroke-width="1.5"/>
<path fill-rule="evenodd" clip-rule="evenodd" d="M537.5 937.37H507L522.251 916.863L537.5 896.354L552.749 916.863L568 937.37H537.5Z" stroke="#FF525B" stroke-width="1.5"/>
<path fill-rule="evenodd" clip-rule="evenodd" d="M589.5 896.354H620L604.749 916.862L589.5 937.37L574.249 916.862L559 896.354H589.5Z" stroke="#FF525B" stroke-width="1.5"/>
<path fill-rule="evenodd" clip-rule="evenodd" d="M639.499 937.37H609L624.251 916.863L639.499 896.354L654.747 916.863L670 937.37H639.499Z" stroke="#FF525B" stroke-width="1.5"/>
<path fill-rule="evenodd" clip-rule="evenodd" d="M689.499 896.354H720L704.749 916.862L689.499 937.37L674.251 916.862L659 896.354H689.499Z" stroke="#FF525B" stroke-width="1.5"/>
<path fill-rule="evenodd" clip-rule="evenodd" d="M740.5 937.37H710L725.251 916.863L740.5 896.354L755.749 916.863L771 937.37H740.5Z" stroke="#FF525B" stroke-width="1.5"/>
<path fill-rule="evenodd" clip-rule="evenodd" d="M790.5 896.354H821L805.749 916.862L790.5 937.37L775.251 916.862L760 896.354H790.5Z" stroke="#FF525B" stroke-width="1.5"/>
<path fill-rule="evenodd" clip-rule="evenodd" d="M841.5 937.37H811L826.251 916.863L841.5 896.354L856.749 916.863L872 937.37H841.5Z" stroke="#FF525B" stroke-width="1.5"/>
<path fill-rule="evenodd" clip-rule="evenodd" d="M891.5 896.354H922L906.749 916.862L891.5 937.37L876.251 916.862L861 896.354H891.5Z" stroke="#FF525B" stroke-width="1.5"/>
<path fill-rule="evenodd" clip-rule="evenodd" d="M942.501 937.37H912L927.253 916.863L942.501 896.354L957.749 916.863L973 937.37H942.501Z" stroke="#FF525B" stroke-width="1.5"/>
<path fill-rule="evenodd" clip-rule="evenodd" d="M992.5 896.354H1023L1007.75 916.862L992.5 937.37L977.251 916.862L962 896.354H992.5Z" stroke="#FF525B" stroke-width="1.5"/>
<path fill-rule="evenodd" clip-rule="evenodd" d="M1043.5 937.37H1013L1028.25 916.863L1043.5 896.354L1058.75 916.863L1074 937.37H1043.5Z" stroke="#FF525B" stroke-width="1.5"/>
<path fill-rule="evenodd" clip-rule="evenodd" d="M1093.5 896.354H1124L1108.75 916.862L1093.5 937.37L1078.25 916.862L1063 896.354H1093.5Z" stroke="#FF525B" stroke-width="1.5"/>
<path fill-rule="evenodd" clip-rule="evenodd" d="M1144.5 937.37H1114L1129.25 916.863L1144.5 896.354L1159.75 916.863L1175 937.37H1144.5Z" stroke="#FF525B" stroke-width="1.5"/>
<path fill-rule="evenodd" clip-rule="evenodd" d="M23 1015.9C23 1021.15 18.5224 1025.4 13 1025.4C7.47761 1025.4 3 1021.15 3 1015.9C3 1010.65 7.47761 1006.4 13 1006.4C18.5224 1006.4 23 1010.65 23 1015.9Z" stroke="#FF525B" stroke-width="1.5"/>
<path fill-rule="evenodd" clip-rule="evenodd" d="M70 1015.9C70 1021.15 65.5224 1025.4 60 1025.4C54.4776 1025.4 50 1021.15 50 1015.9C50 1010.65 54.4776 1006.4 60 1006.4C65.5224 1006.4 70 1010.65 70 1015.9Z" stroke="#FF525B" stroke-width="1.5"/>
<path fill-rule="evenodd" clip-rule="evenodd" d="M119 1015.9C119 1021.15 114.522 1025.4 109 1025.4C103.478 1025.4 99 1021.15 99 1015.9C99 1010.65 103.478 1006.4 109 1006.4C114.522 1006.4 119 1010.65 119 1015.9Z" stroke="#FF525B" stroke-width="1.5"/>
<path fill-rule="evenodd" clip-rule="evenodd" d="M165 1015.9C165 1021.15 160.522 1025.4 155 1025.4C149.475 1025.4 145 1021.15 145 1015.9C145 1010.65 149.475 1006.4 155 1006.4C160.522 1006.4 165 1010.65 165 1015.9Z" stroke="#FF525B" stroke-width="1.5"/>
<path fill-rule="evenodd" clip-rule="evenodd" d="M204 1025.4H366V1008.4H204V1025.4Z" stroke="#FF525B" stroke-width="1.5"/>
<path fill-rule="evenodd" clip-rule="evenodd" d="M425 1015.9C425 1021.15 420.522 1025.4 415 1025.4C409.478 1025.4 405 1021.15 405 1015.9C405 1010.65 409.478 1006.4 415 1006.4C420.522 1006.4 425 1010.65 425 1015.9Z" stroke="#FF525B" stroke-width="1.5"/>
<path fill-rule="evenodd" clip-rule="evenodd" d="M472 1015.9C472 1021.15 467.522 1025.4 462 1025.4C456.478 1025.4 452 1021.15 452 1015.9C452 1010.65 456.478 1006.4 462 1006.4C467.522 1006.4 472 1010.65 472 1015.9Z" stroke="#FF525B" stroke-width="1.5"/>
<path fill-rule="evenodd" clip-rule="evenodd" d="M521 1015.9C521 1021.15 516.522 1025.4 511 1025.4C505.478 1025.4 501 1021.15 501 1015.9C501 1010.65 505.478 1006.4 511 1006.4C516.522 1006.4 521 1010.65 521 1015.9Z" stroke="#FF525B" stroke-width="1.5"/>
<path fill-rule="evenodd" clip-rule="evenodd" d="M568 1015.9C568 1021.15 563.522 1025.4 558 1025.4C552.478 1025.4 548 1021.15 548 1015.9C548 1010.65 552.478 1006.4 558 1006.4C563.522 1006.4 568 1010.65 568 1015.9Z" stroke="#FF525B" stroke-width="1.5"/>
<path fill-rule="evenodd" clip-rule="evenodd" d="M607 1025.4H769V1008.4H607V1025.4Z" stroke="#FF525B" stroke-width="1.5"/>
<path fill-rule="evenodd" clip-rule="evenodd" d="M826 1015.9C826 1021.15 821.522 1025.4 816 1025.4C810.475 1025.4 806 1021.15 806 1015.9C806 1010.65 810.475 1006.4 816 1006.4C821.522 1006.4 826 1010.65 826 1015.9Z" stroke="#FF525B" stroke-width="1.5"/>
<path fill-rule="evenodd" clip-rule="evenodd" d="M874 1015.9C874 1021.15 869.522 1025.4 864.001 1025.4C858.476 1025.4 854 1021.15 854 1015.9C854 1010.65 858.476 1006.4 864.001 1006.4C869.522 1006.4 874 1010.65 874 1015.9Z" stroke="#FF525B" stroke-width="1.5"/>
<path fill-rule="evenodd" clip-rule="evenodd" d="M922 1015.9C922 1021.15 917.522 1025.4 912 1025.4C906.478 1025.4 902 1021.15 902 1015.9C902 1010.65 906.478 1006.4 912 1006.4C917.522 1006.4 922 1010.65 922 1015.9Z" stroke="#FF525B" stroke-width="1.5"/>
<path fill-rule="evenodd" clip-rule="evenodd" d="M970 1015.9C970 1021.15 965.52 1025.4 960 1025.4C954.475 1025.4 950 1021.15 950 1015.9C950 1010.65 954.475 1006.4 960 1006.4C965.52 1006.4 970 1010.65 970 1015.9Z" stroke="#FF525B" stroke-width="1.5"/>
<path fill-rule="evenodd" clip-rule="evenodd" d="M1007 1025.4H1169V1008.4H1007V1025.4Z" stroke="#FF525B" stroke-width="1.5"/>
<path fill-rule="evenodd" clip-rule="evenodd" d="M3 980.387H165V963.38H3V980.387Z" stroke="#FF525B" stroke-width="1.5"/>
<path fill-rule="evenodd" clip-rule="evenodd" d="M346 972.884C346 967.633 350.478 963.38 356 963.38C361.525 963.38 366 967.633 366 972.884C366 978.135 361.525 982.388 356 982.388C350.478 982.388 346 978.135 346 972.884Z" stroke="#FF525B" stroke-width="1.5"/>
<path fill-rule="evenodd" clip-rule="evenodd" d="M300 972.884C300 967.633 304.478 963.38 310 963.38C315.522 963.38 320 967.633 320 972.884C320 978.135 315.522 982.388 310 982.388C304.478 982.388 300 978.135 300 972.884Z" stroke="#FF525B" stroke-width="1.5"/>
<path fill-rule="evenodd" clip-rule="evenodd" d="M251 972.884C251 967.633 255.478 963.38 261 963.38C266.522 963.38 271 967.633 271 972.884C271 978.135 266.522 982.388 261 982.388C255.478 982.388 251 978.135 251 972.884Z" stroke="#FF525B" stroke-width="1.5"/>
<path fill-rule="evenodd" clip-rule="evenodd" d="M204 972.884C204 967.633 208.478 963.38 214 963.38C219.522 963.38 224 967.633 224 972.884C224 978.135 219.522 982.388 214 982.388C208.478 982.388 204 978.135 204 972.884Z" stroke="#FF525B" stroke-width="1.5"/>
<path fill-rule="evenodd" clip-rule="evenodd" d="M405 980.387H567V963.38H405V980.387Z" stroke="#FF525B" stroke-width="1.5"/>
<path fill-rule="evenodd" clip-rule="evenodd" d="M749 972.884C749 967.633 753.478 963.38 759 963.38C764.525 963.38 769 967.633 769 972.884C769 978.135 764.525 982.388 759 982.388C753.478 982.388 749 978.135 749 972.884Z" stroke="#FF525B" stroke-width="1.5"/>
<path fill-rule="evenodd" clip-rule="evenodd" d="M701 972.884C701 967.633 705.48 963.38 711 963.38C716.525 963.38 721 967.633 721 972.884C721 978.135 716.525 982.388 711 982.388C705.48 982.388 701 978.135 701 972.884Z" stroke="#FF525B" stroke-width="1.5"/>
<path fill-rule="evenodd" clip-rule="evenodd" d="M653 972.884C653 967.633 657.478 963.38 663 963.38C668.522 963.38 673 967.633 673 972.884C673 978.135 668.522 982.388 663 982.388C657.478 982.388 653 978.135 653 972.884Z" stroke="#FF525B" stroke-width="1.5"/>
<path fill-rule="evenodd" clip-rule="evenodd" d="M605 972.884C605 967.633 609.478 963.38 615 963.38C620.525 963.38 625 967.633 625 972.884C625 978.135 620.525 982.388 615 982.388C609.478 982.388 605 978.135 605 972.884Z" stroke="#FF525B" stroke-width="1.5"/>
<path fill-rule="evenodd" clip-rule="evenodd" d="M808 980.387H970V963.38H808V980.387Z" stroke="#FF525B" stroke-width="1.5"/>
<path fill-rule="evenodd" clip-rule="evenodd" d="M1151 972.884C1151 967.633 1155.48 963.38 1161 963.38C1166.52 963.38 1171 967.633 1171 972.884C1171 978.135 1166.52 982.388 1161 982.388C1155.48 982.388 1151 978.135 1151 972.884Z" stroke="#FF525B" stroke-width="1.5"/>
<path fill-rule="evenodd" clip-rule="evenodd" d="M1103 972.884C1103 967.633 1107.48 963.38 1113 963.38C1118.52 963.38 1123 967.633 1123 972.884C1123 978.135 1118.52 982.388 1113 982.388C1107.48 982.388 1103 978.135 1103 972.884Z" stroke="#FF525B" stroke-width="1.5"/>
<path fill-rule="evenodd" clip-rule="evenodd" d="M1055 972.884C1055 967.633 1059.48 963.38 1065 963.38C1070.52 963.38 1075 967.633 1075 972.884C1075 978.135 1070.52 982.388 1065 982.388C1059.48 982.388 1055 978.135 1055 972.884Z" stroke="#FF525B" stroke-width="1.5"/>
<path fill-rule="evenodd" clip-rule="evenodd" d="M1007 972.884C1007 967.633 1011.48 963.38 1017 963.38C1022.52 963.38 1027 967.633 1027 972.884C1027 978.135 1022.52 982.388 1017 982.388C1011.48 982.388 1007 978.135 1007 972.884Z" stroke="#FF525B" stroke-width="1.5"/>
<path fill-rule="evenodd" clip-rule="evenodd" d="M1144.5 1087.43H1175L1159.75 1107.94L1144.5 1128.45L1129.25 1107.94L1114 1087.43H1144.5Z" stroke="#FF525B" stroke-width="1.5"/>
<path fill-rule="evenodd" clip-rule="evenodd" d="M1093.5 1128.45H1063L1078.25 1107.94L1093.5 1087.43L1108.75 1107.94L1124 1128.45H1093.5Z" stroke="#FF525B" stroke-width="1.5"/>
<path fill-rule="evenodd" clip-rule="evenodd" d="M1043.5 1087.43H1074L1058.75 1107.94L1043.5 1128.45L1028.25 1107.94L1013 1087.43H1043.5Z" stroke="#FF525B" stroke-width="1.5"/>
<path fill-rule="evenodd" clip-rule="evenodd" d="M992.499 1128.45H962L977.251 1107.94L992.499 1087.43L1007.75 1107.94L1023 1128.45H992.499Z" stroke="#FF525B" stroke-width="1.5"/>
<path fill-rule="evenodd" clip-rule="evenodd" d="M942.501 1087.43H973L957.749 1107.94L942.501 1128.45L927.253 1107.94L912 1087.43H942.501Z" stroke="#FF525B" stroke-width="1.5"/>
<path fill-rule="evenodd" clip-rule="evenodd" d="M891.5 1128.45H861L876.251 1107.94L891.5 1087.43L906.749 1107.94L922 1128.45H891.5Z" stroke="#FF525B" stroke-width="1.5"/>
<path fill-rule="evenodd" clip-rule="evenodd" d="M841.5 1087.43H872L856.749 1107.94L841.5 1128.45L826.251 1107.94L811 1087.43H841.5Z" stroke="#FF525B" stroke-width="1.5"/>
<path fill-rule="evenodd" clip-rule="evenodd" d="M790.5 1128.45H760L775.251 1107.94L790.5 1087.43L805.749 1107.94L821 1128.45H790.5Z" stroke="#FF525B" stroke-width="1.5"/>
<path fill-rule="evenodd" clip-rule="evenodd" d="M740.5 1087.43H771L755.749 1107.94L740.5 1128.45L725.251 1107.94L710 1087.43H740.5Z" stroke="#FF525B" stroke-width="1.5"/>
<path fill-rule="evenodd" clip-rule="evenodd" d="M689.5 1128.45H659L674.251 1107.94L689.5 1087.43L704.749 1107.94L720 1128.45H689.5Z" stroke="#FF525B" stroke-width="1.5"/>
<path fill-rule="evenodd" clip-rule="evenodd" d="M639.499 1087.43H670L654.747 1107.94L639.499 1128.45L624.251 1107.94L609 1087.43H639.499Z" stroke="#FF525B" stroke-width="1.5"/>
<path fill-rule="evenodd" clip-rule="evenodd" d="M589.5 1128.45H559L574.251 1107.94L589.5 1087.43L604.749 1107.94L620 1128.45H589.5Z" stroke="#FF525B" stroke-width="1.5"/>
<path fill-rule="evenodd" clip-rule="evenodd" d="M537.5 1087.43H568L552.749 1107.94L537.5 1128.45L522.251 1107.94L507 1087.43H537.5Z" stroke="#FF525B" stroke-width="1.5"/>
<path fill-rule="evenodd" clip-rule="evenodd" d="M487.5 1128.45H457L472.251 1107.94L487.5 1087.43L502.749 1107.94L518 1128.45H487.5Z" stroke="#FF525B" stroke-width="1.5"/>
<path fill-rule="evenodd" clip-rule="evenodd" d="M436.5 1087.43H467L451.749 1107.94L436.5 1128.45L421.249 1107.94L406 1087.43H436.5Z" stroke="#FF525B" stroke-width="1.5"/>
<path fill-rule="evenodd" clip-rule="evenodd" d="M386.5 1128.45H356L371.251 1107.94L386.5 1087.43L401.751 1107.94L417 1128.45H386.5Z" stroke="#FF525B" stroke-width="1.5"/>
<path fill-rule="evenodd" clip-rule="evenodd" d="M335.5 1087.43H366L350.749 1107.94L335.5 1128.45L320.251 1107.94L305 1087.43H335.5Z" stroke="#FF525B" stroke-width="1.5"/>
<path fill-rule="evenodd" clip-rule="evenodd" d="M285.5 1128.45H255L270.251 1107.94L285.5 1087.43L300.749 1107.94L316 1128.45H285.5Z" stroke="#FF525B" stroke-width="1.5"/>
<path fill-rule="evenodd" clip-rule="evenodd" d="M234.5 1087.43H265L249.749 1107.94L234.5 1128.45L219.249 1107.94L204 1087.43H234.5Z" stroke="#FF525B" stroke-width="1.5"/>
<path fill-rule="evenodd" clip-rule="evenodd" d="M184.5 1128.45H154L169.251 1107.94L184.5 1087.43L199.749 1107.94L215 1128.45H184.5Z" stroke="#FF525B" stroke-width="1.5"/>
<path fill-rule="evenodd" clip-rule="evenodd" d="M133.5 1087.43H164L148.749 1107.94L133.5 1128.45L118.251 1107.94L103 1087.43H133.5Z" stroke="#FF525B" stroke-width="1.5"/>
<path fill-rule="evenodd" clip-rule="evenodd" d="M83.5 1128.45H53L68.2488 1107.94L83.5 1087.43L98.7488 1107.94L114 1128.45H83.5Z" stroke="#FF525B" stroke-width="1.5"/>
<path fill-rule="evenodd" clip-rule="evenodd" d="M32.5 1087.43H63L47.7512 1107.94L32.5 1128.45L17.2512 1107.94L2 1087.43H32.5Z" stroke="#FF525B" stroke-width="1.5"/>
<path fill-rule="evenodd" clip-rule="evenodd" d="M1152 1055.92C1152 1050.67 1156.48 1046.41 1162 1046.41C1167.52 1046.41 1172 1050.67 1172 1055.92C1172 1061.17 1167.52 1065.42 1162 1065.42C1156.48 1065.42 1152 1061.17 1152 1055.92Z" stroke="#FF525B" stroke-width="1.5"/>
<path fill-rule="evenodd" clip-rule="evenodd" d="M1105 1055.92C1105 1050.67 1109.48 1046.41 1115 1046.41C1120.52 1046.41 1125 1050.67 1125 1055.92C1125 1061.17 1120.52 1065.42 1115 1065.42C1109.48 1065.42 1105 1061.17 1105 1055.92Z" stroke="#FF525B" stroke-width="1.5"/>
<path fill-rule="evenodd" clip-rule="evenodd" d="M1056 1055.92C1056 1050.67 1060.48 1046.41 1066 1046.41C1071.52 1046.41 1076 1050.67 1076 1055.92C1076 1061.17 1071.52 1065.42 1066 1065.42C1060.48 1065.42 1056 1061.17 1056 1055.92Z" stroke="#FF525B" stroke-width="1.5"/>
<path fill-rule="evenodd" clip-rule="evenodd" d="M1010 1055.92C1010 1050.67 1014.48 1046.41 1020 1046.41C1025.52 1046.41 1030 1050.67 1030 1055.92C1030 1061.17 1025.52 1065.42 1020 1065.42C1014.48 1065.42 1010 1061.17 1010 1055.92Z" stroke="#FF525B" stroke-width="1.5"/>
<path fill-rule="evenodd" clip-rule="evenodd" d="M809 1063.42H971V1046.41H809V1063.42Z" stroke="#FF525B" stroke-width="1.5"/>
<path fill-rule="evenodd" clip-rule="evenodd" d="M751 1055.92C751 1050.67 755.48 1046.41 761 1046.41C766.525 1046.41 771 1050.67 771 1055.92C771 1061.17 766.525 1065.42 761 1065.42C755.48 1065.42 751 1061.17 751 1055.92Z" stroke="#FF525B" stroke-width="1.5"/>
<path fill-rule="evenodd" clip-rule="evenodd" d="M703 1055.92C703 1050.67 707.478 1046.41 713 1046.41C718.522 1046.41 723 1050.67 723 1055.92C723 1061.17 718.522 1065.42 713 1065.42C707.478 1065.42 703 1061.17 703 1055.92Z" stroke="#FF525B" stroke-width="1.5"/>
<path fill-rule="evenodd" clip-rule="evenodd" d="M656 1055.92C656 1050.67 660.478 1046.41 666 1046.41C671.525 1046.41 676 1050.67 676 1055.92C676 1061.17 671.525 1065.42 666 1065.42C660.478 1065.42 656 1061.17 656 1055.92Z" stroke="#FF525B" stroke-width="1.5"/>
<path fill-rule="evenodd" clip-rule="evenodd" d="M607 1055.92C607 1050.67 611.478 1046.41 616.999 1046.41C622.524 1046.41 627 1050.67 627 1055.92C627 1061.17 622.524 1065.42 616.999 1065.42C611.478 1065.42 607 1061.17 607 1055.92Z" stroke="#FF525B" stroke-width="1.5"/>
<path fill-rule="evenodd" clip-rule="evenodd" d="M408 1063.42H570V1046.41H408V1063.42Z" stroke="#FF525B" stroke-width="1.5"/>
<path fill-rule="evenodd" clip-rule="evenodd" d="M349 1055.92C349 1050.67 353.478 1046.41 359 1046.41C364.522 1046.41 369 1050.67 369 1055.92C369 1061.17 364.522 1065.42 359 1065.42C353.478 1065.42 349 1061.17 349 1055.92Z" stroke="#FF525B" stroke-width="1.5"/>
<path fill-rule="evenodd" clip-rule="evenodd" d="M301 1055.92C301 1050.67 305.478 1046.41 311 1046.41C316.522 1046.41 321 1050.67 321 1055.92C321 1061.17 316.522 1065.42 311 1065.42C305.478 1065.42 301 1061.17 301 1055.92Z" stroke="#FF525B" stroke-width="1.5"/>
<path fill-rule="evenodd" clip-rule="evenodd" d="M253 1055.92C253 1050.67 257.478 1046.41 263 1046.41C268.522 1046.41 273 1050.67 273 1055.92C273 1061.17 268.522 1065.42 263 1065.42C257.478 1065.42 253 1061.17 253 1055.92Z" stroke="#FF525B" stroke-width="1.5"/>
<path fill-rule="evenodd" clip-rule="evenodd" d="M207 1055.92C207 1050.67 211.478 1046.41 217 1046.41C222.522 1046.41 227 1050.67 227 1055.92C227 1061.17 222.522 1065.42 217 1065.42C211.478 1065.42 207 1061.17 207 1055.92Z" stroke="#FF525B" stroke-width="1.5"/>
<path fill-rule="evenodd" clip-rule="evenodd" d="M6 1063.42H168V1046.41H6V1063.42Z" stroke="#FF525B" stroke-width="1.5"/>
<path fill-rule="evenodd" clip-rule="evenodd" d="M1010 1171.46H1172V1154.46H1010V1171.46Z" stroke="#FF525B" stroke-width="1.5"/>
<path fill-rule="evenodd" clip-rule="evenodd" d="M829 1160.96C829 1166.21 824.522 1170.46 819 1170.46C813.478 1170.46 809 1166.21 809 1160.96C809 1155.71 813.478 1151.45 819 1151.45C824.522 1151.45 829 1155.71 829 1160.96Z" stroke="#FF525B" stroke-width="1.5"/>
<path fill-rule="evenodd" clip-rule="evenodd" d="M877 1160.96C877 1166.21 872.522 1170.46 867 1170.46C861.475 1170.46 857 1166.21 857 1160.96C857 1155.71 861.475 1151.45 867 1151.45C872.522 1151.45 877 1155.71 877 1160.96Z" stroke="#FF525B" stroke-width="1.5"/>
<path fill-rule="evenodd" clip-rule="evenodd" d="M924 1160.96C924 1166.21 919.52 1170.46 914 1170.46C908.475 1170.46 904 1166.21 904 1160.96C904 1155.71 908.475 1151.45 914 1151.45C919.52 1151.45 924 1155.71 924 1160.96Z" stroke="#FF525B" stroke-width="1.5"/>
<path fill-rule="evenodd" clip-rule="evenodd" d="M972 1160.96C972 1166.21 967.522 1170.46 962 1170.46C956.478 1170.46 952 1166.21 952 1160.96C952 1155.71 956.478 1151.45 962 1151.45C967.522 1151.45 972 1155.71 972 1160.96Z" stroke="#FF525B" stroke-width="1.5"/>
<path fill-rule="evenodd" clip-rule="evenodd" d="M609 1171.46H771V1154.46H609V1171.46Z" stroke="#FF525B" stroke-width="1.5"/>
<path fill-rule="evenodd" clip-rule="evenodd" d="M426 1160.96C426 1166.21 421.522 1170.46 416 1170.46C410.478 1170.46 406 1166.21 406 1160.96C406 1155.71 410.478 1151.45 416 1151.45C421.522 1151.45 426 1155.71 426 1160.96Z" stroke="#FF525B" stroke-width="1.5"/>
<path fill-rule="evenodd" clip-rule="evenodd" d="M474 1160.96C474 1166.21 469.522 1170.46 464 1170.46C458.478 1170.46 454 1166.21 454 1160.96C454 1155.71 458.478 1151.45 464 1151.45C469.522 1151.45 474 1155.71 474 1160.96Z" stroke="#FF525B" stroke-width="1.5"/>
<path fill-rule="evenodd" clip-rule="evenodd" d="M521 1160.96C521 1166.21 516.522 1170.46 511 1170.46C505.475 1170.46 501 1166.21 501 1160.96C501 1155.71 505.475 1151.45 511 1151.45C516.522 1151.45 521 1155.71 521 1160.96Z" stroke="#FF525B" stroke-width="1.5"/>
<path fill-rule="evenodd" clip-rule="evenodd" d="M571 1160.96C571 1166.21 566.522 1170.46 561 1170.46C555.478 1170.46 551 1166.21 551 1160.96C551 1155.71 555.478 1151.45 561 1151.45C566.522 1151.45 571 1155.71 571 1160.96Z" stroke="#FF525B" stroke-width="1.5"/>
<path fill-rule="evenodd" clip-rule="evenodd" d="M207 1171.46H369V1154.46H207V1171.46Z" stroke="#FF525B" stroke-width="1.5"/>
<path fill-rule="evenodd" clip-rule="evenodd" d="M26 1160.96C26 1166.21 21.5224 1170.46 16 1170.46C10.4776 1170.46 6 1166.21 6 1160.96C6 1155.71 10.4776 1151.45 16 1151.45C21.5224 1151.45 26 1155.71 26 1160.96Z" stroke="#FF525B" stroke-width="1.5"/>
<path fill-rule="evenodd" clip-rule="evenodd" d="M72 1160.96C72 1166.21 67.5224 1170.46 62 1170.46C56.4776 1170.46 52 1166.21 52 1160.96C52 1155.71 56.4776 1151.45 62 1151.45C67.5224 1151.45 72 1155.71 72 1160.96Z" stroke="#FF525B" stroke-width="1.5"/>
<path fill-rule="evenodd" clip-rule="evenodd" d="M121 1160.96C121 1166.21 116.522 1170.46 111 1170.46C105.478 1170.46 101 1166.21 101 1160.96C101 1155.71 105.478 1151.45 111 1151.45C116.522 1151.45 121 1155.71 121 1160.96Z" stroke="#FF525B" stroke-width="1.5"/>
<path fill-rule="evenodd" clip-rule="evenodd" d="M168 1160.96C168 1166.21 163.522 1170.46 158 1170.46C152.478 1170.46 148 1166.21 148 1160.96C148 1155.71 152.478 1151.45 158 1151.45C163.522 1151.45 168 1155.71 168 1160.96Z" stroke="#FF525B" stroke-width="1.5"/>
</g>
</svg>
