<svg xmlns="http://www.w3.org/2000/svg" viewBox="0 0 124 40"><defs><style>.cls-1{fill:#fff;}.cls-2{fill:#ff525b;}</style></defs><title>tiiwa logo white</title><g id="Layer_2" data-name="Layer 2"><path class="cls-1" d="M14.92,38.8a12.26,12.26,0,0,1-3.49.45,13,13,0,0,1-3.31-.39,5.87,5.87,0,0,1-2.55-1.38A6.53,6.53,0,0,1,3.9,34.89a11.55,11.55,0,0,1-.6-4V19.28a1.67,1.67,0,0,0-1.67-1.67h0A1.67,1.67,0,0,1,0,15.94V12.5a1.66,1.66,0,0,1,1.67-1.66h0A1.67,1.67,0,0,0,3.3,9.17V5.36A1.67,1.67,0,0,1,5,3.69H9.55a1.67,1.67,0,0,1,1.67,1.67V9.17a1.67,1.67,0,0,0,1.67,1.67h3.23a1.66,1.66,0,0,1,1.66,1.66v3.44a1.66,1.66,0,0,1-1.66,1.67H12.89a1.67,1.67,0,0,0-1.67,1.67V29.55c0,1.81.85,2.71,2.55,2.71a8.48,8.48,0,0,0,1.83-.2,1.67,1.67,0,0,1,2.08,1.61v2.95a1.7,1.7,0,0,1-1,1.54A13.42,13.42,0,0,1,14.92,38.8Z"/><path class="cls-2" d="M23.77,4.24h0A3.53,3.53,0,0,1,27.29.72h1.3a3.52,3.52,0,0,1,3.52,3.52h0a3.52,3.52,0,0,1-3.52,3.52h-1.3A3.53,3.53,0,0,1,23.77,4.24ZM24,34.82v-20a4,4,0,0,1,4-4h0a4,4,0,0,1,4,4v20a4,4,0,0,1-4,4h0A4,4,0,0,1,24,34.82Z"/><path class="cls-2" d="M39.51,4.24h0A3.52,3.52,0,0,1,43,.72h1.3a3.52,3.52,0,0,1,3.51,3.52h0a3.52,3.52,0,0,1-3.51,3.52H43A3.52,3.52,0,0,1,39.51,4.24Zm.21,30.58v-20a4,4,0,0,1,4-4h0a4,4,0,0,1,4,4v20a4,4,0,0,1-4,4h0A4,4,0,0,1,39.72,34.82Z"/><path class="cls-1" d="M85.28,39h-4.8A1.57,1.57,0,0,1,79,37.88L75.44,26.61a1.58,1.58,0,0,0-3,0l-3.6,11.28A1.59,1.59,0,0,1,67.32,39H62.56a1.59,1.59,0,0,1-1.51-1.12l-7.63-25a1.58,1.58,0,0,1,1.51-2H59.6A1.58,1.58,0,0,1,61.13,12l2.76,10.43a1.58,1.58,0,0,0,3,.06l3.29-10.65a1.57,1.57,0,0,1,1.51-1.12h4.49a1.58,1.58,0,0,1,1.51,1.11l3.35,10.79a1.58,1.58,0,0,0,3-.06L87,12a1.58,1.58,0,0,1,1.53-1.17H93a1.59,1.59,0,0,1,1.51,2.05l-7.72,25A1.59,1.59,0,0,1,85.28,39Z"/><path class="cls-1" d="M117.14,38.78a.84.84,0,0,1-.83-.84V35.75a11.16,11.16,0,0,1-3.5,2.59,11.5,11.5,0,0,1-5,1,12.17,12.17,0,0,1-3.72-.55,8.71,8.71,0,0,1-3-1.64A7.92,7.92,0,0,1,99,34.43a8.55,8.55,0,0,1-.75-3.68v-.1a8.9,8.9,0,0,1,.83-4,7.66,7.66,0,0,1,2.32-2.76A10.32,10.32,0,0,1,105,22.28a17.48,17.48,0,0,1,4.56-.55,20.25,20.25,0,0,1,3.73.31,23.23,23.23,0,0,1,3.1.84v-.47a4.78,4.78,0,0,0-1.51-3.81,6.75,6.75,0,0,0-4.48-1.3,18.64,18.64,0,0,0-4,.39,25.72,25.72,0,0,0-2.86.83.84.84,0,0,1-1.08-.52l-1.47-4.5a.84.84,0,0,1,.48-1,31.2,31.2,0,0,1,4.07-1.31,25.06,25.06,0,0,1,6-.63q6.51,0,9.48,3.18t3,8.87V37.94a.84.84,0,0,1-.83.84Zm-.68-10.7a.84.84,0,0,0-.51-.78,14.29,14.29,0,0,0-1.81-.54,12.5,12.5,0,0,0-2.73-.28,7.06,7.06,0,0,0-4,1,3.23,3.23,0,0,0-1.46,2.86v.11a2.92,2.92,0,0,0,1.2,2.5,5.11,5.11,0,0,0,3.12.89,9.9,9.9,0,0,0,1.78-.16,5.62,5.62,0,0,0,4.42-5.59Z"/></g></svg>