<svg width="32" height="32" viewBox="0 0 32 32" fill="none" xmlns="http://www.w3.org/2000/svg">
<path fill-rule="evenodd" clip-rule="evenodd" d="M32 6.076C30.821 6.597 29.558 6.951 28.23 7.11C29.586 6.298 30.624 5.01 31.115 3.48C29.844 4.232 28.44 4.778 26.944 5.074C25.747 3.796 24.043 3 22.153 3C18.528 3 15.588 5.94 15.588 9.563C15.588 10.077 15.646 10.579 15.758 11.059C10.304 10.785 5.466 8.171 2.229 4.2C1.663 5.168 1.341 6.296 1.341 7.499C1.341 9.777 2.501 11.787 4.261 12.963C3.185 12.927 2.173 12.631 1.287 12.138V12.221C1.287 15.4 3.551 18.054 6.552 18.658C6.002 18.805 5.422 18.888 4.823 18.888C4.399 18.888 3.989 18.846 3.587 18.765C4.423 21.375 6.846 23.273 9.718 23.325C7.472 25.084 4.641 26.13 1.565 26.13C1.035 26.13 0.513 26.098 0 26.04C2.905 27.906 6.354 28.993 10.062 28.993C22.138 28.993 28.738 18.992 28.738 10.317L28.716 9.467C30.006 8.547 31.122 7.391 32 6.076Z" fill="#36404C"/>
</svg>
