<svg width="32" height="26" viewBox="0 0 32 26" fill="none" xmlns="http://www.w3.org/2000/svg">
<mask id="mask0" mask-type="alpha" maskUnits="userSpaceOnUse" x="0" y="0" width="32" height="26">
<path fill-rule="evenodd" clip-rule="evenodd" d="M0.000488281 0.000244141H32V25.9926H0.000488281V0.000244141Z" fill="white"/>
</mask>
<g mask="url(#mask0)">
<path fill-rule="evenodd" clip-rule="evenodd" d="M32.0005 3.07576C30.8215 3.59676 29.5585 3.95076 28.2305 4.10976C29.5865 3.29776 30.6245 2.00976 31.1155 0.479756C29.8445 1.23176 28.4405 1.77776 26.9445 2.07376C25.7475 0.795756 24.0435 -0.000244141 22.1535 -0.000244141C18.5285 -0.000244141 15.5885 2.93976 15.5885 6.56276C15.5885 7.07676 15.6465 7.57876 15.7585 8.05876C10.3045 7.78476 5.46649 5.17076 2.22949 1.19976C1.66349 2.16776 1.34149 3.29576 1.34149 4.49876C1.34149 6.77676 2.50149 8.78676 4.26149 9.96276C3.18549 9.92676 2.17349 9.63076 1.28749 9.13776V9.22076C1.28749 12.3998 3.55149 15.0538 6.55249 15.6578C6.00249 15.8048 5.42249 15.8878 4.82349 15.8878C4.39949 15.8878 3.98949 15.8458 3.58749 15.7648C4.42349 18.3748 6.84649 20.2728 9.71849 20.3248C7.47249 22.0838 4.64149 23.1298 1.56549 23.1298C1.03549 23.1298 0.513488 23.0978 0.000488281 23.0398C2.90549 24.9058 6.35449 25.9928 10.0625 25.9928C22.1385 25.9928 28.7385 15.9918 28.7385 7.31676L28.7165 6.46676C30.0065 5.54676 31.1225 4.39076 32.0005 3.07576Z" fill="white"/>
</g>
</svg>
